STARTFONT 2.1
COMMENT
COMMENT Converted from OpenType font "GenBasR.ttf" by "otf2bdf 3.0".
COMMENT
FONT -FreeType-Gentium Basic-Medium-R-Normal--40-400-72-72-P-182-ISO10646-1
SIZE 40 72 72
FONTBOUNDINGBOX 59 57 -20 -14
STARTPROPERTIES 19
FOUNDRY "FreeType"
FAMILY_NAME "Gentium Basic"
WEIGHT_NAME "Medium"
SLANT "R"
SETWIDTH_NAME "Normal"
ADD_STYLE_NAME ""
PIXEL_SIZE 40
POINT_SIZE 400
RESOLUTION_X 72
RESOLUTION_Y 72
SPACING "P"
AVERAGE_WIDTH 182
CHARSET_REGISTRY "ISO10646"
CHARSET_ENCODING "1"
FONT_ASCENT 34
FONT_DESCENT 11
COPYRIGHT "Copyright (c) SIL International, 2003-2008."
_OTF_FONTFILE "GenBasR.ttf"
_OTF_PSNAME "GentiumBasic"
ENDPROPERTIES
CHARS 704
STARTCHAR 0020
ENCODING 32
SWIDTH 225 0
DWIDTH 9 0
BBX 0 0 0 0
BITMAP
ENDCHAR
STARTCHAR 0021
ENCODING 33
SWIDTH 275 0
DWIDTH 11 0
BBX 5 30 3 -1
BITMAP
30
70
F0
70
70
70
70
70
70
70
70
70
70
70
70
70
70
70
70
60
60
60
00
00
00
70
F8
F8
F8
70
ENDCHAR
STARTCHAR 0022
ENCODING 34
SWIDTH 425 0
DWIDTH 17 0
BBX 11 13 3 16
BITMAP
70E0
F1E0
F1E0
F1E0
F1E0
70E0
60C0
60C0
60C0
60C0
60C0
60C0
60C0
ENDCHAR
STARTCHAR 0023
ENCODING 35
SWIDTH 475 0
DWIDTH 19 0
BBX 17 23 2 2
BITMAP
00C200
018600
018600
018E00
038C00
030C00
030C00
3FFF80
3FFF80
061800
063800
0E3000
0C3000
0C3000
FFFE00
FFFE00
186000
18E000
30C000
30C000
30C000
71C000
618000
ENDCHAR
STARTCHAR 0024
ENCODING 36
SWIDTH 475 0
DWIDTH 19 0
BBX 16 30 1 -3
BITMAP
0180
0180
0180
03E0
0FFC
39FE
319C
7188
7180
7180
7980
3D80
3F80
1FE0
07F8
01FC
01BE
018F
018F
0187
C187
C187
E18E
F18E
FFFC
3FF0
0FC0
0180
0180
0180
ENDCHAR
STARTCHAR 0025
ENCODING 37
SWIDTH 675 0
DWIDTH 27 0
BBX 25 25 1 -1
BITMAP
0F800600
3FC01C00
71E03800
70E03800
E0707000
E070E000
E070E000
E071C000
E0738000
70E70000
78E70000
3FCE3C00
1F1CFE00
001DCF00
0039C700
00738380
00E38380
00E38380
01C38380
03838380
03838380
0701C700
0E01C700
1C00FE00
18007800
ENDCHAR
STARTCHAR 0026
ENCODING 38
SWIDTH 675 0
DWIDTH 27 0
BBX 24 28 2 0
BITMAP
00F800
01FC00
031E00
070E00
0E0E00
0E0E00
0E0E00
0E0C00
0E1C00
0F3800
077000
07C000
0783FF
0F87FF
1DC1F2
39E0F0
70F070
707070
E07870
E03C70
E01EE0
E00FE0
E007C0
F003C0
7803F0
3C1EF8
1FFC7F
07E038
ENDCHAR
STARTCHAR 0027
ENCODING 39
SWIDTH 250 0
DWIDTH 10 0
BBX 4 13 3 16
BITMAP
70
F0
F0
F0
F0
70
60
60
60
60
60
60
60
ENDCHAR
STARTCHAR 0028
ENCODING 40
SWIDTH 325 0
DWIDTH 13 0
BBX 9 37 3 -6
BITMAP
0080
0380
0700
0E00
0C00
1C00
1800
3800
3800
7000
7000
7000
7000
E000
E000
E000
E000
E000
E000
E000
E000
E000
E000
E000
E000
7000
7000
7000
7000
3800
3800
1C00
1C00
0E00
0700
0380
0080
ENDCHAR
STARTCHAR 0029
ENCODING 41
SWIDTH 325 0
DWIDTH 13 0
BBX 9 37 1 -6
BITMAP
8000
E000
7000
3800
1C00
1C00
0E00
0E00
0E00
0700
0700
0700
0780
0380
0380
0380
0380
0380
0380
0380
0380
0380
0380
0380
0700
0700
0700
0700
0E00
0E00
0C00
1C00
1800
3800
7000
E000
8000
ENDCHAR
STARTCHAR 002A
ENCODING 42
SWIDTH 450 0
DWIDTH 18 0
BBX 16 16 1 14
BITMAP
0180
0180
0180
6184
718E
799F
1FF8
07C0
03C0
1FF8
799E
F18E
2186
0180
0180
0180
ENDCHAR
STARTCHAR 002B
ENCODING 43
SWIDTH 400 0
DWIDTH 16 0
BBX 15 14 1 4
BITMAP
0380
0380
0380
0380
0380
0380
FFFE
FFFE
0380
0380
0380
0380
0380
0380
ENDCHAR
STARTCHAR 002C
ENCODING 44
SWIDTH 225 0
DWIDTH 9 0
BBX 6 10 2 -6
BITMAP
3C
FC
3C
1C
1C
18
18
30
20
40
ENDCHAR
STARTCHAR 002D
ENCODING 45
SWIDTH 325 0
DWIDTH 13 0
BBX 11 2 1 9
BITMAP
7FE0
FFE0
ENDCHAR
STARTCHAR 002E
ENCODING 46
SWIDTH 225 0
DWIDTH 9 0
BBX 5 5 2 -1
BITMAP
70
F8
F8
F8
70
ENDCHAR
STARTCHAR 002F
ENCODING 47
SWIDTH 475 0
DWIDTH 19 0
BBX 17 38 1 -7
BITMAP
000180
000700
000700
000700
000E00
000E00
000E00
001C00
001C00
003800
003800
003800
007000
007000
007000
00E000
00E000
01C000
01C000
01C000
038000
038000
038000
070000
070000
0E0000
0E0000
0E0000
1C0000
1C0000
1C0000
380000
380000
700000
700000
700000
E00000
C00000
ENDCHAR
STARTCHAR 0030
ENCODING 48
SWIDTH 475 0
DWIDTH 19 0
BBX 17 24 1 0
BITMAP
03E000
0FF800
1C3C00
381E00
300E00
700700
600700
600780
E00380
E00380
E00380
E00380
E00380
E00380
E00380
E00380
F00300
700700
700700
780600
3C0E00
1E1C00
0FF800
07E000
ENDCHAR
STARTCHAR 0031
ENCODING 49
SWIDTH 475 0
DWIDTH 19 0
BBX 14 24 3 0
BITMAP
0180
0780
3F80
FF80
0380
0380
0380
0380
0380
0380
0380
0380
0380
0380
0380
0380
0380
0380
0380
0380
0380
0380
0FE0
7FFC
ENDCHAR
STARTCHAR 0032
ENCODING 50
SWIDTH 475 0
DWIDTH 19 0
BBX 14 24 2 0
BITMAP
03E0
0FF8
1878
303C
701C
601C
E01C
001C
0018
0038
0030
0070
00E0
01C0
0180
0380
0700
0E00
1C00
1804
3004
700C
FFFC
FFFC
ENDCHAR
STARTCHAR 0033
ENCODING 51
SWIDTH 475 0
DWIDTH 19 0
BBX 15 24 1 0
BITMAP
03E0
0FF8
1C78
383C
701C
701C
001C
0018
0030
0060
03E0
03F8
003C
001C
000E
000E
000E
000E
000E
001C
401C
F078
3FF0
0FC0
ENDCHAR
STARTCHAR 0034
ENCODING 52
SWIDTH 475 0
DWIDTH 19 0
BBX 16 24 1 0
BITMAP
0018
0078
0078
00F8
01F8
01B8
0338
0738
0638
0C38
1C38
1838
3038
7038
6038
FFFF
FFFE
0038
0038
0038
0038
0038
007C
03FF
ENDCHAR
STARTCHAR 0035
ENCODING 53
SWIDTH 475 0
DWIDTH 19 0
BBX 15 24 1 0
BITMAP
0004
1FFC
1FF8
1800
1800
1800
3000
3000
3000
3FE0
3FF8
307C
401C
001E
000E
000E
000E
000E
000E
001C
401C
F078
3FF0
0FC0
ENDCHAR
STARTCHAR 0036
ENCODING 54
SWIDTH 475 0
DWIDTH 19 0
BBX 15 24 2 0
BITMAP
0038
00F0
03C0
0700
0E00
1C00
3800
7000
7000
63E0
EFF8
F83C
F01C
E01E
E00E
E00E
E00E
E00E
700E
700C
381C
3C38
1FF0
07C0
ENDCHAR
STARTCHAR 0037
ENCODING 55
SWIDTH 475 0
DWIDTH 19 0
BBX 15 23 2 0
BITMAP
7FFE
FFFE
C00C
C00C
801C
0018
0038
0030
0070
0060
0060
00E0
00C0
01C0
0180
0380
0300
0700
0700
0E00
0E00
1C00
3800
ENDCHAR
STARTCHAR 0038
ENCODING 56
SWIDTH 475 0
DWIDTH 19 0
BBX 15 24 2 0
BITMAP
0FC0
3FF0
7878
703C
F01C
E01C
E01C
F018
7830
3E60
1FC0
07F0
1878
303C
701E
600E
E00E
E00E
E00E
E00C
701C
7C38
3FF0
0FC0
ENDCHAR
STARTCHAR 0039
ENCODING 57
SWIDTH 475 0
DWIDTH 19 0
BBX 15 25 2 -1
BITMAP
07C0
0FF0
3878
303C
701C
601C
E00E
E00E
E00E
E00E
F00E
701E
783E
3FEE
0F8C
001C
001C
0018
0038
0070
00E0
01C0
0780
1E00
3000
ENDCHAR
STARTCHAR 003A
ENCODING 58
SWIDTH 225 0
DWIDTH 9 0
BBX 5 19 2 -1
BITMAP
78
F8
F8
F8
60
00
00
00
00
00
00
00
00
00
70
F8
F8
F8
70
ENDCHAR
STARTCHAR 003B
ENCODING 59
SWIDTH 225 0
DWIDTH 9 0
BBX 6 24 2 -6
BITMAP
78
F8
F8
F8
60
00
00
00
00
00
00
00
00
00
3C
FC
3C
1C
1C
18
18
30
20
40
ENDCHAR
STARTCHAR 003C
ENCODING 60
SWIDTH 450 0
DWIDTH 18 0
BBX 15 13 1 5
BITMAP
0002
001E
00FE
03F0
1FC0
7E00
F000
FC00
3F80
07E0
01FC
003E
000C
ENDCHAR
STARTCHAR 003D
ENCODING 61
SWIDTH 450 0
DWIDTH 18 0
BBX 15 8 1 7
BITMAP
7FFE
FFFE
0000
0000
0000
0000
7FFE
FFFE
ENDCHAR
STARTCHAR 003E
ENCODING 62
SWIDTH 450 0
DWIDTH 18 0
BBX 15 13 1 5
BITMAP
6000
FC00
3F00
0FE0
01FC
007E
001E
007E
03F0
1FC0
7E00
F800
C000
ENDCHAR
STARTCHAR 003F
ENCODING 63
SWIDTH 425 0
DWIDTH 17 0
BBX 14 30 2 -1
BITMAP
07E0
1FF0
3878
7038
E01C
E01C
E01C
C01C
001C
0038
0038
0070
00F0
00E0
01C0
0380
0380
0700
0700
0700
0700
0700
0000
0000
0000
0700
0F80
0F80
0F80
0700
ENDCHAR
STARTCHAR 0040
ENCODING 64
SWIDTH 800 0
DWIDTH 32 0
BBX 30 33 1 -7
BITMAP
0007F800
003FFE00
00F01F80
01C007C0
030001E0
060000F0
0C000070
18000078
3803C638
300FFC38
701C3C3C
70381C1C
60701C1C
E0601C1C
E0E01C1C
E0E01C1C
E0E01C1C
E0E01C1C
E0E01C1C
E0E01C18
F0F01C38
70701C30
70783C60
783C5EE0
381F8F80
3C0F0F00
1E000000
1F000000
0F800020
07C000C0
01F80F80
00FFFE00
001FF000
ENDCHAR
STARTCHAR 0041
ENCODING 65
SWIDTH 600 0
DWIDTH 24 0
BBX 23 25 0 0
BITMAP
000800
003800
003C00
003C00
006C00
006E00
006E00
00C600
00C700
00C700
018300
018380
018380
030180
03FFC0
03FFC0
0600E0
0600E0
0600E0
0C0070
0C0070
0C0070
180038
1C0078
FF01FE
ENDCHAR
STARTCHAR 0042
ENCODING 66
SWIDTH 550 0
DWIDTH 22 0
BBX 19 25 1 0
BITMAP
1FF000
FFFE00
1C1F00
1C0780
1C0380
1C0380
1C0380
1C0380
1C0700
1C0600
1C1C00
1FFE00
1FFF00
1C0F80
1C03C0
1C01E0
1C00E0
1C00E0
1C00E0
1C00E0
1C01E0
1C01C0
1C0780
3FFF00
FFFC00
ENDCHAR
STARTCHAR 0043
ENCODING 67
SWIDTH 525 0
DWIDTH 21 0
BBX 19 25 1 0
BITMAP
00FE00
03FFC0
0707C0
0C0180
180000
380000
700000
700000
700000
E00000
E00000
E00000
E00000
E00000
E00000
E00000
E00000
700000
700000
780000
3C0040
1E01E0
0F8780
07FE00
01F800
ENDCHAR
STARTCHAR 0044
ENCODING 68
SWIDTH 600 0
DWIDTH 24 0
BBX 21 25 1 0
BITMAP
1FF800
FFFF00
1C0F80
1C03C0
1C01E0
1C00F0
1C0070
1C0070
1C0078
1C0038
1C0038
1C0038
1C0038
1C0038
1C0038
1C0038
1C0070
1C0070
1C0070
1C00E0
1C01E0
1C03C0
1C0F80
3FFE00
FFF800
ENDCHAR
STARTCHAR 0045
ENCODING 69
SWIDTH 500 0
DWIDTH 20 0
BBX 18 25 1 0
BITMAP
FFFF00
3FFF00
1C0300
1C0100
1C0100
1C0000
1C0000
1C0000
1C0000
1C0000
1FFC00
1FFC00
1C0800
1C0000
1C0000
1C0000
1C0000
1C0000
1C0000
1C0000
1C0040
1C00C0
1C0180
3FFF80
FFFF80
ENDCHAR
STARTCHAR 0046
ENCODING 70
SWIDTH 475 0
DWIDTH 19 0
BBX 17 25 1 0
BITMAP
FFFF80
3FFF80
1C0300
1C0100
1C0100
1C0000
1C0000
1C0000
1C0000
1C0000
1FFC00
1FF800
1C1800
1C0000
1C0000
1C0000
1C0000
1C0000
1C0000
1C0000
1C0000
1C0000
1C0000
3E0000
FF8000
ENDCHAR
STARTCHAR 0047
ENCODING 71
SWIDTH 575 0
DWIDTH 23 0
BBX 21 25 1 0
BITMAP
007F00
01FFC0
0703E0
0E00C0
1C0000
380000
300000
700000
700000
E00000
E00000
E00000
E00000
E00FF8
E001E0
E000E0
E000E0
7000E0
7000E0
7800E0
3C00E0
1E00E0
0F81C0
07FF80
01FC00
ENDCHAR
STARTCHAR 0048
ENCODING 72
SWIDTH 650 0
DWIDTH 26 0
BBX 24 25 1 0
BITMAP
FF81FF
3E007C
1C0038
1C0038
1C0038
1C0038
1C0038
1C0038
1C0038
1C0038
1C0038
1FFFF8
1FFFF8
1C0038
1C0038
1C0038
1C0038
1C0038
1C0038
1C0038
1C0038
1C0038
1C0038
3E007C
FF81FF
ENDCHAR
STARTCHAR 0049
ENCODING 73
SWIDTH 300 0
DWIDTH 12 0
BBX 9 25 1 0
BITMAP
FF80
3E00
1C00
1C00
1C00
1C00
1C00
1C00
1C00
1C00
1C00
1C00
1C00
1C00
1C00
1C00
1C00
1C00
1C00
1C00
1C00
1C00
1C00
3E00
FF80
ENDCHAR
STARTCHAR 004A
ENCODING 74
SWIDTH 300 0
DWIDTH 12 0
BBX 15 32 -4 -7
BITMAP
07FE
00F8
0070
0070
0070
0070
0070
0070
0070
0070
0070
0070
0070
0070
0070
0070
0070
0070
0070
0070
0070
0070
0070
0070
0070
0060
0060
00E0
00C0
3180
7F00
FC00
ENDCHAR
STARTCHAR 004B
ENCODING 75
SWIDTH 575 0
DWIDTH 23 0
BBX 22 25 1 0
BITMAP
FF87F8
3E01C0
1C0380
1C0700
1C0E00
1C0C00
1C1800
1C3800
1C7000
1CE000
1DC000
1F8000
1FC000
1DE000
1CE000
1C7000
1C3800
1C3C00
1C1E00
1C0F00
1C0780
1C03C0
1C03E0
3E01FC
FF80F0
ENDCHAR
STARTCHAR 004C
ENCODING 76
SWIDTH 475 0
DWIDTH 19 0
BBX 18 25 1 0
BITMAP
FF8000
3E0000
1C0000
1C0000
1C0000
1C0000
1C0000
1C0000
1C0000
1C0000
1C0000
1C0000
1C0000
1C0000
1C0000
1C0000
1C0000
1C0000
1C0000
1C0000
1C00C0
1C0080
1E0180
3FFF80
FFFF80
ENDCHAR
STARTCHAR 004D
ENCODING 77
SWIDTH 800 0
DWIDTH 32 0
BBX 30 25 1 0
BITMAP
FE0001F8
1E0003E0
1F0003E0
1F0003E0
1F0007E0
1B8006E0
1B800EE0
19C00CE0
19C00CE0
18E01CE0
18E018E0
18E038E0
187030E0
187070E0
183860E0
183860E0
181CE0E0
181CC0E0
181FC0E0
180F80E0
180F80E0
180780E0
180700E0
3C0701E0
FF0207FC
ENDCHAR
STARTCHAR 004E
ENCODING 78
SWIDTH 650 0
DWIDTH 26 0
BBX 24 25 1 0
BITMAP
F801FF
3C007C
1E0038
1E0038
1F0038
1F8038
1D8038
1DC038
1CE038
1C6038
1C7038
1C3838
1C1C38
1C1C38
1C0E38
1C0738
1C0738
1C03B8
1C03F8
1C01F8
1C00F8
1C00F8
1C0078
3E0038
FF8018
ENDCHAR
STARTCHAR 004F
ENCODING 79
SWIDTH 600 0
DWIDTH 24 0
BBX 21 25 1 0
BITMAP
00FC00
03FF00
070780
0C03C0
1801E0
3800E0
700070
700070
600078
E00038
E00038
E00038
E00038
E00038
E00038
E00038
F00030
700070
700060
7800E0
3C00C0
1E0180
0F0700
07FE00
01F800
ENDCHAR
STARTCHAR 0050
ENCODING 80
SWIDTH 525 0
DWIDTH 21 0
BBX 18 25 1 0
BITMAP
1FF800
FFFE00
1C1F00
1C0780
1C03C0
1C01C0
1C01C0
1C01C0
1C01C0
1C01C0
1C0380
1C0780
1C0F00
1DFE00
1CF800
1C0000
1C0000
1C0000
1C0000
1C0000
1C0000
1C0000
1C0000
3E0000
FF8000
ENDCHAR
STARTCHAR 0051
ENCODING 81
SWIDTH 600 0
DWIDTH 24 0
BBX 24 31 1 -6
BITMAP
00FC00
03FF00
070780
0C03C0
1801E0
3800E0
700070
700070
600078
E00038
E00038
E00038
E00038
E00038
E00038
E00038
F00030
700070
700070
3800E0
3C00C0
1E01C0
0F0780
07FE00
01FC00
000E00
000700
000382
0001E3
0000FE
00003C
ENDCHAR
STARTCHAR 0052
ENCODING 82
SWIDTH 550 0
DWIDTH 22 0
BBX 21 25 1 0
BITMAP
1FF000
FFFE00
1C1F00
1C0700
1C0780
1C0380
1C0380
1C0380
1C0380
1C0700
1C0600
1C1C00
1FF000
1C7000
1C3800
1C3800
1C1C00
1C1E00
1C0E00
1C0700
1C0780
1C0380
1C03C0
3E01F8
FF81F0
ENDCHAR
STARTCHAR 0053
ENCODING 83
SWIDTH 475 0
DWIDTH 19 0
BBX 15 25 2 0
BITMAP
07E0
1FF8
787C
7018
E000
E000
E000
F000
F800
7E00
3F80
1FE0
07F8
01FC
007C
001E
001E
000E
800E
800E
C01C
E01C
F078
FFF0
1F80
ENDCHAR
STARTCHAR 0054
ENCODING 84
SWIDTH 550 0
DWIDTH 22 0
BBX 21 25 0 0
BITMAP
7FFFF8
FFFFF8
C07018
C07018
807010
007000
007000
007000
007000
007000
007000
007000
007000
007000
007000
007000
007000
007000
007000
007000
007000
007000
007000
00F800
03FE00
ENDCHAR
STARTCHAR 0055
ENCODING 85
SWIDTH 650 0
DWIDTH 26 0
BBX 24 25 1 0
BITMAP
FF81FF
3E007C
1C0038
1C0038
1C0038
1C0038
1C0038
1C0038
1C0038
1C0038
1C0038
1C0038
1C0038
1C0038
1C0038
1C0038
1C0038
1C0038
1C0070
0E0070
0E0070
0F00E0
07C1C0
03FF80
007E00
ENDCHAR
STARTCHAR 0056
ENCODING 86
SWIDTH 650 0
DWIDTH 26 0
BBX 25 25 0 0
BITMAP
FF807F80
1C000E00
1E000C00
0E001C00
0E001800
0F001800
07003800
07003000
03803000
03807000
03C06000
01C0E000
01C0E000
01E0C000
00E1C000
00E18000
00718000
00738000
007B0000
003B0000
003F0000
003E0000
001E0000
001E0000
00080000
ENDCHAR
STARTCHAR 0057
ENCODING 87
SWIDTH 850 0
DWIDTH 34 0
BBX 33 25 0 0
BITMAP
FF80C07F80
1C00C00E00
1C00C00C00
1C01E00C00
0E01E01C00
0E01E01C00
0E03F01800
0E03701800
0703301800
0707383800
0706383800
0706183000
070E1C3000
038C1C3000
038C0E7000
039C0E6000
03980E6000
01D8076000
01F8076000
01F007E000
01F003C000
01F003C000
00E003C000
00E001C000
00C0018000
ENDCHAR
STARTCHAR 0058
ENCODING 88
SWIDTH 625 0
DWIDTH 25 0
BBX 23 25 1 0
BITMAP
FF87FC
3C00F0
1C00E0
1E01C0
0F0180
070380
078700
03C600
01EE00
00FC00
00FC00
007800
007800
007C00
00FE00
01CE00
01CF00
038780
030380
0703C0
0E01E0
0C00E0
1C00F0
3C00F8
FF03FE
ENDCHAR
STARTCHAR 0059
ENCODING 89
SWIDTH 600 0
DWIDTH 24 0
BBX 23 25 0 0
BITMAP
F801FE
3C0078
1E0060
0E00E0
0700C0
0781C0
038180
03C380
01C300
00E700
00EE00
007E00
007C00
003800
003800
003800
003800
003800
003800
003800
003800
003800
003800
007C00
01FF00
ENDCHAR
STARTCHAR 005A
ENCODING 90
SWIDTH 525 0
DWIDTH 21 0
BBX 18 25 1 0
BITMAP
3FFFC0
3FFFC0
300380
200780
600F00
600E00
001E00
001C00
003800
007800
007000
00F000
01E000
01C000
03C000
038000
070000
0F0000
0E0000
1E0040
3C0040
3800C0
7800C0
7FFFC0
FFFFC0
ENDCHAR
STARTCHAR 005B
ENCODING 91
SWIDTH 300 0
DWIDTH 12 0
BBX 9 37 3 -6
BITMAP
FF80
FF80
E000
E000
E000
E000
E000
E000
E000
E000
E000
E000
E000
E000
E000
E000
E000
E000
E000
E000
E000
E000
E000
E000
E000
E000
E000
E000
E000
E000
E000
E000
E000
E000
E000
FF80
FF80
ENDCHAR
STARTCHAR 005C
ENCODING 92
SWIDTH 475 0
DWIDTH 19 0
BBX 17 38 1 -7
BITMAP
C00000
E00000
700000
700000
300000
380000
380000
180000
1C0000
1C0000
0E0000
0E0000
060000
070000
070000
030000
038000
038000
01C000
01C000
00C000
00E000
00E000
006000
007000
007000
003800
003800
001800
001C00
001C00
000C00
000E00
000E00
000700
000700
000300
000180
ENDCHAR
STARTCHAR 005D
ENCODING 93
SWIDTH 325 0
DWIDTH 13 0
BBX 9 37 1 -6
BITMAP
FF80
FF80
0380
0380
0380
0380
0380
0380
0380
0380
0380
0380
0380
0380
0380
0380
0380
0380
0380
0380
0380
0380
0380
0380
0380
0380
0380
0380
0380
0380
0380
0380
0380
0380
0380
FF80
FF80
ENDCHAR
STARTCHAR 005E
ENCODING 94
SWIDTH 500 0
DWIDTH 20 0
BBX 16 19 2 11
BITMAP
0080
0380
03C0
03C0
07E0
06E0
0EE0
0C70
0C70
1C78
1838
1838
301C
301C
701C
600E
600E
E007
8006
ENDCHAR
STARTCHAR 005F
ENCODING 95
SWIDTH 475 0
DWIDTH 19 0
BBX 17 2 1 -5
BITMAP
7FFF80
FFFF00
ENDCHAR
STARTCHAR 0060
ENCODING 96
SWIDTH 325 0
DWIDTH 13 0
BBX 8 9 1 20
BITMAP
E0
F0
70
38
38
1C
0E
06
03
ENDCHAR
STARTCHAR 0061
ENCODING 97
SWIDTH 450 0
DWIDTH 18 0
BBX 16 18 2 0
BITMAP
03E0
1FF0
3878
7038
F038
C038
0038
0078
07F8
1C38
7038
6038
E038
E038
E078
F1B9
7F3F
3C18
ENDCHAR
STARTCHAR 0062
ENCODING 98
SWIDTH 500 0
DWIDTH 20 0
BBX 18 30 0 0
BITMAP
0C0000
7C0000
BC0000
1C0000
1C0000
1C0000
1C0000
1C0000
1C0000
1C0000
1C0000
1C0000
1C3C00
1CFF00
1D8F00
1F0780
1E0380
1C03C0
1C01C0
1C01C0
1C01C0
1C01C0
1C01C0
1C0180
1C0180
1C0380
1E0300
1F8600
07FC00
01F000
ENDCHAR
STARTCHAR 0063
ENCODING 99
SWIDTH 425 0
DWIDTH 17 0
BBX 15 18 2 0
BITMAP
01F8
07FE
1C1C
380C
7004
7000
E000
E000
E000
E000
E000
E000
F000
7004
7806
3E1C
1FF8
07E0
ENDCHAR
STARTCHAR 0064
ENCODING 100
SWIDTH 525 0
DWIDTH 21 0
BBX 19 30 2 0
BITMAP
000300
003F00
000F00
000700
000700
000700
000700
000700
000700
000700
000700
000700
03F700
0FFF00
1C1F00
380F00
300700
700700
600700
E00700
E00700
E00700
E00700
E00700
F00700
700F00
781F00
3C37E0
1FE7C0
078300
ENDCHAR
STARTCHAR 0065
ENCODING 101
SWIDTH 450 0
DWIDTH 18 0
BBX 14 18 2 0
BITMAP
03C0
0FF0
1C78
3038
701C
601C
E01C
FFFC
FFF8
E000
E000
E000
F000
7004
780C
3C38
1FF0
07C0
ENDCHAR
STARTCHAR 0066
ENCODING 102
SWIDTH 300 0
DWIDTH 12 0
BBX 15 30 1 0
BITMAP
0078
01FE
031C
0608
0E00
0C00
0C00
1C00
1C00
1C00
1C00
1C00
7FF0
FFE0
1C40
1C00
1C00
1C00
1C00
1C00
1C00
1C00
1C00
1C00
1C00
1C00
1C00
1C00
3E00
FFC0
ENDCHAR
STARTCHAR 0067
ENCODING 103
SWIDTH 475 0
DWIDTH 19 0
BBX 18 27 1 -9
BITMAP
03E0C0
0FFFC0
1C3F00
381C00
700E00
700E00
700E00
700E00
781C00
3C3800
1FF000
07C000
060000
0C0000
1C0000
1FE000
0FFE00
0C3F80
1803C0
7001C0
E001C0
E001C0
E00380
F00380
7C0F00
3FFC00
07F000
ENDCHAR
STARTCHAR 0068
ENCODING 104
SWIDTH 550 0
DWIDTH 22 0
BBX 21 30 1 0
BITMAP
0C0000
FC0000
7C0000
1C0000
1C0000
1C0000
1C0000
1C0000
1C0000
1C0000
1C0000
1C0000
1C1F00
1C3F80
1CE3C0
1D81C0
1F01C0
1E01C0
1E01C0
1C01C0
1C01C0
1C01C0
1C01C0
1C01C0
1C01C0
1C01C0
1C01C0
1C01C0
3E03C0
FF8FF8
ENDCHAR
STARTCHAR 0069
ENCODING 105
SWIDTH 275 0
DWIDTH 11 0
BBX 9 27 1 0
BITMAP
1C00
3C00
3C00
3C00
1800
0000
0000
0000
0000
0C00
FC00
3C00
1C00
1C00
1C00
1C00
1C00
1C00
1C00
1C00
1C00
1C00
1C00
1C00
1C00
3C00
FF80
ENDCHAR
STARTCHAR 006A
ENCODING 106
SWIDTH 250 0
DWIDTH 10 0
BBX 11 36 -4 -9
BITMAP
00E0
01E0
01E0
01E0
00C0
0000
0000
0000
0000
0060
07E0
01E0
00E0
00E0
00E0
00E0
00E0
00E0
00E0
00E0
00E0
00E0
00E0
00E0
00E0
00E0
00E0
00E0
00E0
00C0
00C0
01C0
0180
2300
FE00
F800
ENDCHAR
STARTCHAR 006B
ENCODING 107
SWIDTH 500 0
DWIDTH 20 0
BBX 19 30 1 0
BITMAP
0C0000
FC0000
3C0000
1C0000
1C0000
1C0000
1C0000
1C0000
1C0000
1C0000
1C0000
1C0000
1C1FE0
1C0700
1C0E00
1C1C00
1C3000
1CE000
1DC000
1F8000
1DC000
1DE000
1CF000
1C7800
1C3800
1C1C00
1C1E00
1C0F00
3C0780
FF03E0
ENDCHAR
STARTCHAR 006C
ENCODING 108
SWIDTH 275 0
DWIDTH 11 0
BBX 9 30 1 0
BITMAP
0C00
FC00
7C00
1C00
1C00
1C00
1C00
1C00
1C00
1C00
1C00
1C00
1C00
1C00
1C00
1C00
1C00
1C00
1C00
1C00
1C00
1C00
1C00
1C00
1C00
1C00
1C00
1C00
3C00
FF80
ENDCHAR
STARTCHAR 006D
ENCODING 109
SWIDTH 800 0
DWIDTH 32 0
BBX 31 18 1 0
BITMAP
0C1E03C0
FC7F0FE0
3CC798F0
1D83B070
1F03E070
1E03C070
1C038070
1C038070
1C038070
1C038070
1C038070
1C038070
1C038070
1C038070
1C038070
1C038070
3C07C0F0
FF9FF3FE
ENDCHAR
STARTCHAR 006E
ENCODING 110
SWIDTH 550 0
DWIDTH 22 0
BBX 21 18 1 0
BITMAP
0C0F00
FC3F80
3C63C0
1D81C0
1D01C0
1E01C0
1E01C0
1C01C0
1C01C0
1C01C0
1C01C0
1C01C0
1C01C0
1C01C0
1C01C0
1C01C0
3E03C0
FF8FF8
ENDCHAR
STARTCHAR 006F
ENCODING 111
SWIDTH 500 0
DWIDTH 20 0
BBX 16 18 2 0
BITMAP
03E0
0FF8
1C3C
301E
700E
600F
E007
E007
E007
E007
E007
E007
F006
700E
780C
3E38
1FF0
07C0
ENDCHAR
STARTCHAR 0070
ENCODING 112
SWIDTH 525 0
DWIDTH 21 0
BBX 18 27 1 -9
BITMAP
0C1C00
FC7F00
3C8F80
1D0780
1E0380
1E03C0
1C01C0
1C01C0
1C01C0
1C01C0
1C01C0
1C0180
1C0180
1C0380
1E0300
1F0600
1DFC00
1C7800
1C0000
1C0000
1C0000
1C0000
1C0000
1C0000
1C0000
3E0000
FF8000
ENDCHAR
STARTCHAR 0071
ENCODING 113
SWIDTH 525 0
DWIDTH 21 0
BBX 19 27 2 -9
BITMAP
01F180
07FB00
1C1F00
380F00
300700
700700
600700
E00700
E00700
E00700
E00700
E00700
F00700
700F00
781F00
3C3700
1FE700
078700
000700
000700
000700
000700
000700
000700
000700
000700
003FE0
ENDCHAR
STARTCHAR 0072
ENCODING 114
SWIDTH 400 0
DWIDTH 16 0
BBX 14 18 1 0
BITMAP
0C3C
FCFC
3D8C
1D0C
1F04
1E00
1E00
1C00
1C00
1C00
1C00
1C00
1C00
1C00
1C00
1C00
1E00
FF80
ENDCHAR
STARTCHAR 0073
ENCODING 115
SWIDTH 375 0
DWIDTH 15 0
BBX 11 18 2 0
BITMAP
1F00
7F80
73C0
E180
E080
F000
F800
7E00
1F00
0FC0
03E0
01E0
80E0
80E0
C0E0
E1C0
FF80
3E00
ENDCHAR
STARTCHAR 0074
ENCODING 116
SWIDTH 350 0
DWIDTH 14 0
BBX 13 25 0 0
BITMAP
0400
0C00
1C00
1C00
1C00
1C00
1C00
7FF8
FFF0
1C20
1C00
1C00
1C00
1C00
1C00
1C00
1C00
1C00
1C00
1C00
1C00
1C00
1E38
0FF0
0780
ENDCHAR
STARTCHAR 0075
ENCODING 117
SWIDTH 525 0
DWIDTH 21 0
BBX 21 18 0 0
BITMAP
0C00C0
FC0FC0
1C01C0
1C01C0
1C01C0
1C01C0
1C01C0
1C01C0
1C01C0
1C01C0
1C01C0
1C01C0
1C01C0
1C03C0
1C07C0
1E1DC8
0FF1F0
07C0C0
ENDCHAR
STARTCHAR 0076
ENCODING 118
SWIDTH 500 0
DWIDTH 20 0
BBX 19 18 0 0
BITMAP
FF07E0
3C01C0
1C0180
1C0380
0E0300
0E0300
0E0600
070600
070600
038C00
038C00
039C00
01D800
01D800
00F000
00F000
00F000
004000
ENDCHAR
STARTCHAR 0077
ENCODING 119
SWIDTH 700 0
DWIDTH 28 0
BBX 28 18 0 0
BITMAP
FF0307F0
3C0700C0
1C0700C0
1C078180
1C0F8180
0E0F8180
0E0DC380
0E19C300
0619C300
0718E300
0730E600
03307600
03B07600
03E07C00
01E03C00
01E03C00
01C03C00
01801000
ENDCHAR
STARTCHAR 0078
ENCODING 120
SWIDTH 500 0
DWIDTH 20 0
BBX 20 18 0 0
BITMAP
7F8FE0
1E0380
0E0300
070600
078C00
039C00
01D800
00F000
00F000
00F000
01B800
019C00
031E00
060E00
0E0700
0C0380
3C03C0
FF0FF0
ENDCHAR
STARTCHAR 0079
ENCODING 121
SWIDTH 500 0
DWIDTH 20 0
BBX 20 27 -1 -9
BITMAP
7F83F0
1E00E0
0E00C0
0E00C0
070180
070180
070300
038300
038300
01C600
01C600
01C600
00EC00
00EC00
007800
007800
007800
003000
003000
006000
006000
00E000
01C000
438000
7F0000
FE0000
7C0000
ENDCHAR
STARTCHAR 007A
ENCODING 122
SWIDTH 450 0
DWIDTH 18 0
BBX 15 18 1 0
BITMAP
3FFE
3FFE
601C
6038
4038
0070
00E0
01C0
01C0
0380
0700
0700
0E00
1C02
3802
3806
7FFE
FFFE
ENDCHAR
STARTCHAR 007B
ENCODING 123
SWIDTH 350 0
DWIDTH 14 0
BBX 11 37 2 -6
BITMAP
0040
01E0
0380
0700
0600
0E00
0E00
0E00
0E00
0E00
0F00
0700
0700
0700
0700
0700
0E00
1C00
7C00
FE00
0F00
0700
0700
0700
0700
0700
0F00
0E00
0E00
0E00
0E00
0E00
0E00
0700
0300
01C0
0040
ENDCHAR
STARTCHAR 007C
ENCODING 124
SWIDTH 225 0
DWIDTH 9 0
BBX 3 41 3 -8
BITMAP
60
E0
E0
E0
E0
E0
E0
E0
E0
E0
E0
E0
E0
E0
E0
E0
E0
E0
E0
E0
E0
E0
E0
E0
E0
E0
E0
E0
E0
E0
E0
E0
E0
E0
E0
E0
E0
E0
E0
E0
C0
ENDCHAR
STARTCHAR 007D
ENCODING 125
SWIDTH 350 0
DWIDTH 14 0
BBX 11 37 1 -6
BITMAP
4000
7000
3800
1C00
0C00
0E00
0E00
0E00
0E00
0E00
1E00
1C00
1C00
1C00
1C00
1C00
0E00
0FC0
03E0
0700
0E00
0C00
1C00
1C00
1C00
1C00
1E00
0E00
0E00
0E00
0E00
0E00
0C00
1C00
3800
7000
C000
ENDCHAR
STARTCHAR 007E
ENCODING 126
SWIDTH 500 0
DWIDTH 20 0
BBX 18 6 1 9
BITMAP
0F00C0
1FC080
3FE100
63FF00
C0FE00
803800
ENDCHAR
STARTCHAR 00A0
ENCODING 160
SWIDTH 225 0
DWIDTH 9 0
BBX 0 0 0 0
BITMAP
ENDCHAR
STARTCHAR 00A1
ENCODING 161
SWIDTH 275 0
DWIDTH 11 0
BBX 5 29 3 -11
BITMAP
70
F8
F8
F8
70
00
00
60
60
60
60
70
70
70
70
70
70
70
70
70
70
70
70
70
70
F0
F0
F0
C0
ENDCHAR
STARTCHAR 00A2
ENCODING 162
SWIDTH 475 0
DWIDTH 19 0
BBX 15 25 2 -1
BITMAP
0180
0180
0180
01F0
07FC
1FFE
398C
7184
7180
6180
E180
E180
E180
E180
E180
F180
7180
7986
3D8C
3FF8
1FF0
03C0
0180
0180
0180
ENDCHAR
STARTCHAR 00A3
ENCODING 163
SWIDTH 475 0
DWIDTH 19 0
BBX 17 25 1 -1
BITMAP
00FC00
03FF00
070F00
0E0700
0C0600
0C0200
1C0200
1C0000
1C0000
1C0000
1C0000
1C0000
7FE000
FFE000
1C0000
1C0000
1C0000
1C0000
1C0000
180080
180100
180300
3FDF00
7FFF00
C0FF00
ENDCHAR
STARTCHAR 00A4
ENCODING 164
SWIDTH 475 0
DWIDTH 19 0
BBX 13 13 3 5
BITMAP
C018
EFB8
7FF0
38E0
6070
6030
6030
6030
78F0
3FE0
6FB0
C018
8008
ENDCHAR
STARTCHAR 00A5
ENCODING 165
SWIDTH 475 0
DWIDTH 19 0
BBX 21 24 -1 0
BITMAP
7807F8
FC01F8
3E01E0
1F0380
0F0380
078700
078700
03CE00
01CE00
01FC00
00F800
00F800
007000
007000
0FFFC0
1FFF80
007000
007000
007000
007000
007000
007000
00F800
03FE00
ENDCHAR
STARTCHAR 00A6
ENCODING 166
SWIDTH 225 0
DWIDTH 9 0
BBX 3 41 3 -8
BITMAP
60
E0
E0
E0
E0
E0
E0
E0
E0
E0
E0
E0
E0
E0
E0
E0
E0
E0
80
00
00
00
40
E0
E0
E0
E0
E0
E0
E0
E0
E0
E0
E0
E0
E0
E0
E0
E0
E0
C0
ENDCHAR
STARTCHAR 00A7
ENCODING 167
SWIDTH 475 0
DWIDTH 19 0
BBX 15 28 2 0
BITMAP
07E0
0FF8
1C78
3818
3808
3800
3C00
1F00
1F80
3FE0
63F8
E0FC
E07C
E01E
F01E
780E
3E0E
1F0E
0FDC
03F8
00F8
003C
201C
201C
301C
3C38
3FF0
07C0
ENDCHAR
STARTCHAR 00A8
ENCODING 168
SWIDTH 400 0
DWIDTH 16 0
BBX 12 5 2 22
BITMAP
6030
E070
E070
E070
C060
ENDCHAR
STARTCHAR 00A9
ENCODING 169
SWIDTH 725 0
DWIDTH 29 0
BBX 25 25 2 0
BITMAP
007F0000
03FFE000
0780F000
0E003800
1C1F1C00
387FCE00
70E1C700
61C08300
63800300
C3000180
C7000180
C7000180
C7000180
C7000180
C7000180
C7800180
63800300
63C04300
71F18700
38FF0E00
1C3C1C00
0E003800
0780F000
03FFE000
007F0000
ENDCHAR
STARTCHAR 00AA
ENCODING 170
SWIDTH 250 0
DWIDTH 10 0
BBX 8 14 1 11
BITMAP
1C
3C
46
C6
06
1E
66
C6
C6
CE
77
00
FF
FF
ENDCHAR
STARTCHAR 00AB
ENCODING 171
SWIDTH 475 0
DWIDTH 19 0
BBX 15 18 2 0
BITMAP
0206
0604
0C0C
0C18
1838
3870
70E0
F1E0
E1C0
E1C0
F1E0
70F0
3870
1838
0C18
0C0C
0604
0206
ENDCHAR
STARTCHAR 00AC
ENCODING 172
SWIDTH 475 0
DWIDTH 19 0
BBX 17 8 1 4
BITMAP
FFFF80
FFFF80
000380
000380
000380
000380
000380
000300
ENDCHAR
STARTCHAR 00AD
ENCODING 173
SWIDTH 325 0
DWIDTH 13 0
BBX 11 2 1 9
BITMAP
7FE0
FFE0
ENDCHAR
STARTCHAR 00AE
ENCODING 174
SWIDTH 350 0
DWIDTH 14 0
BBX 13 14 1 14
BITMAP
0F80
3FE0
7060
7F30
C898
8888
8F08
8A08
8908
C998
5CF0
7070
3FE0
0F80
ENDCHAR
STARTCHAR 00AF
ENCODING 175
SWIDTH 500 0
DWIDTH 20 0
BBX 13 2 3 23
BITMAP
7FF8
FFF8
ENDCHAR
STARTCHAR 00B0
ENCODING 176
SWIDTH 350 0
DWIDTH 14 0
BBX 8 9 3 15
BITMAP
1C
3E
67
E7
E7
E7
E6
7C
38
ENDCHAR
STARTCHAR 00B1
ENCODING 177
SWIDTH 400 0
DWIDTH 16 0
BBX 15 18 1 3
BITMAP
0380
0380
0380
0380
0380
0380
FFFE
FFFE
0380
0380
0380
0380
0380
0300
0000
0000
7FFC
FFFC
ENDCHAR
STARTCHAR 00B2
ENCODING 178
SWIDTH 350 0
DWIDTH 14 0
BBX 11 15 1 12
BITMAP
0F80
1FC0
31E0
60E0
40E0
00C0
01C0
0180
0300
0600
0C00
1820
3020
7FE0
FFE0
ENDCHAR
STARTCHAR 00B3
ENCODING 179
SWIDTH 325 0
DWIDTH 13 0
BBX 11 16 1 11
BITMAP
1F00
3F80
63C0
E1C0
01C0
0180
0700
1F80
01C0
00E0
00E0
00E0
00E0
C1C0
7F80
1E00
ENDCHAR
STARTCHAR 00B4
ENCODING 180
SWIDTH 325 0
DWIDTH 13 0
BBX 8 9 4 20
BITMAP
07
0F
1E
1C
38
30
70
60
C0
ENDCHAR
STARTCHAR 00B5
ENCODING 181
SWIDTH 525 0
DWIDTH 21 0
BBX 20 27 1 -9
BITMAP
0C0180
FC0780
1C0380
1C0380
1C0380
1C0380
1C0380
1C0380
1C0380
1C0380
1C0380
1C0380
1C0380
1E0780
1F1F80
1FFB90
1BF3E0
19E180
180000
180000
180000
1C0000
1C0000
1C0000
1E0000
1E0000
180000
ENDCHAR
STARTCHAR 00B6
ENCODING 182
SWIDTH 550 0
DWIDTH 22 0
BBX 20 30 1 -5
BITMAP
03FFF0
1C3FC0
303B80
703B80
603B80
E03B80
E03B80
E03B80
E03B80
F03B80
703B80
783B80
3E3B80
1FFB80
07FB80
003B80
003B80
003B80
003B80
003B80
003B80
003B80
003B80
003B80
003B80
003B80
003B80
003B80
007FC0
01FFF0
ENDCHAR
STARTCHAR 00B7
ENCODING 183
SWIDTH 150 0
DWIDTH 6 0
BBX 3 5 1 11
BITMAP
60
E0
E0
E0
C0
ENDCHAR
STARTCHAR 00B8
ENCODING 184
SWIDTH 225 0
DWIDTH 9 0
BBX 7 9 1 -9
BITMAP
18
10
38
3C
3E
0E
0C
38
E0
ENDCHAR
STARTCHAR 00B9
ENCODING 185
SWIDTH 325 0
DWIDTH 13 0
BBX 10 15 2 12
BITMAP
0600
3E00
FE00
0E00
0E00
0E00
0E00
0E00
0E00
0E00
0E00
0E00
0E00
0E00
FFC0
ENDCHAR
STARTCHAR 00BA
ENCODING 186
SWIDTH 275 0
DWIDTH 11 0
BBX 9 14 1 11
BITMAP
1E00
3F00
6700
4380
C180
C180
C180
C180
E100
7300
7E00
3C00
FF80
FF80
ENDCHAR
STARTCHAR 00BB
ENCODING 187
SWIDTH 475 0
DWIDTH 19 0
BBX 15 18 3 0
BITMAP
8100
C180
60C0
7060
3070
3830
1C38
1E1C
0F1E
0F1E
1E1C
1C38
3838
3070
70E0
60C0
C180
8100
ENDCHAR
STARTCHAR 00BC
ENCODING 188
SWIDTH 575 0
DWIDTH 23 0
BBX 19 24 2 0
BITMAP
0C00C0
FC01E0
1C0180
1C0380
1C0300
1C0600
1C0E00
1C0C00
1C1800
1C3800
1C3000
FFE000
00E000
00C0C0
01C1C0
0182C0
0302C0
0704C0
0608C0
0C10C0
1C1FE0
183FE0
3000C0
7003E0
ENDCHAR
STARTCHAR 00BD
ENCODING 189
SWIDTH 600 0
DWIDTH 24 0
BBX 20 24 2 0
BITMAP
0C0060
FC00C0
1C00C0
1C0180
1C0300
1C0300
1C0600
1C0E00
1C0C00
1C1800
1C3800
FFB000
0061E0
0063F0
00C470
01CC70
018060
0300E0
0700C0
060180
0C0320
1C0610
180FF0
301FF0
ENDCHAR
STARTCHAR 00BE
ENCODING 190
SWIDTH 575 0
DWIDTH 23 0
BBX 20 25 1 0
BITMAP
1E0000
3F0030
678060
C380E0
0300C0
060180
1F8180
03C300
00E700
00E600
61CC00
3FDC00
0F1800
003000
003060
0060E0
00E160
00C360
018260
038460
030C70
061FF0
0E0060
0C0060
1801F0
ENDCHAR
STARTCHAR 00BF
ENCODING 191
SWIDTH 450 0
DWIDTH 18 0
BBX 14 29 2 -11
BITMAP
0380
07C0
07C0
07C0
0380
0000
0000
0380
0380
0380
0380
0380
0700
0700
0E00
1C00
3C00
3800
7000
7000
E000
E00C
E01C
E01C
E01C
F038
7870
3FE0
1F80
ENDCHAR
STARTCHAR 00C0
ENCODING 192
SWIDTH 600 0
DWIDTH 24 0
BBX 23 34 0 0
BITMAP
030000
078000
07E000
01F000
007800
003C00
000E00
000200
000000
000800
003800
003C00
003C00
006C00
006E00
006E00
00C600
00C700
00C700
018300
018380
018380
030180
03FFC0
03FFC0
0600E0
0600E0
0600E0
0C0070
0C0070
0C0070
180038
1C0078
FF01FE
ENDCHAR
STARTCHAR 00C1
ENCODING 193
SWIDTH 600 0
DWIDTH 24 0
BBX 23 34 0 0
BITMAP
000180
0003C0
0007C0
000F00
001E00
003800
006000
00C000
000000
000800
003800
003C00
003C00
006C00
006E00
006E00
00C600
00C700
00C700
018300
018380
018380
030180
03FFC0
03FFC0
0600E0
0600E0
0600E0
0C0070
0C0070
0C0070
180038
1C0078
FF01FE
ENDCHAR
STARTCHAR 00C2
ENCODING 194
SWIDTH 600 0
DWIDTH 24 0
BBX 23 33 0 0
BITMAP
003800
007C00
00FE00
01E700
018380
0301C0
060080
000000
000800
003800
003C00
003C00
006C00
006E00
006E00
00C600
00C700
00C700
018300
018380
018380
030180
03FFC0
03FFC0
0600E0
0600E0
0600E0
0C0070
0C0070
0C0070
180038
1C0078
FF01FE
ENDCHAR
STARTCHAR 00C3
ENCODING 195
SWIDTH 600 0
DWIDTH 24 0
BBX 23 32 0 0
BITMAP
00E040
01F8C0
03FD80
061F00
040600
000000
000000
000800
003800
003C00
003C00
006C00
006E00
006E00
00C600
00C700
00C700
018300
018380
018380
030180
03FFC0
03FFC0
0600E0
0600E0
0600E0
0C0070
0C0070
0C0070
180038
1C0078
FF01FE
ENDCHAR
STARTCHAR 00C4
ENCODING 196
SWIDTH 600 0
DWIDTH 24 0
BBX 23 31 0 0
BITMAP
0381C0
0381C0
0381C0
030180
030180
000000
000800
003800
003C00
003C00
006C00
006E00
006E00
00C600
00C700
00C700
018300
018380
018380
030180
03FFC0
03FFC0
0600E0
0600E0
0600E0
0C0070
0C0070
0C0070
180038
1C0078
FF01FE
ENDCHAR
STARTCHAR 00C5
ENCODING 197
SWIDTH 600 0
DWIDTH 24 0
BBX 23 34 0 0
BITMAP
003E00
007E00
00C700
00C300
00C300
00E600
00FC00
003000
000000
000800
003800
003C00
003C00
006C00
006E00
006E00
00C600
00C700
00C700
018300
018380
018380
030180
03FFC0
03FFC0
0600E0
0600E0
0600E0
0C0070
0C0070
0C0070
180038
1C0078
FF01FE
ENDCHAR
STARTCHAR 00C6
ENCODING 198
SWIDTH 775 0
DWIDTH 31 0
BBX 30 25 0 0
BITMAP
01FFFFF0
003FFFF0
0019C030
0019C010
0039C010
0031C000
0071C000
0061C000
0061C000
00E1C000
00FFFFC0
01FFFFC0
01C1C080
0181C000
0381C000
0301C000
0701C000
0701C000
0601C000
0E01C000
0C01C004
1C01C00C
1C01C018
3C03FFF8
FF0FFFF8
ENDCHAR
STARTCHAR 00C7
ENCODING 199
SWIDTH 525 0
DWIDTH 21 0
BBX 18 34 1 -9
BITMAP
007E00
03FFC0
0707C0
0E0180
1C0000
380000
300000
700000
700000
600000
E00000
E00000
E00000
E00000
E00000
E00000
E00000
F00000
700000
780000
380040
3C00C0
1E0380
0FFE00
07FC00
01F000
004000
006000
00F000
007800
003800
003000
00E000
038000
ENDCHAR
STARTCHAR 00C8
ENCODING 200
SWIDTH 500 0
DWIDTH 20 0
BBX 18 34 1 0
BITMAP
0C0000
3E0000
3F0000
0F8000
03C000
00E000
007000
001000
000000
FFFF00
3FFF00
1C0300
1C0100
1C0100
1C0000
1C0000
1C0000
1C0000
1C0000
1FFC00
1FFC00
1C0800
1C0000
1C0000
1C0000
1C0000
1C0000
1C0000
1C0000
1C0040
1C00C0
1C0180
3FFF80
FFFF80
ENDCHAR
STARTCHAR 00C9
ENCODING 201
SWIDTH 500 0
DWIDTH 20 0
BBX 18 34 1 0
BITMAP
000C00
001E00
003E00
007800
00F000
01C000
030000
060000
000000
FFFF00
3FFF00
1C0300
1C0100
1C0100
1C0000
1C0000
1C0000
1C0000
1C0000
1FFC00
1FFC00
1C0800
1C0000
1C0000
1C0000
1C0000
1C0000
1C0000
1C0000
1C0040
1C00C0
1C0180
3FFF80
FFFF80
ENDCHAR
STARTCHAR 00CA
ENCODING 202
SWIDTH 500 0
DWIDTH 20 0
BBX 18 33 1 0
BITMAP
01C000
03E000
07F000
073800
0C1C00
180E00
100200
000000
FFFF00
3FFF00
1C0300
1C0100
1C0100
1C0000
1C0000
1C0000
1C0000
1C0000
1FFC00
1FFC00
1C0800
1C0000
1C0000
1C0000
1C0000
1C0000
1C0000
1C0000
1C0040
1C00C0
1C0180
3FFF80
FFFF80
ENDCHAR
STARTCHAR 00CB
ENCODING 203
SWIDTH 500 0
DWIDTH 20 0
BBX 18 31 1 0
BITMAP
1C0E00
1C0E00
1C0E00
1C0E00
180C00
000000
FFFF00
3FFF00
1C0300
1C0100
1C0100
1C0000
1C0000
1C0000
1C0000
1C0000
1FFC00
1FFC00
1C0800
1C0000
1C0000
1C0000
1C0000
1C0000
1C0000
1C0000
1C0040
1C00C0
1C0180
3FFF80
FFFF80
ENDCHAR
STARTCHAR 00CC
ENCODING 204
SWIDTH 300 0
DWIDTH 12 0
BBX 11 34 -1 0
BITMAP
6000
F800
FC00
3E00
0F00
0380
01C0
0040
0000
3FE0
0F80
0700
0700
0700
0700
0700
0700
0700
0700
0700
0700
0700
0700
0700
0700
0700
0700
0700
0700
0700
0700
0700
0F80
3FE0
ENDCHAR
STARTCHAR 00CD
ENCODING 205
SWIDTH 300 0
DWIDTH 12 0
BBX 11 34 1 0
BITMAP
00C0
01E0
03E0
0780
0F00
1C00
3000
6000
0000
FF80
3E00
1C00
1C00
1C00
1C00
1C00
1C00
1C00
1C00
1C00
1C00
1C00
1C00
1C00
1C00
1C00
1C00
1C00
1C00
1C00
1C00
1C00
3E00
FF80
ENDCHAR
STARTCHAR 00CE
ENCODING 206
SWIDTH 300 0
DWIDTH 12 0
BBX 12 33 0 0
BITMAP
0E00
1F00
3F80
39C0
60E0
C070
8020
0000
7FC0
1F00
0E00
0E00
0E00
0E00
0E00
0E00
0E00
0E00
0E00
0E00
0E00
0E00
0E00
0E00
0E00
0E00
0E00
0E00
0E00
0E00
0E00
1F00
7FC0
ENDCHAR
STARTCHAR 00CF
ENCODING 207
SWIDTH 300 0
DWIDTH 12 0
BBX 12 31 0 0
BITMAP
E070
E070
E070
E070
C060
0000
7FC0
1F00
0E00
0E00
0E00
0E00
0E00
0E00
0E00
0E00
0E00
0E00
0E00
0E00
0E00
0E00
0E00
0E00
0E00
0E00
0E00
0E00
0E00
1F00
7FC0
ENDCHAR
STARTCHAR 00D0
ENCODING 208
SWIDTH 600 0
DWIDTH 24 0
BBX 21 25 1 0
BITMAP
1FF800
FFFF00
1C0F80
1C03C0
1C01E0
1C00F0
1C0070
1C0070
1C0078
1C0038
1C0038
FFF038
FFE038
1C0038
1C0038
1C0038
1C0070
1C0070
1C0070
1C00E0
1C01E0
1C03C0
1C0F80
3FFE00
FFF800
ENDCHAR
STARTCHAR 00D1
ENCODING 209
SWIDTH 650 0
DWIDTH 26 0
BBX 24 32 1 0
BITMAP
00F040
01F860
03FCC0
021F80
060600
000000
000000
F801FF
3C007C
1E0038
1E0038
1F0038
1F8038
1D8038
1DC038
1CE038
1C6038
1C7038
1C3838
1C1C38
1C1C38
1C0E38
1C0738
1C0738
1C03B8
1C03F8
1C01F8
1C00F8
1C00F8
1C0078
3E0038
FF8018
ENDCHAR
STARTCHAR 00D2
ENCODING 210
SWIDTH 600 0
DWIDTH 24 0
BBX 21 34 1 0
BITMAP
030000
078000
0FC000
03E000
00F000
003800
001C00
000400
000000
00FC00
03FF00
070780
0C03C0
1801E0
3800E0
700070
700070
600078
E00038
E00038
E00038
E00038
E00038
E00038
E00038
F00030
700070
700060
7800E0
3C00C0
1E0180
0F0700
07FE00
01F800
ENDCHAR
STARTCHAR 00D3
ENCODING 211
SWIDTH 600 0
DWIDTH 24 0
BBX 21 34 1 0
BITMAP
000300
000780
000FC0
001F00
003C00
007000
00E000
008000
000000
00FC00
03FF00
070780
0C03C0
1801E0
3800E0
700070
700070
600078
E00038
E00038
E00038
E00038
E00038
E00038
E00038
F00030
700070
700060
7800E0
3C00C0
1E0180
0F0700
07FE00
01F800
ENDCHAR
STARTCHAR 00D4
ENCODING 212
SWIDTH 600 0
DWIDTH 24 0
BBX 21 33 1 0
BITMAP
007800
00FC00
00FC00
01CE00
038700
060180
040080
000000
00FC00
03FF00
070780
0C03C0
1801E0
3800E0
700070
700070
600078
E00038
E00038
E00038
E00038
E00038
E00038
E00038
F00030
700070
700060
7800E0
3C00C0
1E0180
0F0700
07FE00
01F800
ENDCHAR
STARTCHAR 00D5
ENCODING 213
SWIDTH 600 0
DWIDTH 24 0
BBX 21 32 1 0
BITMAP
01E080
03F0C0
07F980
063F00
0C0C00
000000
000000
00FC00
03FF00
070780
0C03C0
1801E0
3800E0
700070
700070
600078
E00038
E00038
E00038
E00038
E00038
E00038
E00038
F00030
700070
700060
7800E0
3C00C0
1E0180
0F0700
07FE00
01F800
ENDCHAR
STARTCHAR 00D6
ENCODING 214
SWIDTH 600 0
DWIDTH 24 0
BBX 21 31 1 0
BITMAP
030180
070380
070380
070380
020100
000000
00FC00
03FF00
070780
0C03C0
1801E0
3800E0
700070
700070
600078
E00038
E00038
E00038
E00038
E00038
E00038
E00038
F00030
700070
700060
7800E0
3C00C0
1E0180
0F0700
07FE00
01F800
ENDCHAR
STARTCHAR 00D7
ENCODING 215
SWIDTH 400 0
DWIDTH 16 0
BBX 13 12 2 5
BITMAP
C030
E078
70E0
39C0
1F80
0F00
0F00
1F80
39C0
70E0
E070
C038
ENDCHAR
STARTCHAR 00D8
ENCODING 216
SWIDTH 600 0
DWIDTH 24 0
BBX 21 26 1 -1
BITMAP
00FC38
03FF70
0707E0
0C03E0
1801E0
3803F0
3007F0
700770
600E78
E01C38
E01C38
E03838
E07038
E07038
E0E038
E1C038
F38030
738070
770060
7E00E0
3C00C0
3E0180
3F0700
77FE00
E1F800
800000
ENDCHAR
STARTCHAR 00D9
ENCODING 217
SWIDTH 650 0
DWIDTH 26 0
BBX 24 34 1 0
BITMAP
018000
03C000
03E000
00F000
007800
001C00
000600
000300
000000
FF81FF
3E007C
1C0038
1C0038
1C0038
1C0038
1C0038
1C0038
1C0038
1C0038
1C0038
1C0038
1C0038
1C0038
1C0038
1C0038
1C0038
1C0038
1C0070
0E0070
0E0070
0F00E0
07C1C0
03FF80
007E00
ENDCHAR
STARTCHAR 00DA
ENCODING 218
SWIDTH 650 0
DWIDTH 26 0
BBX 24 34 1 0
BITMAP
000180
0003E0
0007E0
000F80
001E00
003800
007000
004000
000000
FF81FF
3E007C
1C0038
1C0038
1C0038
1C0038
1C0038
1C0038
1C0038
1C0038
1C0038
1C0038
1C0038
1C0038
1C0038
1C0038
1C0038
1C0038
1C0070
0E0070
0E0070
0F00E0
07C1C0
03FF80
007E00
ENDCHAR
STARTCHAR 00DB
ENCODING 219
SWIDTH 650 0
DWIDTH 26 0
BBX 24 33 1 0
BITMAP
001C00
003E00
007F00
00E700
01C180
0380C0
020040
000000
FF81FF
3E007C
1C0038
1C0038
1C0038
1C0038
1C0038
1C0038
1C0038
1C0038
1C0038
1C0038
1C0038
1C0038
1C0038
1C0038
1C0038
1C0038
1C0070
0E0070
0E0070
0F00E0
07C1C0
03FF80
007E00
ENDCHAR
STARTCHAR 00DC
ENCODING 220
SWIDTH 650 0
DWIDTH 26 0
BBX 24 31 1 0
BITMAP
0180C0
0381C0
0381C0
0381C0
010080
000000
FF81FF
3E007C
1C0038
1C0038
1C0038
1C0038
1C0038
1C0038
1C0038
1C0038
1C0038
1C0038
1C0038
1C0038
1C0038
1C0038
1C0038
1C0038
1C0070
0E0070
0E0070
0F00E0
07C1C0
03FF80
007E00
ENDCHAR
STARTCHAR 00DD
ENCODING 221
SWIDTH 600 0
DWIDTH 24 0
BBX 23 34 0 0
BITMAP
000180
0003C0
0007C0
000F00
001E00
003800
006000
00C000
000000
F801FE
3C0078
1E0060
0E00E0
0700C0
0781C0
038180
03C380
01C300
00E700
00EE00
007E00
007C00
003800
003800
003800
003800
003800
003800
003800
003800
003800
003800
007C00
01FF00
ENDCHAR
STARTCHAR 00DE
ENCODING 222
SWIDTH 525 0
DWIDTH 21 0
BBX 18 25 1 0
BITMAP
FF8000
3C0000
1C0000
1C0000
1FF800
1FFE00
1C1F00
1C0780
1C0380
1C03C0
1C01C0
1C01C0
1C01C0
1C01C0
1C01C0
1C0380
1C0780
1C0F00
1DFE00
1CF800
1C0000
1C0000
1C0000
3E0000
FF8000
ENDCHAR
STARTCHAR 00DF
ENCODING 223
SWIDTH 575 0
DWIDTH 23 0
BBX 20 30 1 0
BITMAP
007C00
01FF00
030F80
060380
0E03C0
0C01C0
0C01C0
1C01C0
1C01C0
1C0380
1C0780
1C1F00
1C7800
1CF000
1CE000
1CE000
1CF000
1C7C00
1C3F00
1C1FC0
1C07E0
1C01E0
1C00F0
1C0070
1C8070
1C8070
1CC060
1CE0E0
3CFFC0
FC3F00
ENDCHAR
STARTCHAR 00E0
ENCODING 224
SWIDTH 450 0
DWIDTH 18 0
BBX 16 29 2 0
BITMAP
3800
3C00
1C00
0E00
0E00
0700
0380
0180
00C0
0000
0000
03E0
1FF0
3878
7038
F038
C038
0038
0078
07F8
1C38
7038
6038
E038
E038
E078
F1B9
7F3F
3C18
ENDCHAR
STARTCHAR 00E1
ENCODING 225
SWIDTH 450 0
DWIDTH 18 0
BBX 16 29 2 0
BITMAP
0038
0078
0070
00E0
00C0
01C0
0380
0300
0600
0000
0000
03E0
1FF0
3878
7038
F038
C038
0038
0078
07F8
1C38
7038
6038
E038
E038
E078
F1B9
7F3F
3C18
ENDCHAR
STARTCHAR 00E2
ENCODING 226
SWIDTH 450 0
DWIDTH 18 0
BBX 16 29 2 0
BITMAP
0380
0780
07C0
0FE0
1EE0
1C70
3838
3018
600C
0000
0000
03E0
1FF0
3878
7038
F038
C038
0038
0078
07F8
1C38
7038
6038
E038
E038
E078
F1B9
7F3F
3C18
ENDCHAR
STARTCHAR 00E3
ENCODING 227
SWIDTH 450 0
DWIDTH 18 0
BBX 16 27 2 0
BITMAP
0E04
1F0C
3F98
63F0
40E0
0000
0000
0000
0000
03E0
1FF0
3878
7038
F038
C038
0038
0078
07F8
1C38
7038
6038
E038
E038
E078
F1B9
7F3F
3C18
ENDCHAR
STARTCHAR 00E4
ENCODING 228
SWIDTH 450 0
DWIDTH 18 0
BBX 16 27 2 0
BITMAP
3018
3018
7038
7038
3018
0000
0000
0000
0000
03E0
1FF0
3878
7038
F038
C038
0038
0078
07F8
1C38
7038
6038
E038
E038
E078
F1B9
7F3F
3C18
ENDCHAR
STARTCHAR 00E5
ENCODING 229
SWIDTH 450 0
DWIDTH 18 0
BBX 16 28 2 0
BITMAP
03C0
07E0
0C60
0C60
1860
0C60
0FC0
0780
0000
0000
03E0
1FF0
3878
7038
F038
C038
0038
0078
07F8
1C38
7038
6038
E038
E038
E078
F1B9
7F3F
3C18
ENDCHAR
STARTCHAR 00E6
ENCODING 230
SWIDTH 700 0
DWIDTH 28 0
BBX 24 18 2 0
BITMAP
03E1F0
0FF3FC
38771E
703C0E
E03C07
F03807
C03807
01FFFF
0FFFFE
1E3800
783800
703800
E03800
E03C02
E05C03
F19F0E
7F0FF8
3C03E0
ENDCHAR
STARTCHAR 00E7
ENCODING 231
SWIDTH 425 0
DWIDTH 17 0
BBX 15 27 2 -9
BITMAP
01F8
07FE
1C1C
380C
3004
7000
6000
E000
E000
E000
E000
E000
E000
F000
7008
7818
3FF0
1FE0
0F80
0200
0200
0380
07C0
01C0
0180
0700
1C00
ENDCHAR
STARTCHAR 00E8
ENCODING 232
SWIDTH 450 0
DWIDTH 18 0
BBX 14 29 2 0
BITMAP
1C00
3C00
1E00
0E00
0700
0380
0180
00C0
0040
0000
0000
03C0
0FF0
1C78
3038
701C
601C
E01C
FFFC
FFF8
E000
E000
E000
F000
7004
780C
3C38
1FF0
07C0
ENDCHAR
STARTCHAR 00E9
ENCODING 233
SWIDTH 450 0
DWIDTH 18 0
BBX 14 29 2 0
BITMAP
0038
003C
0078
0070
00E0
00C0
0180
0100
0300
0000
0000
03C0
0FF0
1C78
3038
701C
601C
E01C
FFFC
FFF8
E000
E000
E000
F000
7004
780C
3C38
1FF0
07C0
ENDCHAR
STARTCHAR 00EA
ENCODING 234
SWIDTH 450 0
DWIDTH 18 0
BBX 14 29 2 0
BITMAP
0180
03C0
07E0
07E0
0E70
1C38
1818
300C
2004
0000
0000
03C0
0FF0
1C78
3038
701C
601C
E01C
FFFC
FFF8
E000
E000
E000
F000
7004
780C
3C38
1FF0
07C0
ENDCHAR
STARTCHAR 00EB
ENCODING 235
SWIDTH 450 0
DWIDTH 18 0
BBX 14 27 2 0
BITMAP
180C
381C
381C
381C
3018
0000
0000
0000
0000
03C0
0FF0
1C78
3038
701C
601C
E01C
FFFC
FFF8
E000
E000
E000
F000
7004
780C
3C38
1FF0
07C0
ENDCHAR
STARTCHAR 00EC
ENCODING 236
SWIDTH 275 0
DWIDTH 11 0
BBX 10 29 0 0
BITMAP
E000
F000
7800
3800
1C00
0C00
0E00
0600
0300
0000
0000
0600
7E00
1E00
0E00
0E00
0E00
0E00
0E00
0E00
0E00
0E00
0E00
0E00
0E00
0E00
0E00
1E00
7FC0
ENDCHAR
STARTCHAR 00ED
ENCODING 237
SWIDTH 275 0
DWIDTH 11 0
BBX 10 29 1 0
BITMAP
01C0
03C0
0380
0780
0700
0E00
0C00
1800
1000
0000
0000
0C00
FC00
3C00
1C00
1C00
1C00
1C00
1C00
1C00
1C00
1C00
1C00
1C00
1C00
1C00
1C00
3C00
FF80
ENDCHAR
STARTCHAR 00EE
ENCODING 238
SWIDTH 275 0
DWIDTH 11 0
BBX 13 29 -1 0
BITMAP
0700
0780
0F80
1FC0
1DC0
38E0
7070
6030
C018
0000
0000
0300
3F00
0F00
0700
0700
0700
0700
0700
0700
0700
0700
0700
0700
0700
0700
0700
0F00
3FE0
ENDCHAR
STARTCHAR 00EF
ENCODING 239
SWIDTH 275 0
DWIDTH 11 0
BBX 12 27 0 0
BITMAP
C060
E070
E070
C060
C060
0000
0000
0000
0000
0600
7E00
1E00
0E00
0E00
0E00
0E00
0E00
0E00
0E00
0E00
0E00
0E00
0E00
0E00
0E00
1E00
7FC0
ENDCHAR
STARTCHAR 00F0
ENCODING 240
SWIDTH 500 0
DWIDTH 20 0
BBX 16 28 2 0
BITMAP
0600
3F06
079F
01F8
03E0
0F70
1C38
001C
001C
000E
03CE
0FFE
1C7F
301F
700F
600F
E007
E007
E007
E007
E006
E006
F00E
700C
781C
3C38
1FF0
07C0
ENDCHAR
STARTCHAR 00F1
ENCODING 241
SWIDTH 550 0
DWIDTH 22 0
BBX 21 27 1 0
BITMAP
01C080
07E100
07F300
0C7E00
081C00
000000
000000
000000
000000
0C0F00
FC3F80
3C63C0
1D81C0
1D01C0
1E01C0
1E01C0
1C01C0
1C01C0
1C01C0
1C01C0
1C01C0
1C01C0
1C01C0
1C01C0
1C01C0
3E03C0
FF8FF8
ENDCHAR
STARTCHAR 00F2
ENCODING 242
SWIDTH 500 0
DWIDTH 20 0
BBX 16 29 2 0
BITMAP
1C00
1E00
0E00
0700
0380
0380
01C0
00C0
0060
0000
0000
03E0
0FF8
1C3C
301E
700E
600F
E007
E007
E007
E007
E007
E007
F006
700E
780C
3E38
1FF0
07C0
ENDCHAR
STARTCHAR 00F3
ENCODING 243
SWIDTH 500 0
DWIDTH 20 0
BBX 16 29 2 0
BITMAP
001C
003C
0038
0070
0070
00E0
00C0
0180
0300
0000
0000
03E0
0FF8
1C3C
301E
700E
600F
E007
E007
E007
E007
E007
E007
F006
700E
780C
3E38
1FF0
07C0
ENDCHAR
STARTCHAR 00F4
ENCODING 244
SWIDTH 500 0
DWIDTH 20 0
BBX 16 29 2 0
BITMAP
01C0
03C0
03E0
07F0
0770
0E38
1C1C
180C
3006
0000
0000
03E0
0FF8
1C3C
301E
700E
600F
E007
E007
E007
E007
E007
E007
F006
700E
780C
3E38
1FF0
07C0
ENDCHAR
STARTCHAR 00F5
ENCODING 245
SWIDTH 500 0
DWIDTH 20 0
BBX 16 27 2 0
BITMAP
0702
0F86
1FCC
31F8
2070
0000
0000
0000
0000
03E0
0FF8
1C3C
301E
700E
600F
E007
E007
E007
E007
E007
E007
F006
700E
780C
3E38
1FF0
07C0
ENDCHAR
STARTCHAR 00F6
ENCODING 246
SWIDTH 500 0
DWIDTH 20 0
BBX 16 27 2 0
BITMAP
180C
180C
1C0E
180C
180C
0000
0000
0000
0000
03E0
0FF8
1C3C
301E
700E
600F
E007
E007
E007
E007
E007
E007
F006
700E
780C
3E38
1FF0
07C0
ENDCHAR
STARTCHAR 00F7
ENCODING 247
SWIDTH 400 0
DWIDTH 16 0
BBX 14 14 1 4
BITMAP
0180
0380
0380
0300
0000
0000
7FFC
FFFC
0000
0000
0180
0380
0380
0300
ENDCHAR
STARTCHAR 00F8
ENCODING 248
SWIDTH 500 0
DWIDTH 20 0
BBX 16 20 2 -1
BITMAP
0001
03E3
0FFE
1C3C
301E
701E
603F
E067
E0C7
E087
E187
E307
E607
FC06
780E
780C
3C38
7FF0
C7C0
8000
ENDCHAR
STARTCHAR 00F9
ENCODING 249
SWIDTH 525 0
DWIDTH 21 0
BBX 21 29 0 0
BITMAP
070000
078000
03C000
01C000
00E000
006000
003000
003000
001800
000000
000000
0C00C0
FC0FC0
1C01C0
1C01C0
1C01C0
1C01C0
1C01C0
1C01C0
1C01C0
1C01C0
1C01C0
1C01C0
1C01C0
1C03C0
1C07C0
1E1DC8
0FF1F0
07C0C0
ENDCHAR
STARTCHAR 00FA
ENCODING 250
SWIDTH 525 0
DWIDTH 21 0
BBX 21 29 0 0
BITMAP
000700
000F80
000E00
001E00
001C00
003800
003000
006000
004000
000000
000000
0C00C0
FC0FC0
1C01C0
1C01C0
1C01C0
1C01C0
1C01C0
1C01C0
1C01C0
1C01C0
1C01C0
1C01C0
1C01C0
1C03C0
1C07C0
1E1DC8
0FF1F0
07C0C0
ENDCHAR
STARTCHAR 00FB
ENCODING 251
SWIDTH 525 0
DWIDTH 21 0
BBX 21 29 0 0
BITMAP
007000
007800
00F800
01FC00
01DE00
038E00
070700
060300
0C0180
000000
000000
0C00C0
FC0FC0
1C01C0
1C01C0
1C01C0
1C01C0
1C01C0
1C01C0
1C01C0
1C01C0
1C01C0
1C01C0
1C01C0
1C03C0
1C07C0
1E1DC8
0FF1F0
07C0C0
ENDCHAR
STARTCHAR 00FC
ENCODING 252
SWIDTH 525 0
DWIDTH 21 0
BBX 21 27 0 0
BITMAP
060300
070380
070380
060300
060300
000000
000000
000000
000000
0C00C0
FC0FC0
1C01C0
1C01C0
1C01C0
1C01C0
1C01C0
1C01C0
1C01C0
1C01C0
1C01C0
1C01C0
1C01C0
1C03C0
1C07C0
1E1DC8
0FF1F0
07C0C0
ENDCHAR
STARTCHAR 00FD
ENCODING 253
SWIDTH 500 0
DWIDTH 20 0
BBX 20 38 -1 -9
BITMAP
000380
000780
000700
000E00
000C00
001C00
003800
003000
006000
000000
000000
7F83F0
1E00E0
0E00C0
0E00C0
070180
070180
070300
038300
038300
01C600
01C600
01C600
00EC00
00EC00
007800
007800
007800
003000
003000
006000
006000
00E000
01C000
438000
7F0000
FE0000
7C0000
ENDCHAR
STARTCHAR 00FE
ENCODING 254
SWIDTH 525 0
DWIDTH 21 0
BBX 18 39 1 -9
BITMAP
0C0000
FC0000
3C0000
1C0000
1C0000
1C0000
1C0000
1C0000
1C0000
1C0000
1C0000
1C0000
1C3C00
1CFF00
1D8F00
1F0780
1E0380
1C03C0
1C01C0
1C01C0
1C01C0
1C01C0
1C01C0
1C0180
1C0180
1C0380
1E0300
1F8600
1FFC00
1CF000
1C0000
1C0000
1C0000
1C0000
1C0000
1C0000
1C0000
3E0000
FF8000
ENDCHAR
STARTCHAR 00FF
ENCODING 255
SWIDTH 500 0
DWIDTH 20 0
BBX 20 36 -1 -9
BITMAP
030180
030180
070380
070380
030180
000000
000000
000000
000000
7F83F0
1E00E0
0E00C0
0E00C0
070180
070180
070300
038300
038300
01C600
01C600
01C600
00EC00
00EC00
007800
007800
007800
003000
003000
006000
006000
00E000
01C000
438000
7F0000
FE0000
7C0000
ENDCHAR
STARTCHAR 0100
ENCODING 256
SWIDTH 600 0
DWIDTH 24 0
BBX 23 31 0 0
BITMAP
03FFE0
07FFC0
000000
000000
000000
000000
000800
003800
003C00
003C00
006C00
006E00
006E00
00C600
00C700
00C700
018300
018380
018380
030180
03FFC0
03FFC0
0600E0
0600E0
0600E0
0C0070
0C0070
0C0070
180038
1C0078
FF01FE
ENDCHAR
STARTCHAR 0101
ENCODING 257
SWIDTH 450 0
DWIDTH 18 0
BBX 16 25 2 0
BITMAP
7FFC
7FFC
0000
0000
0000
0000
0000
03E0
1FF0
3878
7038
F038
C038
0038
0078
07F8
1C38
7038
6038
E038
E038
E078
F1B9
7F3F
3C18
ENDCHAR
STARTCHAR 0102
ENCODING 258
SWIDTH 600 0
DWIDTH 24 0
BBX 23 33 0 0
BITMAP
060040
0200C0
030180
01C700
00FE00
003800
000000
000000
000800
003800
003C00
003C00
006C00
006E00
006E00
00C600
00C700
00C700
018300
018380
018380
030180
03FFC0
03FFC0
0600E0
0600E0
0600E0
0C0070
0C0070
0C0070
180038
1C0078
FF01FE
ENDCHAR
STARTCHAR 0103
ENCODING 259
SWIDTH 450 0
DWIDTH 18 0
BBX 16 27 2 0
BITMAP
4008
600C
3018
1830
1FE0
07C0
0000
0000
0000
03E0
1FF0
3878
7038
F038
C038
0038
0078
07F8
1C38
7038
6038
E038
E038
E078
F1B9
7F3F
3C18
ENDCHAR
STARTCHAR 0106
ENCODING 262
SWIDTH 525 0
DWIDTH 21 0
BBX 19 34 1 0
BITMAP
000300
000780
000FC0
001F00
003C00
007000
00E000
008000
000000
00FE00
03FFC0
0707C0
0C0180
180000
380000
700000
700000
700000
E00000
E00000
E00000
E00000
E00000
E00000
E00000
E00000
700000
700000
780000
3C0040
1E01E0
0F8780
07FE00
01F800
ENDCHAR
STARTCHAR 0107
ENCODING 263
SWIDTH 425 0
DWIDTH 17 0
BBX 15 29 2 0
BITMAP
0038
0078
0070
00F0
00E0
01C0
0180
0300
0200
0000
0000
01F8
07FE
1C1C
380C
7004
7000
E000
E000
E000
E000
E000
E000
F000
7004
7806
3E1C
1FF8
07E0
ENDCHAR
STARTCHAR 0108
ENCODING 264
SWIDTH 525 0
DWIDTH 21 0
BBX 19 33 1 0
BITMAP
007800
00FC00
00FC00
01CE00
038700
060180
040080
000000
00FE00
03FFC0
0707C0
0C0180
180000
380000
700000
700000
700000
E00000
E00000
E00000
E00000
E00000
E00000
E00000
E00000
700000
700000
780000
3C0040
1E01E0
0F8780
07FE00
01F800
ENDCHAR
STARTCHAR 0109
ENCODING 265
SWIDTH 425 0
DWIDTH 17 0
BBX 15 29 2 0
BITMAP
0380
03C0
07C0
0FE0
0EE0
1C70
3838
3018
600C
0000
0000
01F8
07FE
1C1C
380C
7004
7000
E000
E000
E000
E000
E000
E000
F000
7004
7806
3E1C
1FF8
07E0
ENDCHAR
STARTCHAR 010A
ENCODING 266
SWIDTH 525 0
DWIDTH 21 0
BBX 19 31 1 0
BITMAP
003000
007000
007000
007000
002000
000000
00FE00
03FFC0
0707C0
0C0180
180000
380000
700000
700000
700000
E00000
E00000
E00000
E00000
E00000
E00000
E00000
E00000
700000
700000
780000
3C0040
1E01E0
0F8780
07FE00
01F800
ENDCHAR
STARTCHAR 010B
ENCODING 267
SWIDTH 425 0
DWIDTH 17 0
BBX 15 27 2 0
BITMAP
0300
0380
0380
0300
0300
0000
0000
0000
0000
01F8
07FE
1C1C
380C
7004
7000
E000
E000
E000
E000
E000
E000
F000
7004
7806
3E1C
1FF8
07E0
ENDCHAR
STARTCHAR 010C
ENCODING 268
SWIDTH 525 0
DWIDTH 21 0
BBX 19 34 1 0
BITMAP
060180
070300
038700
01EE00
00FC00
007800
003000
000000
000000
00FE00
03FFC0
0707C0
0C0180
180000
380000
700000
700000
700000
E00000
E00000
E00000
E00000
E00000
E00000
E00000
E00000
700000
700000
780000
3C0040
1E01E0
0F8780
07FE00
01F800
ENDCHAR
STARTCHAR 010D
ENCODING 269
SWIDTH 425 0
DWIDTH 17 0
BBX 15 29 2 0
BITMAP
2008
701C
1838
1C70
0EE0
07C0
07C0
0380
0000
0000
0000
01F8
07FE
1C1C
380C
7004
7000
E000
E000
E000
E000
E000
E000
F000
7004
7806
3E1C
1FF8
07E0
ENDCHAR
STARTCHAR 010E
ENCODING 270
SWIDTH 600 0
DWIDTH 24 0
BBX 21 34 1 0
BITMAP
080300
0E0600
070C00
03BC00
01F800
00F000
00E000
000000
000000
1FF800
FFFF00
1C0F80
1C03C0
1C01E0
1C00F0
1C0070
1C0070
1C0078
1C0038
1C0038
1C0038
1C0038
1C0038
1C0038
1C0038
1C0070
1C0070
1C0070
1C00E0
1C01E0
1C03C0
1C0F80
3FFE00
FFF800
ENDCHAR
STARTCHAR 0110
ENCODING 272
SWIDTH 600 0
DWIDTH 24 0
BBX 21 25 1 0
BITMAP
1FF800
FFFF00
1C0F80
1C03C0
1C01E0
1C00F0
1C0070
1C0070
1C0078
1C0038
1C0038
FFF038
FFE038
1C0038
1C0038
1C0038
1C0070
1C0070
1C0070
1C00E0
1C01E0
1C03C0
1C0F80
3FFE00
FFF800
ENDCHAR
STARTCHAR 0111
ENCODING 273
SWIDTH 525 0
DWIDTH 21 0
BBX 19 30 2 0
BITMAP
000300
003F00
000F00
000700
000700
000700
01FFE0
01FFE0
000700
000700
000700
000700
03F700
0FFF00
1C1F00
380F00
300700
700700
600700
E00700
E00700
E00700
E00700
E00700
F00700
700F00
781F00
3C37E0
1FE7C0
078300
ENDCHAR
STARTCHAR 0112
ENCODING 274
SWIDTH 500 0
DWIDTH 20 0
BBX 18 31 1 0
BITMAP
1FFF00
3FFE00
000000
000000
000000
000000
FFFF00
3FFF00
1C0300
1C0100
1C0100
1C0000
1C0000
1C0000
1C0000
1C0000
1FFC00
1FFC00
1C0800
1C0000
1C0000
1C0000
1C0000
1C0000
1C0000
1C0000
1C0040
1C00C0
1C0180
3FFF80
FFFF80
ENDCHAR
STARTCHAR 0113
ENCODING 275
SWIDTH 450 0
DWIDTH 18 0
BBX 15 25 2 0
BITMAP
3FFE
3FFC
0000
0000
0000
0000
0000
03C0
0FF0
1C78
3038
701C
601C
E01C
FFFC
FFF8
E000
E000
E000
F000
7004
780C
3C38
1FF0
07C0
ENDCHAR
STARTCHAR 0114
ENCODING 276
SWIDTH 500 0
DWIDTH 20 0
BBX 18 33 1 0
BITMAP
300200
100600
180C00
0E3800
07F000
01E000
000000
000000
FFFF00
3FFF00
1C0300
1C0100
1C0100
1C0000
1C0000
1C0000
1C0000
1C0000
1FFC00
1FFC00
1C0800
1C0000
1C0000
1C0000
1C0000
1C0000
1C0000
1C0000
1C0040
1C00C0
1C0180
3FFF80
FFFF80
ENDCHAR
STARTCHAR 0115
ENCODING 277
SWIDTH 450 0
DWIDTH 18 0
BBX 14 27 2 0
BITMAP
2004
200C
3008
1C38
0FF0
03C0
0000
0000
0000
03C0
0FF0
1C78
3038
701C
601C
E01C
FFFC
FFF8
E000
E000
E000
F000
7004
780C
3C38
1FF0
07C0
ENDCHAR
STARTCHAR 0116
ENCODING 278
SWIDTH 500 0
DWIDTH 20 0
BBX 18 31 1 0
BITMAP
01C000
01C000
01C000
01C000
018000
000000
FFFF00
3FFF00
1C0300
1C0100
1C0100
1C0000
1C0000
1C0000
1C0000
1C0000
1FFC00
1FFC00
1C0800
1C0000
1C0000
1C0000
1C0000
1C0000
1C0000
1C0000
1C0040
1C00C0
1C0180
3FFF80
FFFF80
ENDCHAR
STARTCHAR 0117
ENCODING 279
SWIDTH 450 0
DWIDTH 18 0
BBX 14 27 2 0
BITMAP
0180
0380
0380
0380
0300
0000
0000
0000
0000
03C0
0FF0
1C78
3038
701C
601C
E01C
FFFC
FFF8
E000
E000
E000
F000
7004
780C
3C38
1FF0
07C0
ENDCHAR
STARTCHAR 011A
ENCODING 282
SWIDTH 500 0
DWIDTH 20 0
BBX 18 34 1 0
BITMAP
100600
1C0C00
0E1800
077800
03F000
01E000
00C000
000000
000000
FFFF00
3FFF00
1C0300
1C0100
1C0100
1C0000
1C0000
1C0000
1C0000
1C0000
1FFC00
1FFC00
1C0800
1C0000
1C0000
1C0000
1C0000
1C0000
1C0000
1C0000
1C0040
1C00C0
1C0180
3FFF80
FFFF80
ENDCHAR
STARTCHAR 011B
ENCODING 283
SWIDTH 450 0
DWIDTH 18 0
BBX 14 29 2 0
BITMAP
2004
300C
1818
0C30
0FF0
07E0
03C0
0180
0000
0000
0000
03C0
0FF0
1C78
3038
701C
601C
E01C
FFFC
FFF8
E000
E000
E000
F000
7004
780C
3C38
1FF0
07C0
ENDCHAR
STARTCHAR 011C
ENCODING 284
SWIDTH 575 0
DWIDTH 23 0
BBX 21 33 1 0
BITMAP
003800
007C00
00FE00
01C700
038380
030180
0600C0
000000
007F00
01FFC0
0703E0
0E00C0
1C0000
380000
300000
700000
700000
E00000
E00000
E00000
E00000
E00FF8
E001E0
E000E0
E000E0
7000E0
7000E0
7800E0
3C00E0
1E00E0
0F81C0
07FF80
01FC00
ENDCHAR
STARTCHAR 011D
ENCODING 285
SWIDTH 500 0
DWIDTH 20 0
BBX 18 38 1 -9
BITMAP
01C000
01E000
03E000
07F000
077800
0E1800
0C0C00
180600
100200
000000
000000
03E0C0
0FFFC0
1C3F00
381C00
700E00
700E00
700E00
700E00
781C00
3C3800
1FF000
07C000
060000
0C0000
1C0000
1FE000
0FFE00
0C3F80
1803C0
7001C0
E001C0
E001C0
E00380
F00380
7C0F00
3FFC00
07F000
ENDCHAR
STARTCHAR 011E
ENCODING 286
SWIDTH 575 0
DWIDTH 23 0
BBX 21 33 1 0
BITMAP
0600C0
020080
030180
01C700
00FE00
003800
000000
000000
007F00
01FFC0
0703E0
0E00C0
1C0000
380000
300000
700000
700000
E00000
E00000
E00000
E00000
E00FF8
E001E0
E000E0
E000E0
7000E0
7000E0
7800E0
3C00E0
1E00E0
0F81C0
07FF80
01FC00
ENDCHAR
STARTCHAR 011F
ENCODING 287
SWIDTH 500 0
DWIDTH 20 0
BBX 18 36 1 -9
BITMAP
100200
300600
180C00
0E1C00
07F800
03E000
000000
000000
000000
03E0C0
0FFFC0
1C3F00
381C00
700E00
700E00
700E00
700E00
781C00
3C3800
1FF000
07C000
060000
0C0000
1C0000
1FE000
0FFE00
0C3F80
1803C0
7001C0
E001C0
E001C0
E00380
F00380
7C0F00
3FFC00
07F000
ENDCHAR
STARTCHAR 0120
ENCODING 288
SWIDTH 575 0
DWIDTH 23 0
BBX 21 31 1 0
BITMAP
003000
003800
003800
003000
003000
000000
007F00
01FFC0
0703E0
0E00C0
1C0000
380000
300000
700000
700000
E00000
E00000
E00000
E00000
E00FF8
E001E0
E000E0
E000E0
7000E0
7000E0
7800E0
3C00E0
1E00E0
0F81C0
07FF80
01FC00
ENDCHAR
STARTCHAR 0121
ENCODING 289
SWIDTH 500 0
DWIDTH 20 0
BBX 18 36 1 -9
BITMAP
008000
01C000
01C000
01C000
018000
000000
000000
000000
000000
03E0C0
0FFFC0
1C3F00
381C00
700E00
700E00
700E00
700E00
781C00
3C3800
1FF000
07C000
060000
0C0000
1C0000
1FE000
0FFE00
0C3F80
1803C0
7001C0
E001C0
E001C0
E00380
F00380
7C0F00
3FFC00
07F000
ENDCHAR
STARTCHAR 0124
ENCODING 292
SWIDTH 650 0
DWIDTH 26 0
BBX 24 33 1 0
BITMAP
003C00
007C00
007E00
00E700
01C380
0300C0
020040
000000
FF81FF
3E007C
1C0038
1C0038
1C0038
1C0038
1C0038
1C0038
1C0038
1C0038
1C0038
1FFFF8
1FFFF8
1C0038
1C0038
1C0038
1C0038
1C0038
1C0038
1C0038
1C0038
1C0038
1C0038
3E007C
FF81FF
ENDCHAR
STARTCHAR 0125
ENCODING 293
SWIDTH 550 0
DWIDTH 22 0
BBX 21 38 1 0
BITMAP
007000
00F800
01FC00
039C00
070600
0E0300
080100
000000
0C0000
FC0000
7C0000
1C0000
1C0000
1C0000
1C0000
1C0000
1C0000
1C0000
1C0000
1C0000
1C1F00
1C3F80
1CE3C0
1D81C0
1F01C0
1E01C0
1E01C0
1C01C0
1C01C0
1C01C0
1C01C0
1C01C0
1C01C0
1C01C0
1C01C0
1C01C0
3E03C0
FF8FF8
ENDCHAR
STARTCHAR 0128
ENCODING 296
SWIDTH 300 0
DWIDTH 12 0
BBX 13 32 -1 0
BITMAP
1E08
3F18
7FB0
C3E0
80C0
0000
0000
3FE0
0F80
0700
0700
0700
0700
0700
0700
0700
0700
0700
0700
0700
0700
0700
0700
0700
0700
0700
0700
0700
0700
0700
0F80
3FE0
ENDCHAR
STARTCHAR 0129
ENCODING 297
SWIDTH 275 0
DWIDTH 11 0
BBX 13 27 -1 0
BITMAP
1C08
3E18
7F30
C7E0
81C0
0000
0000
0000
0000
0300
3F00
0F00
0700
0700
0700
0700
0700
0700
0700
0700
0700
0700
0700
0700
0700
0F00
3FE0
ENDCHAR
STARTCHAR 012A
ENCODING 298
SWIDTH 300 0
DWIDTH 12 0
BBX 10 31 1 0
BITMAP
FFC0
FF80
0000
0000
0000
0000
FF80
3E00
1C00
1C00
1C00
1C00
1C00
1C00
1C00
1C00
1C00
1C00
1C00
1C00
1C00
1C00
1C00
1C00
1C00
1C00
1C00
1C00
1C00
3E00
FF80
ENDCHAR
STARTCHAR 012B
ENCODING 299
SWIDTH 275 0
DWIDTH 11 0
BBX 10 25 1 0
BITMAP
FFC0
FF80
0000
0000
0000
0000
0000
0C00
FC00
3C00
1C00
1C00
1C00
1C00
1C00
1C00
1C00
1C00
1C00
1C00
1C00
1C00
1C00
3C00
FF80
ENDCHAR
STARTCHAR 012C
ENCODING 300
SWIDTH 300 0
DWIDTH 12 0
BBX 13 33 -1 0
BITMAP
C008
4018
6030
38E0
1FC0
0700
0000
0000
3FE0
0F80
0700
0700
0700
0700
0700
0700
0700
0700
0700
0700
0700
0700
0700
0700
0700
0700
0700
0700
0700
0700
0700
0F80
3FE0
ENDCHAR
STARTCHAR 012D
ENCODING 301
SWIDTH 275 0
DWIDTH 11 0
BBX 13 27 -1 0
BITMAP
8008
C018
6030
3060
1FC0
0F80
0000
0000
0000
0300
3F00
0F00
0700
0700
0700
0700
0700
0700
0700
0700
0700
0700
0700
0700
0700
0F00
3FE0
ENDCHAR
STARTCHAR 0130
ENCODING 304
SWIDTH 300 0
DWIDTH 12 0
BBX 9 31 1 0
BITMAP
1C00
1C00
1C00
1C00
1800
0000
FF80
3E00
1C00
1C00
1C00
1C00
1C00
1C00
1C00
1C00
1C00
1C00
1C00
1C00
1C00
1C00
1C00
1C00
1C00
1C00
1C00
1C00
1C00
3E00
FF80
ENDCHAR
STARTCHAR 0131
ENCODING 305
SWIDTH 275 0
DWIDTH 11 0
BBX 9 18 1 0
BITMAP
0C00
FC00
3C00
1C00
1C00
1C00
1C00
1C00
1C00
1C00
1C00
1C00
1C00
1C00
1C00
1C00
3C00
FF80
ENDCHAR
STARTCHAR 0132
ENCODING 306
SWIDTH 600 0
DWIDTH 24 0
BBX 22 32 1 -7
BITMAP
FF8FFC
3E01F0
1C00E0
1C00E0
1C00E0
1C00E0
1C00E0
1C00E0
1C00E0
1C00E0
1C00E0
1C00E0
1C00E0
1C00E0
1C00E0
1C00E0
1C00E0
1C00E0
1C00E0
1C00E0
1C00E0
1C00E0
1C00E0
3E00E0
FF80E0
0000C0
0001C0
0001C0
000180
006300
01FE00
00F800
ENDCHAR
STARTCHAR 0133
ENCODING 307
SWIDTH 525 0
DWIDTH 21 0
BBX 17 36 1 -9
BITMAP
1C0300
3C0780
3C0780
3C0780
180700
000000
000000
000000
000000
0C0180
FC1F80
3C0780
1C0380
1C0380
1C0380
1C0380
1C0380
1C0380
1C0380
1C0380
1C0380
1C0380
1C0380
1C0380
1C0380
3C0380
FF8380
000380
000380
000300
000700
000700
000600
018C00
03F800
03E000
ENDCHAR
STARTCHAR 0139
ENCODING 313
SWIDTH 475 0
DWIDTH 19 0
BBX 18 34 1 0
BITMAP
001800
003E00
007C00
00F800
01E000
038000
070000
040000
000000
FF8000
3E0000
1C0000
1C0000
1C0000
1C0000
1C0000
1C0000
1C0000
1C0000
1C0000
1C0000
1C0000
1C0000
1C0000
1C0000
1C0000
1C0000
1C0000
1C0000
1C00C0
1C0080
1E0180
3FFF80
FFFF80
ENDCHAR
STARTCHAR 013A
ENCODING 314
SWIDTH 275 0
DWIDTH 11 0
BBX 11 41 1 0
BITMAP
0080
00C0
03E0
07E0
0F80
1E00
3800
7000
4000
0000
0000
0C00
FC00
7C00
1C00
1C00
1C00
1C00
1C00
1C00
1C00
1C00
1C00
1C00
1C00
1C00
1C00
1C00
1C00
1C00
1C00
1C00
1C00
1C00
1C00
1C00
1C00
1C00
1C00
3C00
FF80
ENDCHAR
STARTCHAR 0141
ENCODING 321
SWIDTH 475 0
DWIDTH 19 0
BBX 18 25 1 0
BITMAP
FF8000
3E0000
1C0000
1C0000
1C0000
1C0000
1C0000
1C0000
1C1000
1C6000
1DE000
1F8000
1E0000
7C0000
FC0000
9C0000
1C0000
1C0000
1C0000
1C0000
1C00C0
1C0080
1E0180
3FFF80
FFFF80
ENDCHAR
STARTCHAR 0142
ENCODING 322
SWIDTH 275 0
DWIDTH 11 0
BBX 9 30 1 0
BITMAP
0C00
FC00
7C00
1C00
1C00
1C00
1C00
1C00
1C00
1C00
1C00
1C80
1D80
1F00
1E00
3C00
7C00
DC00
9C00
1C00
1C00
1C00
1C00
1C00
1C00
1C00
1C00
1C00
1C00
FF80
ENDCHAR
STARTCHAR 0143
ENCODING 323
SWIDTH 650 0
DWIDTH 26 0
BBX 24 34 1 0
BITMAP
000180
0003C0
0007E0
000F80
001E00
003800
007000
004000
000000
F801FF
3C007C
1E0038
1E0038
1F0038
1F8038
1D8038
1DC038
1CE038
1C6038
1C7038
1C3838
1C1C38
1C1C38
1C0E38
1C0738
1C0738
1C03B8
1C03F8
1C01F8
1C00F8
1C00F8
1C0078
3E0038
FF8018
ENDCHAR
STARTCHAR 0144
ENCODING 324
SWIDTH 550 0
DWIDTH 22 0
BBX 21 29 1 0
BITMAP
000700
000F00
000E00
001C00
003800
003000
007000
006000
00C000
000000
000000
0C0F00
FC3F80
3C63C0
1D81C0
1D01C0
1E01C0
1E01C0
1C01C0
1C01C0
1C01C0
1C01C0
1C01C0
1C01C0
1C01C0
1C01C0
1C01C0
3E03C0
FF8FF8
ENDCHAR
STARTCHAR 0147
ENCODING 327
SWIDTH 650 0
DWIDTH 26 0
BBX 24 34 1 0
BITMAP
0300C0
038180
01C380
00F700
007E00
003C00
001800
000000
000000
F801FF
3C007C
1E0038
1E0038
1F0038
1F8038
1D8038
1DC038
1CE038
1C6038
1C7038
1C3838
1C1C38
1C1C38
1C0E38
1C0738
1C0738
1C03B8
1C03F8
1C01F8
1C00F8
1C00F8
1C0078
3E0038
FF8018
ENDCHAR
STARTCHAR 0148
ENCODING 328
SWIDTH 550 0
DWIDTH 22 0
BBX 21 29 1 0
BITMAP
0C0100
0E0300
070600
038E00
01DC00
01F800
00F000
007000
000000
000000
000000
0C0F00
FC3F80
3C63C0
1D81C0
1D01C0
1E01C0
1E01C0
1C01C0
1C01C0
1C01C0
1C01C0
1C01C0
1C01C0
1C01C0
1C01C0
1C01C0
3E03C0
FF8FF8
ENDCHAR
STARTCHAR 014A
ENCODING 330
SWIDTH 600 0
DWIDTH 24 0
BBX 21 32 1 -7
BITMAP
0C07C0
FC1FF0
7C38F0
1C6078
1CC038
1D8038
1F0038
1F0038
1E0038
1C0038
1C0038
1C0038
1C0038
1C0038
1C0038
1C0038
1C0038
1C0038
1C0038
1C0038
1C0038
1C0038
1C0038
3E0030
FF8030
000070
000060
0000E0
0180C0
03E180
03FF00
00F800
ENDCHAR
STARTCHAR 014B
ENCODING 331
SWIDTH 550 0
DWIDTH 22 0
BBX 18 27 1 -9
BITMAP
0C0F00
FC3F80
3CE3C0
1D81C0
1F01C0
1E01C0
1E01C0
1C01C0
1C01C0
1C01C0
1C01C0
1C01C0
1C01C0
1C01C0
1C01C0
1C01C0
3E01C0
FF81C0
0001C0
0001C0
000180
000380
000380
020300
078600
07F800
03E000
ENDCHAR
STARTCHAR 014C
ENCODING 332
SWIDTH 600 0
DWIDTH 24 0
BBX 21 31 1 0
BITMAP
07FFC0
07FF80
000000
000000
000000
000000
00FC00
03FF00
070780
0C03C0
1801E0
3800E0
700070
700070
600078
E00038
E00038
E00038
E00038
E00038
E00038
E00038
F00030
700070
700060
7800E0
3C00C0
1E0180
0F0700
07FE00
01F800
ENDCHAR
STARTCHAR 014D
ENCODING 333
SWIDTH 500 0
DWIDTH 20 0
BBX 16 25 2 0
BITMAP
1FFE
3FFE
0000
0000
0000
0000
0000
03E0
0FF8
1C3C
301E
700E
600F
E007
E007
E007
E007
E007
E007
F006
700E
780C
3E38
1FF0
07C0
ENDCHAR
STARTCHAR 014E
ENCODING 334
SWIDTH 600 0
DWIDTH 24 0
BBX 21 33 1 0
BITMAP
040080
060180
030300
038700
01FE00
007800
000000
000000
00FC00
03FF00
070780
0C03C0
1801E0
3800E0
700070
700070
600078
E00038
E00038
E00038
E00038
E00038
E00038
E00038
F00030
700070
700060
7800E0
3C00C0
1E0180
0F0700
07FE00
01F800
ENDCHAR
STARTCHAR 014F
ENCODING 335
SWIDTH 500 0
DWIDTH 20 0
BBX 16 27 2 0
BITMAP
2002
3006
180C
0C18
0FF0
03E0
0000
0000
0000
03E0
0FF8
1C3C
301E
700E
600F
E007
E007
E007
E007
E007
E007
F006
700E
780C
3E38
1FF0
07C0
ENDCHAR
STARTCHAR 0150
ENCODING 336
SWIDTH 600 0
DWIDTH 24 0
BBX 21 35 1 0
BITMAP
0038C0
0079E0
0071C0
006380
00E300
00C700
018600
018400
010C00
000000
00FC00
03FF00
070780
0C03C0
1801E0
3800E0
700070
700070
600078
E00038
E00038
E00038
E00038
E00038
E00038
E00038
F00030
700070
700060
7800E0
3C00C0
1E0180
0F0700
07FE00
01F800
ENDCHAR
STARTCHAR 0151
ENCODING 337
SWIDTH 500 0
DWIDTH 20 0
BBX 16 29 2 0
BITMAP
01C7
01C7
01CE
038E
031C
0718
0618
0430
0C20
0000
0000
03E0
0FF8
1C3C
301E
700E
600F
E007
E007
E007
E007
E007
E007
F006
700E
780C
3E38
1FF0
07C0
ENDCHAR
STARTCHAR 0152
ENCODING 338
SWIDTH 800 0
DWIDTH 32 0
BBX 30 25 1 0
BITMAP
00FFFFF8
03FFFFF8
0703E030
0C00E010
1800E010
3800E000
7000E000
7000E000
6000E000
E000E000
E000FFC0
E000FFE0
E000E080
E000E000
E000E000
E000E000
F000E000
7000E000
7000E000
7800E000
3C00E004
1E00E00C
0F01E01C
07FFFFF8
01FFFFF8
ENDCHAR
STARTCHAR 0153
ENCODING 339
SWIDTH 800 0
DWIDTH 32 0
BBX 28 18 2 0
BITMAP
03E01F00
0FF87FC0
1C7CE1C0
383FC0E0
701F8060
700F0070
E00F0070
E007FFF0
E007FFE0
E0070000
E0070000
E0070000
F0078000
700F8020
700FC030
3819E0E0
1C10FF80
07E03E00
ENDCHAR
STARTCHAR 0154
ENCODING 340
SWIDTH 550 0
DWIDTH 22 0
BBX 21 34 1 0
BITMAP
000C00
001F00
003F00
007C00
00F000
01C000
038000
020000
000000
1FF000
FFFE00
1C1F00
1C0700
1C0780
1C0380
1C0380
1C0380
1C0380
1C0700
1C0600
1C1C00
1FF000
1C7000
1C3800
1C3800
1C1C00
1C1E00
1C0E00
1C0700
1C0780
1C0380
1C03C0
3E01F8
FF81F0
ENDCHAR
STARTCHAR 0155
ENCODING 341
SWIDTH 400 0
DWIDTH 16 0
BBX 14 29 1 0
BITMAP
0038
003C
0078
00F0
00E0
01C0
0180
0300
0200
0000
0000
0C3C
FCFC
3D8C
1D0C
1F04
1E00
1E00
1C00
1C00
1C00
1C00
1C00
1C00
1C00
1C00
1C00
1E00
FF80
ENDCHAR
STARTCHAR 0158
ENCODING 344
SWIDTH 550 0
DWIDTH 22 0
BBX 21 34 1 0
BITMAP
180200
0C0E00
061C00
07B800
03F000
01E000
00C000
000000
000000
1FF000
FFFE00
1C1F00
1C0700
1C0780
1C0380
1C0380
1C0380
1C0380
1C0700
1C0600
1C1C00
1FF000
1C7000
1C3800
1C3800
1C1C00
1C1E00
1C0E00
1C0700
1C0780
1C0380
1C03C0
3E01F8
FF81F0
ENDCHAR
STARTCHAR 0159
ENCODING 345
SWIDTH 400 0
DWIDTH 16 0
BBX 14 29 1 0
BITMAP
2004
301C
1838
1C70
0EE0
07E0
03C0
0380
0000
0000
0000
0C3C
FCFC
3D8C
1D0C
1F04
1E00
1E00
1C00
1C00
1C00
1C00
1C00
1C00
1C00
1C00
1C00
1E00
FF80
ENDCHAR
STARTCHAR 015A
ENCODING 346
SWIDTH 475 0
DWIDTH 19 0
BBX 15 34 2 0
BITMAP
0018
003C
007C
00F0
01E0
0380
0600
0C00
0000
07E0
1FF8
787C
7018
E000
E000
E000
F000
F800
7E00
3F80
1FE0
07F8
01FC
007C
001E
001E
000E
800E
800E
C01C
E01C
F078
FFF0
1F80
ENDCHAR
STARTCHAR 015B
ENCODING 347
SWIDTH 375 0
DWIDTH 15 0
BBX 12 29 2 0
BITMAP
00E0
00F0
01E0
03C0
0380
0700
0600
0C00
0800
0000
0000
1F00
7F80
73C0
E180
E080
F000
F800
7E00
1F00
0FC0
03E0
01E0
80E0
80E0
C0E0
E1C0
FF80
3E00
ENDCHAR
STARTCHAR 015C
ENCODING 348
SWIDTH 475 0
DWIDTH 19 0
BBX 15 33 2 0
BITMAP
0380
07C0
0FE0
0E70
1838
301C
2008
0000
07E0
1FF8
787C
7018
E000
E000
E000
F000
F800
7E00
3F80
1FE0
07F8
01FC
007C
001E
001E
000E
800E
800E
C01C
E01C
F078
FFF0
1F80
ENDCHAR
STARTCHAR 015D
ENCODING 349
SWIDTH 375 0
DWIDTH 15 0
BBX 12 29 2 0
BITMAP
0E00
0F00
1F00
3F80
3BC0
70C0
6060
C030
8010
0000
0000
1F00
7F80
73C0
E180
E080
F000
F800
7E00
1F00
0FC0
03E0
01E0
80E0
80E0
C0E0
E1C0
FF80
3E00
ENDCHAR
STARTCHAR 0160
ENCODING 352
SWIDTH 475 0
DWIDTH 19 0
BBX 15 34 2 0
BITMAP
200C
3818
1C30
0EF0
07E0
03C0
0180
0000
0000
07E0
1FF8
787C
7018
E000
E000
E000
F000
F800
7E00
3F80
1FE0
07F8
01FC
007C
001E
001E
000E
800E
800E
C01C
E01C
F078
FFF0
1F80
ENDCHAR
STARTCHAR 0161
ENCODING 353
SWIDTH 375 0
DWIDTH 15 0
BBX 12 29 2 0
BITMAP
8010
C070
60E0
71C0
3B80
1F80
0F00
0E00
0000
0000
0000
1F00
7F80
73C0
E180
E080
F000
F800
7E00
1F00
0FC0
03E0
01E0
80E0
80E0
C0E0
E1C0
FF80
3E00
ENDCHAR
STARTCHAR 0164
ENCODING 356
SWIDTH 550 0
DWIDTH 22 0
BBX 21 34 0 0
BITMAP
040180
0F0300
038E00
01DC00
00FC00
007800
007000
000000
000000
7FFFF8
FFFFF8
C07018
C07018
807010
007000
007000
007000
007000
007000
007000
007000
007000
007000
007000
007000
007000
007000
007000
007000
007000
007000
007000
00F800
03FE00
ENDCHAR
STARTCHAR 0168
ENCODING 360
SWIDTH 650 0
DWIDTH 26 0
BBX 24 32 1 0
BITMAP
00F060
01F840
03FCC0
031F80
020600
000000
000000
FF81FF
3E007C
1C0038
1C0038
1C0038
1C0038
1C0038
1C0038
1C0038
1C0038
1C0038
1C0038
1C0038
1C0038
1C0038
1C0038
1C0038
1C0038
1C0070
0E0070
0E0070
0F00E0
07C1C0
03FF80
007E00
ENDCHAR
STARTCHAR 0169
ENCODING 361
SWIDTH 525 0
DWIDTH 21 0
BBX 21 27 0 0
BITMAP
01C080
03E180
07F100
0C7E00
081C00
000000
000000
000000
000000
0C00C0
FC0FC0
1C01C0
1C01C0
1C01C0
1C01C0
1C01C0
1C01C0
1C01C0
1C01C0
1C01C0
1C01C0
1C01C0
1C03C0
1C07C0
1E1DC8
0FF1F0
07C0C0
ENDCHAR
STARTCHAR 016A
ENCODING 362
SWIDTH 650 0
DWIDTH 26 0
BBX 24 31 1 0
BITMAP
03FFE0
03FFC0
000000
000000
000000
000000
FF81FF
3E007C
1C0038
1C0038
1C0038
1C0038
1C0038
1C0038
1C0038
1C0038
1C0038
1C0038
1C0038
1C0038
1C0038
1C0038
1C0038
1C0038
1C0070
0E0070
0E0070
0F00E0
07C1C0
03FF80
007E00
ENDCHAR
STARTCHAR 016B
ENCODING 363
SWIDTH 525 0
DWIDTH 21 0
BBX 21 25 0 0
BITMAP
07FF80
0FFF80
000000
000000
000000
000000
000000
0C00C0
FC0FC0
1C01C0
1C01C0
1C01C0
1C01C0
1C01C0
1C01C0
1C01C0
1C01C0
1C01C0
1C01C0
1C01C0
1C03C0
1C07C0
1E1DC8
0FF1F0
07C0C0
ENDCHAR
STARTCHAR 016C
ENCODING 364
SWIDTH 650 0
DWIDTH 26 0
BBX 24 33 1 0
BITMAP
020060
030040
0180C0
00E380
007F00
001C00
000000
000000
FF81FF
3E007C
1C0038
1C0038
1C0038
1C0038
1C0038
1C0038
1C0038
1C0038
1C0038
1C0038
1C0038
1C0038
1C0038
1C0038
1C0038
1C0038
1C0070
0E0070
0E0070
0F00E0
07C1C0
03FF80
007E00
ENDCHAR
STARTCHAR 016D
ENCODING 365
SWIDTH 525 0
DWIDTH 21 0
BBX 21 27 0 0
BITMAP
040080
0C0180
060300
030600
01FE00
00F800
000000
000000
000000
0C00C0
FC0FC0
1C01C0
1C01C0
1C01C0
1C01C0
1C01C0
1C01C0
1C01C0
1C01C0
1C01C0
1C01C0
1C01C0
1C03C0
1C07C0
1E1DC8
0FF1F0
07C0C0
ENDCHAR
STARTCHAR 016E
ENCODING 366
SWIDTH 650 0
DWIDTH 26 0
BBX 24 34 1 0
BITMAP
001E00
007F00
006300
00C300
00C300
00E700
007E00
003800
000000
FF81FF
3E007C
1C0038
1C0038
1C0038
1C0038
1C0038
1C0038
1C0038
1C0038
1C0038
1C0038
1C0038
1C0038
1C0038
1C0038
1C0038
1C0038
1C0070
0E0070
0E0070
0F00E0
07C1C0
03FF80
007E00
ENDCHAR
STARTCHAR 016F
ENCODING 367
SWIDTH 525 0
DWIDTH 21 0
BBX 21 28 0 0
BITMAP
007800
00FC00
018E00
018600
018600
018C00
01F800
00F000
000000
000000
0C00C0
FC0FC0
1C01C0
1C01C0
1C01C0
1C01C0
1C01C0
1C01C0
1C01C0
1C01C0
1C01C0
1C01C0
1C01C0
1C03C0
1C07C0
1E1DC8
0FF1F0
07C0C0
ENDCHAR
STARTCHAR 0170
ENCODING 368
SWIDTH 650 0
DWIDTH 26 0
BBX 24 35 1 0
BITMAP
001C60
001CF0
0038E0
0038C0
0071C0
006180
006300
00C300
008200
000000
FF81FF
3E007C
1C0038
1C0038
1C0038
1C0038
1C0038
1C0038
1C0038
1C0038
1C0038
1C0038
1C0038
1C0038
1C0038
1C0038
1C0038
1C0038
1C0070
0E0070
0E0070
0F00E0
07C1C0
03FF80
007E00
ENDCHAR
STARTCHAR 0171
ENCODING 369
SWIDTH 525 0
DWIDTH 21 0
BBX 21 29 0 0
BITMAP
0031C0
0079C0
007380
00E380
00C300
00C600
018600
010C00
030800
000000
000000
0C00C0
FC0FC0
1C01C0
1C01C0
1C01C0
1C01C0
1C01C0
1C01C0
1C01C0
1C01C0
1C01C0
1C01C0
1C01C0
1C03C0
1C07C0
1E1DC8
0FF1F0
07C0C0
ENDCHAR
STARTCHAR 0174
ENCODING 372
SWIDTH 850 0
DWIDTH 34 0
BBX 33 33 0 0
BITMAP
0001E00000
0003E00000
0007F00000
0007380000
000C1C0000
0018060000
0010020000
0000000000
FF80C07F80
1C00C00E00
1C00C00C00
1C01E00C00
0E01E01C00
0E01E01C00
0E03F01800
0E03701800
0703301800
0707383800
0706383800
0706183000
070E1C3000
038C1C3000
038C0E7000
039C0E6000
03980E6000
01D8076000
01F8076000
01F007E000
01F003C000
01F003C000
00E003C000
00E001C000
00C0018000
ENDCHAR
STARTCHAR 0175
ENCODING 373
SWIDTH 700 0
DWIDTH 28 0
BBX 28 29 0 0
BITMAP
00070000
00078000
000F8000
001FC000
001DE000
0038E000
00707000
00603000
00C01800
00000000
00000000
FF0307F0
3C0700C0
1C0700C0
1C078180
1C0F8180
0E0F8180
0E0DC380
0E19C300
0619C300
0718E300
0730E600
03307600
03B07600
03E07C00
01E03C00
01E03C00
01C03C00
01801000
ENDCHAR
STARTCHAR 0176
ENCODING 374
SWIDTH 600 0
DWIDTH 24 0
BBX 23 33 0 0
BITMAP
003800
007C00
00FE00
00E700
018380
0301C0
020040
000000
F801FE
3C0078
1E0060
0E00E0
0700C0
0781C0
038180
03C380
01C300
00E700
00EE00
007E00
007C00
003800
003800
003800
003800
003800
003800
003800
003800
003800
003800
007C00
01FF00
ENDCHAR
STARTCHAR 0177
ENCODING 375
SWIDTH 500 0
DWIDTH 20 0
BBX 20 38 -1 -9
BITMAP
003800
007800
007C00
00FE00
01EE00
01C700
038380
070180
0600C0
000000
000000
7F83F0
1E00E0
0E00C0
0E00C0
070180
070180
070300
038300
038300
01C600
01C600
01C600
00EC00
00EC00
007800
007800
007800
003000
003000
006000
006000
00E000
01C000
438000
7F0000
FE0000
7C0000
ENDCHAR
STARTCHAR 0178
ENCODING 376
SWIDTH 600 0
DWIDTH 24 0
BBX 23 31 0 0
BITMAP
0381C0
0381C0
0381C0
0381C0
030180
000000
F801FE
3C0078
1E0060
0E00E0
0700C0
0781C0
038180
03C380
01C300
00E700
00EE00
007E00
007C00
003800
003800
003800
003800
003800
003800
003800
003800
003800
003800
007C00
01FF00
ENDCHAR
STARTCHAR 0179
ENCODING 377
SWIDTH 525 0
DWIDTH 21 0
BBX 18 34 1 0
BITMAP
000600
000F00
001F00
003E00
007800
00E000
018000
030000
000000
3FFFC0
3FFFC0
300380
200780
600F00
600E00
001E00
001C00
003800
007800
007000
00F000
01E000
01C000
03C000
038000
070000
0F0000
0E0000
1E0040
3C0040
3800C0
7800C0
7FFFC0
FFFFC0
ENDCHAR
STARTCHAR 017A
ENCODING 378
SWIDTH 450 0
DWIDTH 18 0
BBX 15 29 1 0
BITMAP
001C
003C
0038
0070
0060
00E0
01C0
0180
0300
0000
0000
3FFE
3FFE
601C
6038
4038
0070
00E0
01C0
01C0
0380
0700
0700
0E00
1C02
3802
3806
7FFE
FFFE
ENDCHAR
STARTCHAR 017B
ENCODING 379
SWIDTH 525 0
DWIDTH 21 0
BBX 18 31 1 0
BITMAP
00E000
00E000
00E000
00E000
00C000
000000
3FFFC0
3FFFC0
300380
200780
600F00
600E00
001E00
001C00
003800
007800
007000
00F000
01E000
01C000
03C000
038000
070000
0F0000
0E0000
1E0040
3C0040
3800C0
7800C0
7FFFC0
FFFFC0
ENDCHAR
STARTCHAR 017C
ENCODING 380
SWIDTH 450 0
DWIDTH 18 0
BBX 15 27 1 0
BITMAP
0180
0180
0380
0380
0180
0000
0000
0000
0000
3FFE
3FFE
601C
6038
4038
0070
00E0
01C0
01C0
0380
0700
0700
0E00
1C02
3802
3806
7FFE
FFFE
ENDCHAR
STARTCHAR 017D
ENCODING 381
SWIDTH 525 0
DWIDTH 21 0
BBX 18 34 1 0
BITMAP
0C0300
0E0600
070C00
03BC00
01F800
00F000
006000
000000
000000
3FFFC0
3FFFC0
300380
200780
600F00
600E00
001E00
001C00
003800
007800
007000
00F000
01E000
01C000
03C000
038000
070000
0F0000
0E0000
1E0040
3C0040
3800C0
7800C0
7FFFC0
FFFFC0
ENDCHAR
STARTCHAR 017E
ENCODING 382
SWIDTH 450 0
DWIDTH 18 0
BBX 15 29 1 0
BITMAP
3004
180E
1C18
0E38
0770
03E0
03E0
01C0
0000
0000
0000
3FFE
3FFE
601C
6038
4038
0070
00E0
01C0
01C0
0380
0700
0700
0E00
1C02
3802
3806
7FFE
FFFE
ENDCHAR
STARTCHAR 0181
ENCODING 385
SWIDTH 650 0
DWIDTH 26 0
BBX 23 25 1 0
BITMAP
03FF00
1FFFE0
39C1F0
71C078
E1C078
E1C038
E1C038
F1C038
41C070
01C070
01C1C0
01FFE0
01FFF0
01C0F8
01C03C
01C01E
01C00E
01C00E
01C00E
01C00E
01C01E
01C01C
01C078
03FFF0
0FFFC0
ENDCHAR
STARTCHAR 0186
ENCODING 390
SWIDTH 525 0
DWIDTH 21 0
BBX 18 25 1 0
BITMAP
07E000
1FF800
787C00
E01E00
800F00
000780
000380
000380
0003C0
0001C0
0001C0
0001C0
0001C0
0001C0
0001C0
3801C0
700180
E00380
E00380
E00300
E00700
700E00
7C3C00
3FF800
0FC000
ENDCHAR
STARTCHAR 0189
ENCODING 393
SWIDTH 600 0
DWIDTH 24 0
BBX 21 25 1 0
BITMAP
1FF800
FFFF00
1C0F80
1C03C0
1C01E0
1C00F0
1C0070
1C0070
1C0078
1C0038
1C0038
FFF038
FFE038
1C0038
1C0038
1C0038
1C0070
1C0070
1C0070
1C00E0
1C01E0
1C03C0
1C0F80
3FFE00
FFF800
ENDCHAR
STARTCHAR 018A
ENCODING 394
SWIDTH 700 0
DWIDTH 28 0
BBX 25 25 1 0
BITMAP
03FF8000
1FFFF000
39C1F800
71C03C00
E1C01E00
E1C00F00
E1C00700
F1C00700
41C00780
01C00380
01C00380
01C00380
01C00380
01C00380
01C00380
01C00380
01C00700
01C00700
01C00700
01C00E00
01C01E00
01C03C00
01E0F800
03FFE000
0FFF8000
ENDCHAR
STARTCHAR 018E
ENCODING 398
SWIDTH 500 0
DWIDTH 20 0
BBX 17 25 2 0
BITMAP
3FFF80
3FFE00
701C00
601C00
401C00
001C00
001C00
001C00
001C00
081C00
1FFC00
1FFC00
001C00
001C00
001C00
001C00
001C00
001C00
001C00
C01C00
C01C00
C01C00
C01C00
FFFE00
FFFF80
ENDCHAR
STARTCHAR 0190
ENCODING 400
SWIDTH 500 0
DWIDTH 20 0
BBX 17 25 2 0
BITMAP
03FC00
0FFF00
1C1F80
300600
700000
E00000
E00000
E00000
F00000
F00000
7E0000
3FC000
1FC000
1F0000
380000
700000
E00000
E00000
E00000
E00000
F00180
700300
7C0E00
3FFC00
0FE000
ENDCHAR
STARTCHAR 0192
ENCODING 402
SWIDTH 300 0
DWIDTH 12 0
BBX 20 39 -5 -9
BITMAP
0003C0
000FF0
0018E0
003040
007000
006000
006000
00E000
00E000
00E000
00E000
00E000
03FF00
07FF80
00E200
00E000
00E000
00E000
00E000
00E000
00E000
00E000
00E000
00E000
00E000
00E000
00E000
00E000
00E000
00E000
00E000
00E000
00C000
00C000
01C000
018000
230000
FE0000
780000
ENDCHAR
STARTCHAR 0197
ENCODING 407
SWIDTH 300 0
DWIDTH 12 0
BBX 9 25 1 0
BITMAP
FF80
3E00
1C00
1C00
1C00
1C00
1C00
1C00
1C00
1C00
1C00
FF80
FF80
1C00
1C00
1C00
1C00
1C00
1C00
1C00
1C00
1C00
1C00
3E00
FF80
ENDCHAR
STARTCHAR 0198
ENCODING 408
SWIDTH 625 0
DWIDTH 25 0
BBX 23 25 1 0
BITMAP
FF80F8
3E01FC
1C039E
1C070E
1C0E0E
1C1C0E
1C380E
1C3010
1C6000
1CE000
1DC000
1D8000
1FC000
1DE000
1CF000
1C7800
1C3800
1C3C00
1C1E00
1C0F00
1C0780
1C03C0
1C01E0
3E01FC
FF80F8
ENDCHAR
STARTCHAR 0199
ENCODING 409
SWIDTH 500 0
DWIDTH 20 0
BBX 19 30 1 0
BITMAP
003E00
00FF80
018F80
030300
060000
0E0000
0E0000
0C0000
1C0000
1C0000
1C0000
1C0000
1C1FE0
1C0700
1C0E00
1C1C00
1C3000
1C6000
1DC000
1F8000
1DC000
1DE000
1CF000
1C7800
1C3800
1C1C00
1C1E00
1C0F00
3C0780
FF03E0
ENDCHAR
STARTCHAR 019A
ENCODING 410
SWIDTH 325 0
DWIDTH 13 0
BBX 11 30 1 0
BITMAP
0600
3E00
7E00
0E00
0E00
0E00
0E00
0E00
0E00
0E00
0E00
0E00
0E00
0E00
7FE0
FFC0
0E00
0E00
0E00
0E00
0E00
0E00
0E00
0E00
0E00
0E00
0E00
0E00
0E00
7FC0
ENDCHAR
STARTCHAR 019D
ENCODING 413
SWIDTH 650 0
DWIDTH 26 0
BBX 30 32 -5 -7
BITMAP
03E007FC
00F001F0
007800E0
007800E0
007C00E0
007E00E0
007600E0
007700E0
007380E0
007180E0
0071C0E0
0070E0E0
007060E0
007070E0
007038E0
007018E0
00701CE0
00700EE0
00700FE0
007007E0
007003E0
007003E0
007001E0
007000E0
007000E0
00700000
00600000
00E00000
00C00000
31800000
7F000000
FC000000
ENDCHAR
STARTCHAR 019F
ENCODING 415
SWIDTH 600 0
DWIDTH 24 0
BBX 21 25 1 0
BITMAP
00FC00
03FF00
070780
0C03C0
1801E0
3800E0
700070
700070
600038
E00038
E00038
FFFFF8
FFFFF8
E00038
E00038
E00038
F00030
700070
700060
7800E0
3C00C0
1E0180
0F0700
07FE00
01F800
ENDCHAR
STARTCHAR 01A0
ENCODING 416
SWIDTH 600 0
DWIDTH 24 0
BBX 22 29 1 0
BITMAP
000008
00003C
00001C
00001C
00FC18
03FF30
0F07E0
1C03C0
1801E0
3800F0
700070
700070
600078
E00038
E00038
E00038
E00038
E00038
E00038
E00038
F00030
700070
700060
7800E0
3C00C0
1E0180
0F0700
07FE00
01F800
ENDCHAR
STARTCHAR 01A1
ENCODING 417
SWIDTH 575 0
DWIDTH 23 0
BBX 20 22 2 0
BITMAP
000020
0001F0
0000F0
000070
03F060
0FFCC0
1C3F00
380F00
700F00
600780
E00780
E00380
E00380
E00380
E00380
F00300
F00300
780600
7C0E00
3E1C00
1FF800
07E000
ENDCHAR
STARTCHAR 01A9
ENCODING 425
SWIDTH 525 0
DWIDTH 21 0
BBX 19 25 1 0
BITMAP
7FFFC0
7FFFC0
3801C0
3C00C0
1E00C0
0E0040
070000
078000
038000
01C000
01E000
00E000
007000
00E000
01C000
038000
038000
070000
0E0000
0C0060
1C0060
380060
7000C0
7FFFC0
FFFFC0
ENDCHAR
STARTCHAR 01AA
ENCODING 426
SWIDTH 350 0
DWIDTH 14 0
BBX 19 39 0 -9
BITMAP
1F0000
3F8000
738000
E1C000
E1C000
F3C000
FFC000
7DC000
01C000
01C000
01C000
01C000
01C000
01C000
01C000
01C000
01C000
01C000
01C000
01C000
01C000
01C000
01C000
01C000
01C000
01C000
01C000
01C000
01C000
01C000
01C000
01C000
01C000
01C0E0
01E1E0
00E1C0
00F180
007F00
003E00
ENDCHAR
STARTCHAR 01AF
ENCODING 431
SWIDTH 675 0
DWIDTH 27 0
BBX 26 29 1 0
BITMAP
000000C0
000003C0
000001C0
000001C0
FF81FF80
3E007F00
1C003E00
1C003800
1C003800
1C003800
1C003800
1C003800
1C003800
1C003800
1C003800
1C003800
1C003800
1C003800
1C003800
1C003800
1C003800
1C003800
1C007800
0E007000
0E007000
0F00E000
07C1C000
03FF8000
007E0000
ENDCHAR
STARTCHAR 01B0
ENCODING 432
SWIDTH 625 0
DWIDTH 25 0
BBX 24 22 0 0
BITMAP
000002
00000F
000007
0C0047
FC07C6
3C0FDC
1C01B8
1C01E0
1C01C0
1C01C0
1C01C0
1C01C0
1C01C0
1C01C0
1C01C0
1C01C0
1C01C0
1C03C0
1E07C0
1E1DD8
0FF1F0
07C0C0
ENDCHAR
STARTCHAR 01B3
ENCODING 435
SWIDTH 675 0
DWIDTH 27 0
BBX 28 25 0 0
BITMAP
78000780
FC001FE0
3E003CF0
1E007070
0F007070
0780E070
0781C0E0
03C1C000
01C38000
01E70000
00E70000
00FE0000
007C0000
007C0000
00380000
00380000
00380000
00380000
00380000
00380000
00380000
00380000
00380000
007C0000
01FF0000
ENDCHAR
STARTCHAR 01B4
ENCODING 436
SWIDTH 500 0
DWIDTH 20 0
BBX 28 34 -1 -9
BITMAP
000003E0
000007F0
00000FE0
00001C40
00003800
00007000
00006000
7F806000
1E00C000
0E00C000
0E01C000
0F018000
07018000
07030000
03830000
03830000
03C60000
01C60000
01EE0000
00EC0000
00EC0000
00F80000
00780000
00780000
00700000
00300000
00200000
00600000
00600000
00C00000
01800000
23000000
7E000000
FC000000
ENDCHAR
STARTCHAR 01B7
ENCODING 439
SWIDTH 525 0
DWIDTH 21 0
BBX 17 25 2 0
BITMAP
7FFF00
7FFE00
601E00
C03C00
C07800
80F000
00E000
01C000
03C000
07F800
0FFE00
1C1F00
000F00
000780
000780
000380
000380
000380
000380
000300
600700
F00E00
FC1C00
7FF800
0FC000
ENDCHAR
STARTCHAR 01CD
ENCODING 461
SWIDTH 600 0
DWIDTH 24 0
BBX 23 34 0 0
BITMAP
0200C0
078180
01C700
00EE00
007E00
003C00
003800
000000
000000
000800
003800
003C00
003C00
006C00
006E00
006E00
00C600
00C700
00C700
018300
018380
018380
030180
03FFC0
03FFC0
0600E0
0600E0
0600E0
0C0070
0C0070
0C0070
180038
1C0078
FF01FE
ENDCHAR
STARTCHAR 01CE
ENCODING 462
SWIDTH 450 0
DWIDTH 18 0
BBX 16 29 2 0
BITMAP
6008
301C
3830
1C70
0EE0
07C0
07C0
0380
0000
0000
0000
03E0
1FF0
3878
7038
F038
C038
0038
0078
07F8
1C38
7038
6038
E038
E038
E078
F1B9
7F3F
3C18
ENDCHAR
STARTCHAR 01CF
ENCODING 463
SWIDTH 300 0
DWIDTH 12 0
BBX 12 34 0 0
BITMAP
8030
E060
70C0
3BC0
1F80
0F00
0E00
0000
0000
7FC0
1F00
0E00
0E00
0E00
0E00
0E00
0E00
0E00
0E00
0E00
0E00
0E00
0E00
0E00
0E00
0E00
0E00
0E00
0E00
0E00
0E00
0E00
1F00
7FC0
ENDCHAR
STARTCHAR 01D0
ENCODING 464
SWIDTH 275 0
DWIDTH 11 0
BBX 13 29 -1 0
BITMAP
4010
E038
3070
38E0
1DC0
0F80
0F80
0700
0000
0000
0000
0300
3F00
0F00
0700
0700
0700
0700
0700
0700
0700
0700
0700
0700
0700
0700
0700
0F00
3FE0
ENDCHAR
STARTCHAR 01D1
ENCODING 465
SWIDTH 600 0
DWIDTH 24 0
BBX 21 35 1 0
BITMAP
060080
070380
038700
01CE00
00FC00
00FC00
007800
003000
000000
000000
00FC00
03FF00
070780
0C03C0
1801E0
3800E0
700070
700070
600078
E00038
E00038
E00038
E00038
E00038
E00038
E00038
F00030
700070
700060
7800E0
3C00C0
1E0180
0F0700
07FE00
01F800
ENDCHAR
STARTCHAR 01D2
ENCODING 466
SWIDTH 500 0
DWIDTH 20 0
BBX 16 29 2 0
BITMAP
1004
380E
1C18
0E38
0770
03E0
03E0
01C0
0000
0000
0000
03E0
0FF8
1C3C
301E
700E
600F
E007
E007
E007
E007
E007
E007
F006
700E
780C
3E38
1FF0
07C0
ENDCHAR
STARTCHAR 01D3
ENCODING 467
SWIDTH 650 0
DWIDTH 26 0
BBX 24 34 1 0
BITMAP
030040
0181C0
00E380
00F700
007E00
003C00
001C00
000000
000000
FF81FF
3E007C
1C0038
1C0038
1C0038
1C0038
1C0038
1C0038
1C0038
1C0038
1C0038
1C0038
1C0038
1C0038
1C0038
1C0038
1C0038
1C0038
1C0070
0E0070
0E0070
0F00E0
07C1C0
03FF80
007E00
ENDCHAR
STARTCHAR 01D4
ENCODING 468
SWIDTH 525 0
DWIDTH 21 0
BBX 21 29 0 0
BITMAP
040180
0E0300
030700
038E00
01DC00
00FC00
007800
007000
000000
000000
000000
0C00C0
FC0FC0
1C01C0
1C01C0
1C01C0
1C01C0
1C01C0
1C01C0
1C01C0
1C01C0
1C01C0
1C01C0
1C01C0
1C03C0
1C07C0
1E1DC8
0FF1F0
07C0C0
ENDCHAR
STARTCHAR 01D5
ENCODING 469
SWIDTH 650 0
DWIDTH 26 0
BBX 24 38 1 0
BITMAP
01FFE0
03FFE0
03FFC0
000000
000000
000000
000000
0180C0
0381C0
0381C0
0381C0
010080
000000
FF81FF
3E007C
1C0038
1C0038
1C0038
1C0038
1C0038
1C0038
1C0038
1C0038
1C0038
1C0038
1C0038
1C0038
1C0038
1C0038
1C0038
1C0038
1C0070
0E0070
0E0070
0F00E0
07C1C0
03FF80
007E00
ENDCHAR
STARTCHAR 01D6
ENCODING 470
SWIDTH 525 0
DWIDTH 21 0
BBX 21 32 0 0
BITMAP
07FF80
0FFF80
000000
000000
000000
060300
070380
070380
060300
060300
000000
000000
000000
000000
0C00C0
FC0FC0
1C01C0
1C01C0
1C01C0
1C01C0
1C01C0
1C01C0
1C01C0
1C01C0
1C01C0
1C01C0
1C01C0
1C03C0
1C07C0
1E1DC8
0FF1F0
07C0C0
ENDCHAR
STARTCHAR 01D7
ENCODING 471
SWIDTH 650 0
DWIDTH 26 0
BBX 24 41 1 0
BITMAP
000100
0001C0
0003E0
0007C0
000F00
001E00
003800
006000
004000
000000
0180C0
0381C0
0381C0
0381C0
010080
000000
FF81FF
3E007C
1C0038
1C0038
1C0038
1C0038
1C0038
1C0038
1C0038
1C0038
1C0038
1C0038
1C0038
1C0038
1C0038
1C0038
1C0038
1C0038
1C0070
0E0070
0E0070
0F00E0
07C1C0
03FF80
007E00
ENDCHAR
STARTCHAR 01D8
ENCODING 472
SWIDTH 525 0
DWIDTH 21 0
BBX 21 36 0 0
BITMAP
000700
000F80
000E00
001E00
001C00
003800
003000
006000
004000
060300
070380
070380
060300
060300
000000
000000
000000
000000
0C00C0
FC0FC0
1C01C0
1C01C0
1C01C0
1C01C0
1C01C0
1C01C0
1C01C0
1C01C0
1C01C0
1C01C0
1C01C0
1C03C0
1C07C0
1E1DC8
0FF1F0
07C0C0
ENDCHAR
STARTCHAR 01D9
ENCODING 473
SWIDTH 650 0
DWIDTH 26 0
BBX 24 41 1 0
BITMAP
020040
0300C0
01C1C0
00E380
007F00
007E00
003C00
001800
000000
000000
0180C0
0381C0
0381C0
0381C0
010080
000000
FF81FF
3E007C
1C0038
1C0038
1C0038
1C0038
1C0038
1C0038
1C0038
1C0038
1C0038
1C0038
1C0038
1C0038
1C0038
1C0038
1C0038
1C0038
1C0070
0E0070
0E0070
0F00E0
07C1C0
03FF80
007E00
ENDCHAR
STARTCHAR 01DA
ENCODING 474
SWIDTH 525 0
DWIDTH 21 0
BBX 21 36 0 0
BITMAP
040180
0E0300
030700
038E00
01DC00
00FC00
007800
007000
000000
060300
070380
070380
060300
060300
000000
000000
000000
000000
0C00C0
FC0FC0
1C01C0
1C01C0
1C01C0
1C01C0
1C01C0
1C01C0
1C01C0
1C01C0
1C01C0
1C01C0
1C01C0
1C03C0
1C07C0
1E1DC8
0FF1F0
07C0C0
ENDCHAR
STARTCHAR 01DB
ENCODING 475
SWIDTH 650 0
DWIDTH 26 0
BBX 24 41 1 0
BITMAP
010000
018000
03C000
03E000
00F000
003C00
001E00
000700
000200
000000
0180C0
0381C0
0381C0
0381C0
010080
000000
FF81FF
3E007C
1C0038
1C0038
1C0038
1C0038
1C0038
1C0038
1C0038
1C0038
1C0038
1C0038
1C0038
1C0038
1C0038
1C0038
1C0038
1C0038
1C0070
0E0070
0E0070
0F00E0
07C1C0
03FF80
007E00
ENDCHAR
STARTCHAR 01DC
ENCODING 476
SWIDTH 525 0
DWIDTH 21 0
BBX 21 36 0 0
BITMAP
070000
078000
03C000
01C000
00E000
006000
003000
003000
001800
060300
070380
070380
060300
060300
000000
000000
000000
000000
0C00C0
FC0FC0
1C01C0
1C01C0
1C01C0
1C01C0
1C01C0
1C01C0
1C01C0
1C01C0
1C01C0
1C01C0
1C01C0
1C03C0
1C07C0
1E1DC8
0FF1F0
07C0C0
ENDCHAR
STARTCHAR 01DD
ENCODING 477
SWIDTH 450 0
DWIDTH 18 0
BBX 15 18 1 0
BITMAP
0FC0
3FF0
70F8
C03C
001C
001E
000E
000E
000E
3FFE
FFFE
E00E
E00C
E01C
F018
7870
3FE0
0FC0
ENDCHAR
STARTCHAR 01DE
ENCODING 478
SWIDTH 600 0
DWIDTH 24 0
BBX 23 38 0 0
BITMAP
03FFC0
03FFE0
07FFC0
000000
000000
000000
000000
0381C0
0381C0
0381C0
030180
030180
000000
000800
003800
003C00
003C00
006C00
006E00
006E00
00C600
00C700
00C700
018300
018380
018380
030180
03FFC0
03FFC0
0600E0
0600E0
0600E0
0C0070
0C0070
0C0070
180038
1C0078
FF01FE
ENDCHAR
STARTCHAR 01DF
ENCODING 479
SWIDTH 450 0
DWIDTH 18 0
BBX 16 32 2 0
BITMAP
7FFC
7FFC
0000
0000
0000
3018
3018
7038
7038
3018
0000
0000
0000
0000
03E0
1FF0
3878
7038
F038
C038
0038
0078
07F8
1C38
7038
6038
E038
E038
E078
F1B9
7F3F
3C18
ENDCHAR
STARTCHAR 01E0
ENCODING 480
SWIDTH 600 0
DWIDTH 24 0
BBX 23 38 0 0
BITMAP
03FFC0
03FFE0
07FFC0
000000
000000
000000
000000
003800
003800
003800
003000
003000
000000
000800
003800
003C00
003C00
006C00
006E00
006E00
00C600
00C700
00C700
018300
018380
018380
030180
03FFC0
03FFC0
0600E0
0600E0
0600E0
0C0070
0C0070
0C0070
180038
1C0078
FF01FE
ENDCHAR
STARTCHAR 01E1
ENCODING 481
SWIDTH 450 0
DWIDTH 18 0
BBX 16 32 2 0
BITMAP
7FFC
7FFC
0000
0000
0000
0300
0300
0700
0700
0300
0000
0000
0000
0000
03E0
1FF0
3878
7038
F038
C038
0038
0078
07F8
1C38
7038
6038
E038
E038
E078
F1B9
7F3F
3C18
ENDCHAR
STARTCHAR 01E2
ENCODING 482
SWIDTH 775 0
DWIDTH 31 0
BBX 30 31 0 0
BITMAP
000FFF80
000FFF00
00000000
00000000
00000000
00000000
01FFFFF0
003FFFF0
0019C030
0019C010
0039C010
0031C000
0071C000
0061C000
0061C000
00E1C000
00FFFFC0
01FFFFC0
01C1C080
0181C000
0381C000
0301C000
0701C000
0701C000
0601C000
0E01C000
0C01C004
1C01C00C
1C01C018
3C03FFF8
FF0FFFF8
ENDCHAR
STARTCHAR 01E3
ENCODING 483
SWIDTH 700 0
DWIDTH 28 0
BBX 24 25 2 0
BITMAP
01FFE0
03FFE0
000000
000000
000000
000000
000000
03E1F0
0FF3FC
38771E
703C0E
E03C07
F03807
C03807
01FFFF
0FFFFE
1E3800
783800
703800
E03800
E03C02
E05C03
F19F0E
7F0FF8
3C03E0
ENDCHAR
STARTCHAR 01E6
ENCODING 486
SWIDTH 575 0
DWIDTH 23 0
BBX 21 34 1 0
BITMAP
0600C0
030180
01C700
00EE00
007C00
007C00
003800
000000
000000
007F00
01FFC0
0703E0
0E00C0
1C0000
380000
300000
700000
700000
E00000
E00000
E00000
E00000
E00FF8
E001E0
E000E0
E000E0
7000E0
7000E0
7800E0
3C00E0
1E00E0
0F81C0
07FF80
01FC00
ENDCHAR
STARTCHAR 01E7
ENCODING 487
SWIDTH 500 0
DWIDTH 20 0
BBX 18 38 1 -9
BITMAP
100200
180E00
0C1C00
0E3800
077000
03F000
01E000
01C000
000000
000000
000000
03E0C0
0FFFC0
1C3F00
381C00
700E00
700E00
700E00
700E00
781C00
3C3800
1FF000
07C000
060000
0C0000
1C0000
1FE000
0FFE00
0C3F80
1803C0
7001C0
E001C0
E001C0
E00380
F00380
7C0F00
3FFC00
07F000
ENDCHAR
STARTCHAR 01E8
ENCODING 488
SWIDTH 575 0
DWIDTH 23 0
BBX 22 34 1 0
BITMAP
0C0180
060300
038E00
01DC00
00F800
00F800
007000
000000
000000
FF87F8
3E01C0
1C0380
1C0700
1C0E00
1C0C00
1C1800
1C3800
1C7000
1CE000
1DC000
1F8000
1FC000
1DE000
1CE000
1C7000
1C3800
1C3C00
1C1E00
1C0F00
1C0780
1C03C0
1C03E0
3E01FC
FF80F0
ENDCHAR
STARTCHAR 01E9
ENCODING 489
SWIDTH 500 0
DWIDTH 20 0
BBX 19 39 1 0
BITMAP
080300
1C0600
071C00
03B800
03F800
01F000
00E000
000000
000000
0C0000
FC0000
3C0000
1C0000
1C0000
1C0000
1C0000
1C0000
1C0000
1C0000
1C0000
1C0000
1C1FE0
1C0700
1C0E00
1C1C00
1C3000
1CE000
1DC000
1F8000
1DC000
1DE000
1CF000
1C7800
1C3800
1C1C00
1C1E00
1C0F00
3C0780
FF03E0
ENDCHAR
STARTCHAR 01EE
ENCODING 494
SWIDTH 525 0
DWIDTH 21 0
BBX 17 35 2 0
BITMAP
300400
180E00
0C1800
0E3800
077000
03E000
03C000
01C000
000000
000000
7FFF00
7FFE00
601E00
C03C00
C07800
80F000
00E000
01C000
03C000
07F800
0FFE00
1C1F00
000F00
000780
000780
000380
000380
000380
000380
000300
600700
F00E00
FC1C00
7FF800
0FC000
ENDCHAR
STARTCHAR 01EF
ENCODING 495
SWIDTH 450 0
DWIDTH 18 0
BBX 16 37 1 -9
BITMAP
200C
7018
1C38
0E70
07E0
07C0
0380
0000
0000
0000
3FFE
7FFE
601C
6038
4070
00F0
00E0
01C0
0380
0780
0F00
0FE0
1FF8
107C
001E
000F
000F
0007
0007
0007
0007
0006
200E
F01C
FC38
3FF0
0FC0
ENDCHAR
STARTCHAR 01F4
ENCODING 500
SWIDTH 575 0
DWIDTH 23 0
BBX 21 34 1 0
BITMAP
000180
0003C0
0007C0
000F00
003C00
007800
00E000
008000
000000
007F00
01FFC0
0703E0
0E00C0
1C0000
380000
300000
700000
700000
E00000
E00000
E00000
E00000
E00FF8
E001E0
E000E0
E000E0
7000E0
7000E0
7800E0
3C00E0
1E00E0
0F81C0
07FF80
01FC00
ENDCHAR
STARTCHAR 01F5
ENCODING 501
SWIDTH 500 0
DWIDTH 20 0
BBX 18 38 1 -9
BITMAP
001C00
001E00
003C00
007800
007000
00E000
00C000
018000
010000
000000
000000
03E0C0
0FFFC0
1C3F00
381C00
700E00
700E00
700E00
700E00
781C00
3C3800
1FF000
07C000
060000
0C0000
1C0000
1FE000
0FFE00
0C3F80
1803C0
7001C0
E001C0
E001C0
E00380
F00380
7C0F00
3FFC00
07F000
ENDCHAR
STARTCHAR 01F8
ENCODING 504
SWIDTH 650 0
DWIDTH 26 0
BBX 24 34 1 0
BITMAP
018000
03C000
07E000
01F000
007800
001C00
000E00
000200
000000
F801FF
3C007C
1E0038
1E0038
1F0038
1F8038
1D8038
1DC038
1CE038
1C6038
1C7038
1C3838
1C1C38
1C1C38
1C0E38
1C0738
1C0738
1C03B8
1C03F8
1C01F8
1C00F8
1C00F8
1C0078
3E0038
FF8018
ENDCHAR
STARTCHAR 01F9
ENCODING 505
SWIDTH 550 0
DWIDTH 22 0
BBX 21 29 1 0
BITMAP
070000
078000
038000
03C000
01C000
00E000
006000
003000
001800
000000
000000
0C0F00
FC3F80
3C63C0
1D81C0
1D01C0
1E01C0
1E01C0
1C01C0
1C01C0
1C01C0
1C01C0
1C01C0
1C01C0
1C01C0
1C01C0
1C01C0
3E03C0
FF8FF8
ENDCHAR
STARTCHAR 01FA
ENCODING 506
SWIDTH 600 0
DWIDTH 24 0
BBX 23 43 0 0
BITMAP
000100
0003C0
0007C0
000F80
001E00
003C00
007000
00C000
000000
003E00
007E00
00C700
00C300
00C300
00E600
00FC00
003000
000000
000800
003800
003C00
003C00
006C00
006E00
006E00
00C600
00C700
00C700
018300
018380
018380
030180
03FFC0
03FFC0
0600E0
0600E0
0600E0
0C0070
0C0070
0C0070
180038
1C0078
FF01FE
ENDCHAR
STARTCHAR 01FB
ENCODING 507
SWIDTH 450 0
DWIDTH 18 0
BBX 16 38 2 0
BITMAP
0020
0078
0078
00F0
00E0
01C0
0180
0300
0200
0400
03C0
07E0
0C60
0C60
1860
0C60
0FC0
0780
0000
0000
03E0
1FF0
3878
7038
F038
C038
0038
0078
07F8
1C38
7038
6038
E038
E038
E078
F1B9
7F3F
3C18
ENDCHAR
STARTCHAR 01FC
ENCODING 508
SWIDTH 775 0
DWIDTH 31 0
BBX 30 34 0 0
BITMAP
00000600
00000F00
00001F80
00003E00
00007800
0000E000
0001C000
00010000
00000000
01FFFFF0
003FFFF0
0019C030
0019C010
0039C010
0031C000
0071C000
0061C000
0061C000
00E1C000
00FFFFC0
01FFFFC0
01C1C080
0181C000
0381C000
0301C000
0701C000
0701C000
0601C000
0E01C000
0C01C004
1C01C00C
1C01C018
3C03FFF8
FF0FFFF8
ENDCHAR
STARTCHAR 01FD
ENCODING 509
SWIDTH 700 0
DWIDTH 28 0
BBX 24 29 2 0
BITMAP
0001C0
0003C0
000380
000700
000700
000E00
001C00
001800
003000
000000
000000
03E1F0
0FF3FC
38771E
703C0E
E03C07
F03807
C03807
01FFFF
0FFFFE
1E3800
783800
703800
E03800
E03C02
E05C03
F19F0E
7F0FF8
3C03E0
ENDCHAR
STARTCHAR 01FE
ENCODING 510
SWIDTH 600 0
DWIDTH 24 0
BBX 21 35 1 -1
BITMAP
000300
000780
000F80
001E00
003C00
007000
00C000
018000
000000
00FC38
03FF70
0707E0
0C03E0
1801E0
3803F0
3007F0
700770
600E78
E01C38
E01C38
E03838
E07038
E07038
E0E038
E1C038
F38030
738070
770060
7E00E0
3C00C0
3E0180
3F0700
77FE00
E1F800
800000
ENDCHAR
STARTCHAR 01FF
ENCODING 511
SWIDTH 500 0
DWIDTH 20 0
BBX 16 30 2 -1
BITMAP
001C
003C
0038
0070
00E0
00C0
01C0
0180
0300
0000
0001
03E3
0FFE
1C3C
301E
701E
603F
E067
E0C7
E087
E187
E307
E607
FC06
780E
780C
3C38
7FF0
C7C0
8000
ENDCHAR
STARTCHAR 021E
ENCODING 542
SWIDTH 650 0
DWIDTH 26 0
BBX 24 34 1 0
BITMAP
0300C0
038180
01C380
00EF00
007E00
003C00
001800
000000
000000
FF81FF
3E007C
1C0038
1C0038
1C0038
1C0038
1C0038
1C0038
1C0038
1C0038
1C0038
1FFFF8
1FFFF8
1C0038
1C0038
1C0038
1C0038
1C0038
1C0038
1C0038
1C0038
1C0038
1C0038
3E007C
FF81FF
ENDCHAR
STARTCHAR 021F
ENCODING 543
SWIDTH 550 0
DWIDTH 22 0
BBX 21 39 1 0
BITMAP
0C0100
060700
030E00
03DC00
01F800
00F000
007000
000000
000000
0C0000
FC0000
7C0000
1C0000
1C0000
1C0000
1C0000
1C0000
1C0000
1C0000
1C0000
1C0000
1C1F00
1C3F80
1CE3C0
1D81C0
1F01C0
1E01C0
1E01C0
1C01C0
1C01C0
1C01C0
1C01C0
1C01C0
1C01C0
1C01C0
1C01C0
1C01C0
3E03C0
FF8FF8
ENDCHAR
STARTCHAR 0226
ENCODING 550
SWIDTH 600 0
DWIDTH 24 0
BBX 23 31 0 0
BITMAP
003800
003800
003800
003000
003000
000000
000800
003800
003C00
003C00
006C00
006E00
006E00
00C600
00C700
00C700
018300
018380
018380
030180
03FFC0
03FFC0
0600E0
0600E0
0600E0
0C0070
0C0070
0C0070
180038
1C0078
FF01FE
ENDCHAR
STARTCHAR 0227
ENCODING 551
SWIDTH 450 0
DWIDTH 18 0
BBX 16 27 2 0
BITMAP
0300
0300
0700
0700
0300
0000
0000
0000
0000
03E0
1FF0
3878
7038
F038
C038
0038
0078
07F8
1C38
7038
6038
E038
E038
E078
F1B9
7F3F
3C18
ENDCHAR
STARTCHAR 0228
ENCODING 552
SWIDTH 500 0
DWIDTH 20 0
BBX 17 34 1 -9
BITMAP
FFFF00
3FFF00
1C0300
1C0100
1C0100
1C0000
1C0000
1C0000
1C0000
1C0000
1FFC00
1FFC00
1C0800
1C0000
1C0000
1C0000
1C0000
1C0000
1C0000
1C0000
1C0080
1C0080
1C0180
3FFF80
FFFF80
00C000
008000
00C000
01F000
00F000
007000
006000
01C000
030000
ENDCHAR
STARTCHAR 0229
ENCODING 553
SWIDTH 475 0
DWIDTH 19 0
BBX 15 27 2 -9
BITMAP
03E0
0FF8
1C3C
381C
700C
600E
E00E
FFFE
FFFC
E000
E000
E000
F000
7004
7806
3C18
1FF0
07E0
0180
0180
01C0
03E0
00E0
00E0
01C0
0380
0E00
ENDCHAR
STARTCHAR 022A
ENCODING 554
SWIDTH 600 0
DWIDTH 24 0
BBX 21 38 1 0
BITMAP
07FF80
07FFC0
07FF80
000000
000000
000000
000000
030180
070380
070380
070380
020100
000000
00FC00
03FF00
070780
0C03C0
1801E0
3800E0
700070
700070
600078
E00038
E00038
E00038
E00038
E00038
E00038
E00038
F00030
700070
700060
7800E0
3C00C0
1E0180
0F0700
07FE00
01F800
ENDCHAR
STARTCHAR 022B
ENCODING 555
SWIDTH 500 0
DWIDTH 20 0
BBX 16 32 2 0
BITMAP
1FFE
3FFE
0000
0000
0000
180C
180C
1C0E
180C
180C
0000
0000
0000
0000
03E0
0FF8
1C3C
301E
700E
600F
E007
E007
E007
E007
E007
E007
F006
700E
780C
3E38
1FF0
07C0
ENDCHAR
STARTCHAR 022C
ENCODING 556
SWIDTH 600 0
DWIDTH 24 0
BBX 21 38 1 0
BITMAP
07FF80
07FFC0
07FF80
000000
000000
000000
01E080
03F0C0
07F980
063F00
0C0C00
000000
000000
00FC00
03FF00
070780
0C03C0
1801E0
3800E0
700070
700070
600078
E00038
E00038
E00038
E00038
E00038
E00038
E00038
F00030
700070
700060
7800E0
3C00C0
1E0180
0F0700
07FE00
01F800
ENDCHAR
STARTCHAR 022D
ENCODING 557
SWIDTH 500 0
DWIDTH 20 0
BBX 16 32 2 0
BITMAP
1FFE
3FFE
0000
0000
0000
0702
0F86
1FCC
31F8
2070
0000
0000
0000
0000
03E0
0FF8
1C3C
301E
700E
600F
E007
E007
E007
E007
E007
E007
F006
700E
780C
3E38
1FF0
07C0
ENDCHAR
STARTCHAR 022E
ENCODING 558
SWIDTH 600 0
DWIDTH 24 0
BBX 21 31 1 0
BITMAP
003000
007000
007000
007000
002000
000000
00FC00
03FF00
070780
0C03C0
1801E0
3800E0
700070
700070
600078
E00038
E00038
E00038
E00038
E00038
E00038
E00038
F00030
700070
700060
7800E0
3C00C0
1E0180
0F0700
07FE00
01F800
ENDCHAR
STARTCHAR 022F
ENCODING 559
SWIDTH 500 0
DWIDTH 20 0
BBX 16 27 2 0
BITMAP
0180
0180
01C0
0180
0180
0000
0000
0000
0000
03E0
0FF8
1C3C
301E
700E
600F
E007
E007
E007
E007
E007
E007
F006
700E
780C
3E38
1FF0
07C0
ENDCHAR
STARTCHAR 0230
ENCODING 560
SWIDTH 600 0
DWIDTH 24 0
BBX 21 38 1 0
BITMAP
07FF80
07FFC0
07FF80
000000
000000
000000
000000
003000
007000
007000
007000
002000
000000
00FC00
03FF00
070780
0C03C0
1801E0
3800E0
700070
700070
600078
E00038
E00038
E00038
E00038
E00038
E00038
E00038
F00030
700070
700060
7800E0
3C00C0
1E0180
0F0700
07FE00
01F800
ENDCHAR
STARTCHAR 0231
ENCODING 561
SWIDTH 500 0
DWIDTH 20 0
BBX 16 32 2 0
BITMAP
1FFE
3FFE
0000
0000
0000
0180
0180
01C0
0180
0180
0000
0000
0000
0000
03E0
0FF8
1C3C
301E
700E
600F
E007
E007
E007
E007
E007
E007
F006
700E
780C
3E38
1FF0
07C0
ENDCHAR
STARTCHAR 0232
ENCODING 562
SWIDTH 600 0
DWIDTH 24 0
BBX 23 31 0 0
BITMAP
03FFE0
07FFC0
000000
000000
000000
000000
F801FE
3C0078
1E0060
0E00E0
0700C0
0781C0
038180
03C380
01C300
00E700
00EE00
007E00
007C00
003800
003800
003800
003800
003800
003800
003800
003800
003800
003800
007C00
01FF00
ENDCHAR
STARTCHAR 0233
ENCODING 563
SWIDTH 500 0
DWIDTH 20 0
BBX 20 34 -1 -9
BITMAP
07FFC0
07FFC0
000000
000000
000000
000000
000000
7F83F0
1E00E0
0E00C0
0E00C0
070180
070180
070300
038300
038300
01C600
01C600
01C600
00EC00
00EC00
007800
007800
007800
003000
003000
006000
006000
00E000
01C000
438000
7F0000
FE0000
7C0000
ENDCHAR
STARTCHAR 0237
ENCODING 567
SWIDTH 250 0
DWIDTH 10 0
BBX 11 27 -4 -9
BITMAP
0060
07E0
01E0
00E0
00E0
00E0
00E0
00E0
00E0
00E0
00E0
00E0
00E0
00E0
00E0
00E0
00E0
00E0
00E0
00E0
00C0
00C0
01C0
0180
2300
FE00
F800
ENDCHAR
STARTCHAR 023D
ENCODING 573
SWIDTH 475 0
DWIDTH 19 0
BBX 18 25 1 0
BITMAP
FF8000
3E0000
1C0000
1C0000
1C0000
1C0000
1C0000
1C0000
1C0000
1C0000
1C0000
1C0000
1C0000
FFE000
FFE000
1C0000
1C0000
1C0000
1C0000
1C0000
1C00C0
1C0080
1E0180
1FFF80
FFFF80
ENDCHAR
STARTCHAR 0241
ENCODING 577
SWIDTH 450 0
DWIDTH 18 0
BBX 16 25 1 0
BITMAP
03F0
0FFC
383E
700F
6007
E007
E007
E007
0006
000E
001C
0038
0070
00E0
00C0
01C0
01C0
01C0
01C0
01C0
01C0
01C0
01C0
03E0
0FF8
ENDCHAR
STARTCHAR 0242
ENCODING 578
SWIDTH 400 0
DWIDTH 16 0
BBX 13 18 1 0
BITMAP
07C0
1FF0
70F0
6078
E038
E038
E038
0070
00E0
0180
0380
0700
0700
0700
0700
0700
0F80
3FE0
ENDCHAR
STARTCHAR 0244
ENCODING 580
SWIDTH 650 0
DWIDTH 26 0
BBX 24 25 1 0
BITMAP
FF81FF
3E007C
1C0038
1C0038
1C0038
1C0038
1C0038
1C0038
1C0038
1C0038
1C0038
FFFFFF
FFFFFF
1C0038
1C0038
1C0038
1C0038
1C0038
1C0038
1E0070
0E0070
0F00E0
07C1C0
03FF80
007E00
ENDCHAR
STARTCHAR 0245
ENCODING 581
SWIDTH 650 0
DWIDTH 26 0
BBX 25 25 0 0
BITMAP
000C0000
001C0000
001E0000
003E0000
003F0000
00370000
00770000
00678000
00E38000
00E38000
00C1C000
01C1C000
0181E000
0180E000
0380E000
0300F000
03007000
07007000
06003800
06003800
0E003C00
0C001C00
0C001C00
1C001E00
FF807F80
ENDCHAR
STARTCHAR 024A
ENCODING 586
SWIDTH 600 0
DWIDTH 24 0
BBX 27 34 1 -9
BITMAP
003E1000
01FFB800
0383F000
0600F000
0C007000
18007000
38007000
70007000
70007000
60007000
E0007000
E0007000
E0007000
E0007000
E0007000
E0007000
F0007000
70007000
70007000
7800F000
3801F000
1C077000
0F0E7000
07FC7000
03F07000
00007000
00007000
00007000
00007060
000070E0
000070C0
000079C0
00003F80
00001E00
ENDCHAR
STARTCHAR 024B
ENCODING 587
SWIDTH 500 0
DWIDTH 20 0
BBX 23 27 2 -9
BITMAP
01F180
07FB00
1C1F00
380F00
300700
700700
600700
E00700
E00700
E00700
E00700
E00700
F00700
700F00
781F00
3C3700
1FE700
078700
000700
000700
000700
000706
00070E
00070C
00079C
0003F8
0001E0
ENDCHAR
STARTCHAR 0251
ENCODING 593
SWIDTH 500 0
DWIDTH 20 0
BBX 18 18 2 0
BITMAP
03E200
0FF600
1C3E00
381E00
700E00
700E00
E00E00
E00E00
E00E00
E00E00
E00E00
E00E00
F00E00
700E00
781E00
3C6E40
1FCF80
0F8600
ENDCHAR
STARTCHAR 0253
ENCODING 595
SWIDTH 500 0
DWIDTH 20 0
BBX 15 30 3 0
BITMAP
01F0
07FC
0C7C
1818
3000
7000
7000
6000
E000
E000
E000
E000
E1E0
E3F8
EC78
F83C
F01C
E01E
E00E
E00E
E00E
E00E
E00E
E00C
E00C
E01C
F018
FC30
3FE0
0F80
ENDCHAR
STARTCHAR 0254
ENCODING 596
SWIDTH 450 0
DWIDTH 18 0
BBX 15 18 1 0
BITMAP
0FC0
3FF0
70F8
C03C
001C
001E
000E
000E
000E
300E
F00E
E00E
E01C
E01C
F038
7870
3FE0
0F80
ENDCHAR
STARTCHAR 0256
ENCODING 598
SWIDTH 500 0
DWIDTH 20 0
BBX 23 39 2 -9
BITMAP
000600
007E00
001E00
000E00
000E00
000E00
000E00
000E00
000E00
000E00
000E00
000E00
03EE00
0FFE00
1C3E00
381E00
700E00
700E00
E00E00
E00E00
E00E00
E00E00
E00E00
E00E00
F00E00
701E00
783E00
3C6E00
1FCE00
0F0E00
000E00
000E00
000E00
000E06
000E1E
000E1C
000F1C
0007F0
0003E0
ENDCHAR
STARTCHAR 0257
ENCODING 599
SWIDTH 525 0
DWIDTH 21 0
BBX 24 30 2 0
BITMAP
00003C
0000FE
00018F
000384
000300
000700
000700
000700
000700
000700
000700
000700
03F700
0FFF00
1C1F00
380F00
300700
700700
600700
E00700
E00700
E00700
E00700
E00700
F00700
700F00
781F00
3C37E0
1FE7C0
078300
ENDCHAR
STARTCHAR 0259
ENCODING 601
SWIDTH 450 0
DWIDTH 18 0
BBX 15 18 1 0
BITMAP
0FC0
3FF0
70F8
C03C
001C
001E
000E
000E
000E
3FFE
FFFE
E00E
E00C
E01C
F018
7870
3FE0
0FC0
ENDCHAR
STARTCHAR 025B
ENCODING 603
SWIDTH 425 0
DWIDTH 17 0
BBX 14 18 2 0
BITMAP
07E0
1FF8
7078
6018
E010
E000
F800
7F80
3F80
3C00
7000
E000
E000
E004
F00C
7838
7FF0
1FC0
ENDCHAR
STARTCHAR 0263
ENCODING 611
SWIDTH 500 0
DWIDTH 20 0
BBX 20 27 0 -9
BITMAP
FF07F0
3C01C0
1C01C0
1C0180
0E0300
0E0300
070600
078E00
038C00
03DC00
01D800
01F800
00F000
00F000
007000
00F800
00F800
01BC00
039C00
039E00
030E00
070E00
070E00
070E00
079C00
03F800
01F000
ENDCHAR
STARTCHAR 0268
ENCODING 616
SWIDTH 275 0
DWIDTH 11 0
BBX 9 27 1 0
BITMAP
1C00
3C00
3C00
3C00
1800
0000
0000
0000
0000
0C00
FC00
3C00
1C00
1C00
1C00
1C00
1C00
FF80
FF80
1C00
1C00
1C00
1C00
1C00
1C00
3E00
FF80
ENDCHAR
STARTCHAR 0269
ENCODING 617
SWIDTH 275 0
DWIDTH 11 0
BBX 11 18 1 0
BITMAP
0C00
FC00
3C00
1C00
1C00
1C00
1C00
1C00
1C00
1C00
1C00
1C00
1C00
1C00
1C20
1C40
1F80
0E00
ENDCHAR
STARTCHAR 026B
ENCODING 619
SWIDTH 325 0
DWIDTH 13 0
BBX 13 30 0 0
BITMAP
0300
1F00
3F00
0700
0700
0700
0700
0700
0700
0700
0700
0700
0700
1F08
7F10
47F0
87C0
0700
0700
0700
0700
0700
0700
0700
0700
0700
0700
0700
0780
3FE0
ENDCHAR
STARTCHAR 0272
ENCODING 626
SWIDTH 550 0
DWIDTH 22 0
BBX 26 27 -4 -9
BITMAP
00607800
07E1FC00
01E71E00
00EC0E00
00E80E00
00F00E00
00F00E00
00E00E00
00E00E00
00E00E00
00E00E00
00E00E00
00E00E00
00E00E00
00E00E00
00E00E00
00E01E00
00E07FC0
00E00000
00E00000
00C00000
00C00000
01C00000
01800000
7F000000
FE000000
78000000
ENDCHAR
STARTCHAR 0275
ENCODING 629
SWIDTH 500 0
DWIDTH 20 0
BBX 16 18 2 0
BITMAP
03E0
0FF8
1C3C
301E
700E
600F
E007
E007
FFFF
FFFF
E007
E007
F006
700E
780C
3C38
1FF0
07C0
ENDCHAR
STARTCHAR 0283
ENCODING 643
SWIDTH 225 0
DWIDTH 9 0
BBX 19 39 -6 -9
BITMAP
0007C0
001FE0
0031C0
006080
006000
006000
00E000
00E000
00E000
00E000
00E000
00E000
00E000
00E000
00F000
00F000
007000
007000
007000
007000
007000
007000
007800
007800
003800
003800
003800
003800
003800
003800
003800
003800
003000
003000
007000
006000
30C000
7F8000
BE0000
ENDCHAR
STARTCHAR 0289
ENCODING 649
SWIDTH 525 0
DWIDTH 21 0
BBX 21 18 0 0
BITMAP
3C03C0
FC0FC0
1C01C0
1C01C0
1C01C0
1C01C0
1C01C0
1C01C0
7FFFF0
FFFFF8
1C01C0
1C01C0
1C01C0
1C03C0
1C07C0
1E1DC8
0FF1F0
07C0C0
ENDCHAR
STARTCHAR 028A
ENCODING 650
SWIDTH 475 0
DWIDTH 19 0
BBX 17 18 1 0
BITMAP
FE7F80
3E7C00
1C3800
381C00
700C00
700E00
600F00
E00700
E00700
E00700
E00700
E00700
F00600
700E00
780C00
3E3800
1FF000
07C000
ENDCHAR
STARTCHAR 028C
ENCODING 652
SWIDTH 500 0
DWIDTH 20 0
BBX 19 18 0 0
BITMAP
006000
00E000
00F000
01F000
01F800
01B800
033800
031C00
061C00
061E00
060E00
0C0E00
0C0700
1C0700
180780
180380
3803C0
FE0FE0
ENDCHAR
STARTCHAR 0292
ENCODING 658
SWIDTH 450 0
DWIDTH 18 0
BBX 16 27 1 -9
BITMAP
3FFE
7FFE
601C
6038
4070
00F0
00E0
01C0
0380
0780
0F00
0FE0
1FF8
107C
001E
000F
000F
0007
0007
0007
0007
0006
200E
F01C
FC38
3FF0
0FC0
ENDCHAR
STARTCHAR 0294
ENCODING 660
SWIDTH 450 0
DWIDTH 18 0
BBX 16 30 1 0
BITMAP
03F0
0FFC
3C3E
701E
700F
E007
E007
E007
0007
000E
000E
001C
0038
0070
0060
00C0
01C0
0180
0380
0380
0380
0380
0380
0380
0380
0380
0380
0380
07C0
1FF8
ENDCHAR
STARTCHAR 02A0
ENCODING 672
SWIDTH 525 0
DWIDTH 21 0
BBX 24 39 2 -9
BITMAP
00003C
0000FE
00018F
000384
000300
000700
000700
000700
000700
000700
000700
000700
01F700
07FF00
1C1F00
380F00
300700
700700
600700
E00700
E00700
E00700
E00700
E00700
F00700
700F00
781F00
3C3700
1FE700
078700
000700
000700
000700
000700
000700
000700
000700
000700
003FE0
ENDCHAR
STARTCHAR 02BC
ENCODING 700
SWIDTH 225 0
DWIDTH 9 0
BBX 6 9 1 21
BITMAP
10
F8
FC
1C
1C
1C
18
30
60
ENDCHAR
STARTCHAR 02C0
ENCODING 704
SWIDTH 325 0
DWIDTH 13 0
BBX 12 15 0 16
BITMAP
0F80
3FE0
70F0
E070
E070
0070
0060
00E0
01C0
0380
0300
0700
0700
0700
0700
ENDCHAR
STARTCHAR 02C6
ENCODING 710
SWIDTH 350 0
DWIDTH 14 0
BBX 12 9 1 20
BITMAP
0700
0F00
1F80
1F80
39C0
30E0
6060
C030
8010
ENDCHAR
STARTCHAR 02C7
ENCODING 711
SWIDTH 350 0
DWIDTH 14 0
BBX 12 8 1 21
BITMAP
8010
E030
7060
38E0
1DC0
1F80
0F00
0700
ENDCHAR
STARTCHAR 02C9
ENCODING 713
SWIDTH 500 0
DWIDTH 20 0
BBX 13 2 3 23
BITMAP
7FF8
FFF8
ENDCHAR
STARTCHAR 02CA
ENCODING 714
SWIDTH 200 0
DWIDTH 8 0
BBX 8 9 0 20
BITMAP
0E
0F
1E
1C
38
30
60
40
C0
ENDCHAR
STARTCHAR 02CB
ENCODING 715
SWIDTH 200 0
DWIDTH 8 0
BBX 8 9 0 20
BITMAP
F0
F0
78
38
1C
0C
06
02
03
ENDCHAR
STARTCHAR 02CD
ENCODING 717
SWIDTH 500 0
DWIDTH 20 0
BBX 13 2 3 -4
BITMAP
7FF8
FFF8
ENDCHAR
STARTCHAR 02D7
ENCODING 727
SWIDTH 325 0
DWIDTH 13 0
BBX 11 2 1 9
BITMAP
7FE0
FFE0
ENDCHAR
STARTCHAR 02D8
ENCODING 728
SWIDTH 350 0
DWIDTH 14 0
BBX 12 6 1 21
BITMAP
8010
C010
4030
70E0
3FC0
0F80
ENDCHAR
STARTCHAR 02D9
ENCODING 729
SWIDTH 200 0
DWIDTH 8 0
BBX 3 5 2 22
BITMAP
60
E0
E0
E0
C0
ENDCHAR
STARTCHAR 02DA
ENCODING 730
SWIDTH 250 0
DWIDTH 10 0
BBX 8 8 1 20
BITMAP
1C
7E
67
C3
C3
E6
FE
78
ENDCHAR
STARTCHAR 02DB
ENCODING 731
SWIDTH 250 0
DWIDTH 10 0
BBX 8 10 2 -9
BITMAP
02
0C
18
30
60
E0
E0
E3
FE
78
ENDCHAR
STARTCHAR 02DC
ENCODING 732
SWIDTH 400 0
DWIDTH 16 0
BBX 14 5 1 22
BITMAP
1C0C
3F08
7F98
63F0
C1E0
ENDCHAR
STARTCHAR 02DD
ENCODING 733
SWIDTH 375 0
DWIDTH 15 0
BBX 11 9 2 20
BITMAP
18E0
3CE0
38E0
31C0
7180
6380
C300
C200
8600
ENDCHAR
STARTCHAR 0300
ENCODING 768
SWIDTH 0 0
DWIDTH 0 0
BBX 8 9 -14 20
BITMAP
E0
F0
70
38
1C
0C
0E
06
03
ENDCHAR
STARTCHAR 0301
ENCODING 769
SWIDTH 0 0
DWIDTH 0 0
BBX 8 9 -13 20
BITMAP
07
0F
0E
1C
18
38
70
60
C0
ENDCHAR
STARTCHAR 0302
ENCODING 770
SWIDTH 0 0
DWIDTH 0 0
BBX 12 9 -16 20
BITMAP
0600
0F00
1F80
1F80
39C0
70E0
6060
C030
8010
ENDCHAR
STARTCHAR 0303
ENCODING 771
SWIDTH 0 0
DWIDTH 0 0
BBX 14 5 -17 22
BITMAP
1C0C
3F08
7F98
63F0
C1E0
ENDCHAR
STARTCHAR 0304
ENCODING 772
SWIDTH 0 0
DWIDTH 0 0
BBX 14 2 -17 23
BITMAP
7FFC
FFF8
ENDCHAR
STARTCHAR 0306
ENCODING 774
SWIDTH 0 0
DWIDTH 0 0
BBX 12 6 -16 21
BITMAP
8010
8030
C020
70E0
3FC0
0F00
ENDCHAR
STARTCHAR 0307
ENCODING 775
SWIDTH 0 0
DWIDTH 0 0
BBX 3 5 -12 22
BITMAP
60
E0
E0
E0
C0
ENDCHAR
STARTCHAR 0308
ENCODING 776
SWIDTH 0 0
DWIDTH 0 0
BBX 12 5 -16 22
BITMAP
6030
E070
E070
E070
C060
ENDCHAR
STARTCHAR 0309
ENCODING 777
SWIDTH 0 0
DWIDTH 0 0
BBX 7 7 -14 21
BITMAP
1C
7E
46
C4
18
30
18
ENDCHAR
STARTCHAR 030A
ENCODING 778
SWIDTH 0 0
DWIDTH 0 0
BBX 8 8 -14 20
BITMAP
1C
7E
67
C3
C3
E6
FE
78
ENDCHAR
STARTCHAR 030B
ENCODING 779
SWIDTH 0 0
DWIDTH 0 0
BBX 12 9 -14 20
BITMAP
1C60
1CF0
38E0
38C0
31C0
6180
6300
C300
8200
ENDCHAR
STARTCHAR 030C
ENCODING 780
SWIDTH 0 0
DWIDTH 0 0
BBX 12 8 -16 21
BITMAP
8010
C030
6060
30C0
3FC0
1F80
0F00
0600
ENDCHAR
STARTCHAR 031B
ENCODING 795
SWIDTH 25 0
DWIDTH 1 0
BBX 7 8 -6 14
BITMAP
04
1E
0E
0E
1C
38
60
80
ENDCHAR
STARTCHAR 0323
ENCODING 803
SWIDTH 0 0
DWIDTH 0 0
BBX 3 5 -12 -8
BITMAP
60
E0
E0
E0
C0
ENDCHAR
STARTCHAR 0327
ENCODING 807
SWIDTH 0 0
DWIDTH 0 0
BBX 7 9 -14 -9
BITMAP
18
10
38
3C
3E
0E
0C
38
E0
ENDCHAR
STARTCHAR 0328
ENCODING 808
SWIDTH 0 0
DWIDTH 0 0
BBX 8 10 -14 -9
BITMAP
02
0C
18
30
60
E0
E0
E3
FE
78
ENDCHAR
STARTCHAR 0331
ENCODING 817
SWIDTH 0 0
DWIDTH 0 0
BBX 14 2 -17 -6
BITMAP
7FFC
FFF8
ENDCHAR
STARTCHAR 033F
ENCODING 831
SWIDTH 0 0
DWIDTH 0 0
BBX 21 7 -20 23
BITMAP
FFFFF8
FFFFF8
000000
000000
000000
FFFFF8
FFFFF8
ENDCHAR
STARTCHAR 035E
ENCODING 862
SWIDTH 0 0
DWIDTH 0 0
BBX 26 2 -13 32
BITMAP
7FFFFFC0
FFFFFF80
ENDCHAR
STARTCHAR 035F
ENCODING 863
SWIDTH 0 0
DWIDTH 0 0
BBX 26 2 -13 -14
BITMAP
7FFFFFC0
FFFFFF80
ENDCHAR
STARTCHAR 03A0
ENCODING 928
SWIDTH 625 0
DWIDTH 25 0
BBX 23 25 1 0
BITMAP
FFFFFE
3FFFF8
1E00F0
1C0070
1C0070
1C0070
1C0070
1C0070
1C0070
1C0070
1C0070
1C0070
1C0070
1C0070
1C0070
1C0070
1C0070
1C0070
1C0070
1C0070
1C0070
1C0070
1C0070
3E00F8
FF83FE
ENDCHAR
STARTCHAR 03A9
ENCODING 937
SWIDTH 625 0
DWIDTH 25 0
BBX 22 25 1 0
BITMAP
007E00
03FFC0
0783E0
0E00F0
1C0078
3C0038
380038
78001C
70001C
70001C
70001C
70001C
70001C
70001C
700038
380038
380030
1C0070
0C00E0
0E00C0
470184
43830C
61C60C
FFC7FC
FFC7F8
ENDCHAR
STARTCHAR 03C0
ENCODING 960
SWIDTH 525 0
DWIDTH 21 0
BBX 19 18 1 0
BITMAP
1FFFE0
7FFFC0
FFFF80
860C00
060C00
061C00
061C00
061C00
0E1C00
0E1C00
0E1C00
0E1C00
0E1C00
0E1C00
1E1C00
1E1E20
3E0FE0
300780
ENDCHAR
STARTCHAR 1E02
ENCODING 7682
SWIDTH 550 0
DWIDTH 22 0
BBX 19 31 1 0
BITMAP
00C000
01C000
01C000
01C000
008000
000000
1FF000
FFFE00
1C1F00
1C0780
1C0380
1C0380
1C0380
1C0380
1C0700
1C0600
1C1C00
1FFE00
1FFF00
1C0F80
1C03C0
1C01E0
1C00E0
1C00E0
1C00E0
1C00E0
1C01E0
1C01C0
1C0780
3FFF00
FFFC00
ENDCHAR
STARTCHAR 1E03
ENCODING 7683
SWIDTH 500 0
DWIDTH 20 0
BBX 18 30 0 0
BITMAP
0C0000
7C0000
BC0000
1C3000
1C3800
1C3800
1C3000
1C3000
1C0000
1C0000
1C0000
1C0000
1C3C00
1CFF00
1D8F00
1F0780
1E0380
1C03C0
1C01C0
1C01C0
1C01C0
1C01C0
1C01C0
1C0180
1C0180
1C0380
1E0300
1F8600
07FC00
01F000
ENDCHAR
STARTCHAR 1E04
ENCODING 7684
SWIDTH 550 0
DWIDTH 22 0
BBX 19 33 1 -8
BITMAP
1FF000
FFFE00
1C1F00
1C0780
1C0380
1C0380
1C0380
1C0380
1C0700
1C0600
1C1C00
1FFE00
1FFF00
1C0F80
1C03C0
1C01E0
1C00E0
1C00E0
1C00E0
1C00E0
1C01E0
1C01C0
1C0780
3FFF00
FFFC00
000000
000000
000000
00C000
00C000
01C000
01C000
00C000
ENDCHAR
STARTCHAR 1E05
ENCODING 7685
SWIDTH 500 0
DWIDTH 20 0
BBX 18 38 0 -8
BITMAP
0C0000
7C0000
BC0000
1C0000
1C0000
1C0000
1C0000
1C0000
1C0000
1C0000
1C0000
1C0000
1C3C00
1CFF00
1D8F00
1F0780
1E0380
1C03C0
1C01C0
1C01C0
1C01C0
1C01C0
1C01C0
1C0180
1C0180
1C0380
1E0300
1F8600
07FC00
01F000
000000
000000
000000
00C000
00C000
01C000
01C000
00C000
ENDCHAR
STARTCHAR 1E06
ENCODING 7686
SWIDTH 550 0
DWIDTH 22 0
BBX 19 31 1 -6
BITMAP
1FF000
FFFE00
1C1F00
1C0780
1C0380
1C0380
1C0380
1C0380
1C0700
1C0600
1C1C00
1FFE00
1FFF00
1C0F80
1C03C0
1C01E0
1C00E0
1C00E0
1C00E0
1C00E0
1C01E0
1C01C0
1C0780
3FFF00
FFFC00
000000
000000
000000
000000
1FFF00
1FFE00
ENDCHAR
STARTCHAR 1E07
ENCODING 7687
SWIDTH 500 0
DWIDTH 20 0
BBX 18 36 0 -6
BITMAP
0C0000
7C0000
BC0000
1C0000
1C0000
1C0000
1C0000
1C0000
1C0000
1C0000
1C0000
1C0000
1C3C00
1CFF00
1D8F00
1F0780
1E0380
1C03C0
1C01C0
1C01C0
1C01C0
1C01C0
1C01C0
1C0180
1C0180
1C0380
1E0300
1F8600
07FC00
01F000
000000
000000
000000
000000
1FFF00
1FFE00
ENDCHAR
STARTCHAR 1E08
ENCODING 7688
SWIDTH 525 0
DWIDTH 21 0
BBX 18 43 1 -9
BITMAP
000300
000780
000FC0
001E00
003800
00E000
00C000
000000
000000
007E00
03FFC0
0707C0
0E0180
1C0000
380000
300000
700000
700000
600000
E00000
E00000
E00000
E00000
E00000
E00000
E00000
F00000
700000
780000
380040
3C00C0
1E0380
0FFE00
07FC00
01F000
004000
006000
00F000
007800
003800
003000
00E000
038000
ENDCHAR
STARTCHAR 1E09
ENCODING 7689
SWIDTH 425 0
DWIDTH 17 0
BBX 15 38 2 -9
BITMAP
0038
0078
0070
00E0
00C0
01C0
0180
0300
0200
0000
0000
01F8
07FE
1C1C
380C
3004
7000
6000
E000
E000
E000
E000
E000
E000
7000
7008
7818
3FF0
1FE0
0780
0200
0200
0380
07C0
01C0
0180
0700
1C00
ENDCHAR
STARTCHAR 1E0A
ENCODING 7690
SWIDTH 600 0
DWIDTH 24 0
BBX 21 31 1 0
BITMAP
00E000
00E000
00E000
00C000
00C000
000000
1FF800
FFFF00
1C0F80
1C03C0
1C01E0
1C00F0
1C0070
1C0070
1C0078
1C0038
1C0038
1C0038
1C0038
1C0038
1C0038
1C0038
1C0070
1C0070
1C0070
1C00E0
1C01E0
1C03C0
1C0F80
3FFE00
FFF800
ENDCHAR
STARTCHAR 1E0B
ENCODING 7691
SWIDTH 525 0
DWIDTH 21 0
BBX 19 30 2 0
BITMAP
000300
003F00
000F00
180700
1C0700
1C0700
180700
180700
000700
000700
000700
000700
03F700
0FFF00
1C1F00
380F00
300700
700700
600700
E00700
E00700
E00700
E00700
E00700
F00700
700F00
781F00
3C37E0
1FE7C0
078300
ENDCHAR
STARTCHAR 1E0C
ENCODING 7692
SWIDTH 600 0
DWIDTH 24 0
BBX 21 33 1 -8
BITMAP
1FF800
FFFF00
1C0F80
1C03C0
1C01E0
1C00F0
1C0070
1C0070
1C0078
1C0038
1C0038
1C0038
1C0038
1C0038
1C0038
1C0038
1C0070
1C0070
1C0070
1C00E0
1C01E0
1C03C0
1C0F80
3FFE00
FFF800
000000
000000
000000
004000
00E000
00E000
00E000
00C000
ENDCHAR
STARTCHAR 1E0D
ENCODING 7693
SWIDTH 525 0
DWIDTH 21 0
BBX 19 38 2 -8
BITMAP
000300
003F00
000F00
000700
000700
000700
000700
000700
000700
000700
000700
000700
03F700
0FFF00
1C1F00
380F00
300700
700700
600700
E00700
E00700
E00700
E00700
E00700
F00700
700F00
781F00
3C37E0
1FE7C0
078300
000000
000000
000000
018000
018000
038000
038000
018000
ENDCHAR
STARTCHAR 1E0E
ENCODING 7694
SWIDTH 600 0
DWIDTH 24 0
BBX 21 31 1 -6
BITMAP
1FF800
FFFF00
1C0F80
1C03C0
1C01E0
1C00F0
1C0070
1C0070
1C0078
1C0038
1C0038
1C0038
1C0038
1C0038
1C0038
1C0038
1C0070
1C0070
1C0070
1C00E0
1C01E0
1C03C0
1C0F80
3FFE00
FFF800
000000
000000
000000
000000
0FFF00
1FFF00
ENDCHAR
STARTCHAR 1E0F
ENCODING 7695
SWIDTH 525 0
DWIDTH 21 0
BBX 19 36 2 -6
BITMAP
000300
003F00
000F00
000700
000700
000700
000700
000700
000700
000700
000700
000700
03F700
0FFF00
1C1F00
380F00
300700
700700
600700
E00700
E00700
E00700
E00700
E00700
F00700
700F00
781F00
3C37E0
1FE7C0
078300
000000
000000
000000
000000
3FFE00
3FFC00
ENDCHAR
STARTCHAR 1E14
ENCODING 7700
SWIDTH 500 0
DWIDTH 20 0
BBX 18 41 1 0
BITMAP
080000
1C0000
3E0000
1F0000
078000
03C000
00E000
003000
002000
000000
1FFF00
3FFE00
000000
000000
000000
000000
FFFF00
3FFF00
1C0300
1C0100
1C0100
1C0000
1C0000
1C0000
1C0000
1C0000
1FFC00
1FFC00
1C0800
1C0000
1C0000
1C0000
1C0000
1C0000
1C0000
1C0000
1C0040
1C00C0
1C0180
3FFF80
FFFF80
ENDCHAR
STARTCHAR 1E15
ENCODING 7701
SWIDTH 450 0
DWIDTH 18 0
BBX 15 36 2 0
BITMAP
1C00
3C00
1E00
0E00
0700
0380
0180
00C0
0040
0000
0000
3FFE
3FFC
0000
0000
0000
0000
0000
03C0
0FF0
1C78
3038
701C
601C
E01C
FFFC
FFF8
E000
E000
E000
F000
7004
780C
3C38
1FF0
07C0
ENDCHAR
STARTCHAR 1E16
ENCODING 7702
SWIDTH 500 0
DWIDTH 20 0
BBX 18 41 1 0
BITMAP
000800
000C00
001E00
003E00
007800
01E000
03C000
070000
040000
000000
1FFF00
3FFE00
000000
000000
000000
000000
FFFF00
3FFF00
1C0300
1C0100
1C0100
1C0000
1C0000
1C0000
1C0000
1C0000
1FFC00
1FFC00
1C0800
1C0000
1C0000
1C0000
1C0000
1C0000
1C0000
1C0000
1C0040
1C00C0
1C0180
3FFF80
FFFF80
ENDCHAR
STARTCHAR 1E17
ENCODING 7703
SWIDTH 450 0
DWIDTH 18 0
BBX 15 36 2 0
BITMAP
0038
003C
0078
0070
00E0
00C0
0180
0300
0300
0000
0000
3FFE
3FFC
0000
0000
0000
0000
0000
03C0
0FF0
1C78
3038
701C
601C
E01C
FFFC
FFF8
E000
E000
E000
F000
7004
780C
3C38
1FF0
07C0
ENDCHAR
STARTCHAR 1E1C
ENCODING 7708
SWIDTH 500 0
DWIDTH 20 0
BBX 17 43 1 -9
BITMAP
100200
300600
180600
080C00
0E1800
07F000
01E000
000000
000000
FFFF00
3FFF00
1C0300
1C0100
1C0100
1C0000
1C0000
1C0000
1C0000
1C0000
1FFC00
1FFC00
1C0800
1C0000
1C0000
1C0000
1C0000
1C0000
1C0000
1C0000
1C0080
1C0080
1C0180
3FFF80
FFFF80
00C000
008000
00C000
01F000
00F000
007000
006000
01C000
030000
ENDCHAR
STARTCHAR 1E1D
ENCODING 7709
SWIDTH 475 0
DWIDTH 19 0
BBX 15 36 2 -9
BITMAP
2004
200C
3008
1C38
0FF0
03C0
0000
0000
0000
03E0
0FF8
1C3C
381C
700C
600E
E00E
FFFE
FFFC
E000
E000
E000
F000
7004
7806
3C18
1FF0
07E0
0180
0180
01C0
03E0
00E0
00E0
01C0
0380
0E00
ENDCHAR
STARTCHAR 1E1E
ENCODING 7710
SWIDTH 475 0
DWIDTH 19 0
BBX 17 31 1 0
BITMAP
018000
038000
038000
038000
010000
000000
FFFF80
3FFF80
1C0300
1C0100
1C0100
1C0000
1C0000
1C0000
1C0000
1C0000
1FFC00
1FF800
1C1800
1C0000
1C0000
1C0000
1C0000
1C0000
1C0000
1C0000
1C0000
1C0000
1C0000
3E0000
FF8000
ENDCHAR
STARTCHAR 1E1F
ENCODING 7711
SWIDTH 300 0
DWIDTH 12 0
BBX 15 36 1 0
BITMAP
0300
0700
0700
0700
0200
0000
0078
01FE
031C
0608
0E00
0C00
0C00
1C00
1C00
1C00
1C00
1C00
7FF0
FFE0
1C40
1C00
1C00
1C00
1C00
1C00
1C00
1C00
1C00
1C00
1C00
1C00
1C00
1C00
3E00
FFC0
ENDCHAR
STARTCHAR 1E20
ENCODING 7712
SWIDTH 575 0
DWIDTH 23 0
BBX 21 31 1 0
BITMAP
07FFC0
07FFC0
000000
000000
000000
000000
007F00
01FFC0
0703E0
0E00C0
1C0000
380000
300000
700000
700000
E00000
E00000
E00000
E00000
E00FF8
E001E0
E000E0
E000E0
7000E0
7000E0
7800E0
3C00E0
1E00E0
0F81C0
07FF80
01FC00
ENDCHAR
STARTCHAR 1E21
ENCODING 7713
SWIDTH 500 0
DWIDTH 20 0
BBX 18 34 1 -9
BITMAP
1FFF00
3FFE00
000000
000000
000000
000000
000000
03E0C0
0FFFC0
1C3F00
381C00
700E00
700E00
700E00
700E00
781C00
3C3800
1FF000
07C000
060000
0C0000
1C0000
1FE000
0FFE00
0C3F80
1803C0
7001C0
E001C0
E001C0
E00380
F00380
7C0F00
3FFC00
07F000
ENDCHAR
STARTCHAR 1E22
ENCODING 7714
SWIDTH 650 0
DWIDTH 26 0
BBX 24 31 1 0
BITMAP
001800
003800
003800
003800
001000
000000
FF81FF
3E007C
1C0038
1C0038
1C0038
1C0038
1C0038
1C0038
1C0038
1C0038
1C0038
1FFFF8
1FFFF8
1C0038
1C0038
1C0038
1C0038
1C0038
1C0038
1C0038
1C0038
1C0038
1C0038
3E007C
FF81FF
ENDCHAR
STARTCHAR 1E23
ENCODING 7715
SWIDTH 550 0
DWIDTH 22 0
BBX 21 36 1 0
BITMAP
006000
00E000
00E000
00E000
004000
000000
0C0000
FC0000
7C0000
1C0000
1C0000
1C0000
1C0000
1C0000
1C0000
1C0000
1C0000
1C0000
1C1F00
1C3F80
1CE3C0
1D81C0
1F01C0
1E01C0
1E01C0
1C01C0
1C01C0
1C01C0
1C01C0
1C01C0
1C01C0
1C01C0
1C01C0
1C01C0
3E03C0
FF8FF8
ENDCHAR
STARTCHAR 1E24
ENCODING 7716
SWIDTH 650 0
DWIDTH 26 0
BBX 24 33 1 -8
BITMAP
FF81FF
3E007C
1C0038
1C0038
1C0038
1C0038
1C0038
1C0038
1C0038
1C0038
1C0038
1FFFF8
1FFFF8
1C0038
1C0038
1C0038
1C0038
1C0038
1C0038
1C0038
1C0038
1C0038
1C0038
3E007C
FF81FF
000000
000000
000000
001800
003800
003800
003800
003000
ENDCHAR
STARTCHAR 1E25
ENCODING 7717
SWIDTH 550 0
DWIDTH 22 0
BBX 21 38 1 -8
BITMAP
0C0000
FC0000
7C0000
1C0000
1C0000
1C0000
1C0000
1C0000
1C0000
1C0000
1C0000
1C0000
1C1F00
1C3F80
1CE3C0
1D81C0
1F01C0
1E01C0
1E01C0
1C01C0
1C01C0
1C01C0
1C01C0
1C01C0
1C01C0
1C01C0
1C01C0
1C01C0
3E03C0
FF8FF8
000000
000000
000000
006000
006000
00E000
00E000
006000
ENDCHAR
STARTCHAR 1E26
ENCODING 7718
SWIDTH 650 0
DWIDTH 26 0
BBX 24 31 1 0
BITMAP
0180C0
0381C0
0381C0
0381C0
010080
000000
FF81FF
3E007C
1C0038
1C0038
1C0038
1C0038
1C0038
1C0038
1C0038
1C0038
1C0038
1FFFF8
1FFFF8
1C0038
1C0038
1C0038
1C0038
1C0038
1C0038
1C0038
1C0038
1C0038
1C0038
3E007C
FF81FF
ENDCHAR
STARTCHAR 1E27
ENCODING 7719
SWIDTH 550 0
DWIDTH 22 0
BBX 21 36 1 0
BITMAP
060300
0E0700
0E0700
0E0700
040200
000000
0C0000
FC0000
7C0000
1C0000
1C0000
1C0000
1C0000
1C0000
1C0000
1C0000
1C0000
1C0000
1C1F00
1C3F80
1CE3C0
1D81C0
1F01C0
1E01C0
1E01C0
1C01C0
1C01C0
1C01C0
1C01C0
1C01C0
1C01C0
1C01C0
1C01C0
1C01C0
3E03C0
FF8FF8
ENDCHAR
STARTCHAR 1E2E
ENCODING 7726
SWIDTH 300 0
DWIDTH 12 0
BBX 12 41 0 0
BITMAP
0040
0060
00F0
01F0
03C0
0F00
1E00
3800
2000
0000
E070
E070
E070
E070
C060
0000
7FC0
1F00
0E00
0E00
0E00
0E00
0E00
0E00
0E00
0E00
0E00
0E00
0E00
0E00
0E00
0E00
0E00
0E00
0E00
0E00
0E00
0E00
0E00
1F00
7FC0
ENDCHAR
STARTCHAR 1E2F
ENCODING 7727
SWIDTH 275 0
DWIDTH 11 0
BBX 12 36 0 0
BITMAP
00E0
01E0
01C0
03C0
0380
0700
0600
0C00
0800
C060
E070
E070
C060
C060
0000
0000
0000
0000
0600
7E00
1E00
0E00
0E00
0E00
0E00
0E00
0E00
0E00
0E00
0E00
0E00
0E00
0E00
0E00
1E00
7FC0
ENDCHAR
STARTCHAR 1E30
ENCODING 7728
SWIDTH 575 0
DWIDTH 23 0
BBX 22 34 1 0
BITMAP
000300
000780
000F80
001E00
007800
00F000
01C000
010000
000000
FF87F8
3E01C0
1C0380
1C0700
1C0E00
1C0C00
1C1800
1C3800
1C7000
1CE000
1DC000
1F8000
1FC000
1DE000
1CE000
1C7000
1C3800
1C3C00
1C1E00
1C0F00
1C0780
1C03C0
1C03E0
3E01FC
FF80F0
ENDCHAR
STARTCHAR 1E31
ENCODING 7729
SWIDTH 500 0
DWIDTH 20 0
BBX 19 39 1 0
BITMAP
000600
000F00
001F00
003C00
007800
00E000
038000
030000
000000
0C0000
FC0000
3C0000
1C0000
1C0000
1C0000
1C0000
1C0000
1C0000
1C0000
1C0000
1C0000
1C1FE0
1C0700
1C0E00
1C1C00
1C3000
1CE000
1DC000
1F8000
1DC000
1DE000
1CF000
1C7800
1C3800
1C1C00
1C1E00
1C0F00
3C0780
FF03E0
ENDCHAR
STARTCHAR 1E32
ENCODING 7730
SWIDTH 575 0
DWIDTH 23 0
BBX 22 33 1 -8
BITMAP
FF87F8
3E01C0
1C0380
1C0700
1C0E00
1C0C00
1C1800
1C3800
1C7000
1CE000
1DC000
1F8000
1FC000
1DE000
1CE000
1C7000
1C3800
1C3C00
1C1E00
1C0F00
1C0780
1C03C0
1C03E0
3E01FC
FF80F0
000000
000000
000000
003000
007000
007000
007000
006000
ENDCHAR
STARTCHAR 1E33
ENCODING 7731
SWIDTH 500 0
DWIDTH 20 0
BBX 19 38 1 -8
BITMAP
0C0000
FC0000
3C0000
1C0000
1C0000
1C0000
1C0000
1C0000
1C0000
1C0000
1C0000
1C0000
1C1FE0
1C0700
1C0E00
1C1C00
1C3000
1CE000
1DC000
1F8000
1DC000
1DE000
1CF000
1C7800
1C3800
1C1C00
1C1E00
1C0F00
3C0780
FF03E0
000000
000000
000000
00C000
00E000
00E000
00C000
00C000
ENDCHAR
STARTCHAR 1E34
ENCODING 7732
SWIDTH 575 0
DWIDTH 23 0
BBX 22 31 1 -6
BITMAP
FF87F8
3E01C0
1C0380
1C0700
1C0E00
1C0C00
1C1800
1C3800
1C7000
1CE000
1DC000
1F8000
1FC000
1DE000
1CE000
1C7000
1C3800
1C3C00
1C1E00
1C0F00
1C0780
1C03C0
1C03E0
3E01FC
FF80F0
000000
000000
000000
000000
07FFC0
0FFF80
ENDCHAR
STARTCHAR 1E35
ENCODING 7733
SWIDTH 500 0
DWIDTH 20 0
BBX 19 36 1 -6
BITMAP
0C0000
FC0000
3C0000
1C0000
1C0000
1C0000
1C0000
1C0000
1C0000
1C0000
1C0000
1C0000
1C1FE0
1C0700
1C0E00
1C1C00
1C3000
1CE000
1DC000
1F8000
1DC000
1DE000
1CF000
1C7800
1C3800
1C1C00
1C1E00
1C0F00
3C0780
FF03E0
000000
000000
000000
000000
1FFF00
1FFF00
ENDCHAR
STARTCHAR 1E36
ENCODING 7734
SWIDTH 475 0
DWIDTH 19 0
BBX 18 33 1 -8
BITMAP
FF8000
3E0000
1C0000
1C0000
1C0000
1C0000
1C0000
1C0000
1C0000
1C0000
1C0000
1C0000
1C0000
1C0000
1C0000
1C0000
1C0000
1C0000
1C0000
1C0000
1C00C0
1C0080
1E0180
3FFF80
FFFF80
000000
000000
000000
008000
01C000
01C000
01C000
018000
ENDCHAR
STARTCHAR 1E37
ENCODING 7735
SWIDTH 275 0
DWIDTH 11 0
BBX 9 38 1 -8
BITMAP
0C00
FC00
7C00
1C00
1C00
1C00
1C00
1C00
1C00
1C00
1C00
1C00
1C00
1C00
1C00
1C00
1C00
1C00
1C00
1C00
1C00
1C00
1C00
1C00
1C00
1C00
1C00
1C00
3C00
FF80
0000
0000
0000
1800
1C00
1C00
1800
1800
ENDCHAR
STARTCHAR 1E38
ENCODING 7736
SWIDTH 475 0
DWIDTH 19 0
BBX 18 39 1 -8
BITMAP
3FFE00
3FFC00
000000
000000
000000
000000
FF8000
3E0000
1C0000
1C0000
1C0000
1C0000
1C0000
1C0000
1C0000
1C0000
1C0000
1C0000
1C0000
1C0000
1C0000
1C0000
1C0000
1C0000
1C0000
1C0000
1C00C0
1C0080
1E0180
3FFF80
FFFF80
000000
000000
000000
008000
01C000
01C000
01C000
018000
ENDCHAR
STARTCHAR 1E39
ENCODING 7737
SWIDTH 275 0
DWIDTH 11 0
BBX 13 46 -1 -8
BITMAP
7FF8
FFF8
7FF8
0000
0000
0000
0000
0000
0300
3F00
1F00
0700
0700
0700
0700
0700
0700
0700
0700
0700
0700
0700
0700
0700
0700
0700
0700
0700
0700
0700
0700
0700
0700
0700
0700
0700
0F00
3FE0
0000
0000
0000
0600
0700
0700
0600
0600
ENDCHAR
STARTCHAR 1E3A
ENCODING 7738
SWIDTH 475 0
DWIDTH 19 0
BBX 18 31 1 -6
BITMAP
FF8000
3E0000
1C0000
1C0000
1C0000
1C0000
1C0000
1C0000
1C0000
1C0000
1C0000
1C0000
1C0000
1C0000
1C0000
1C0000
1C0000
1C0000
1C0000
1C0000
1C00C0
1C0080
1E0180
3FFF80
FFFF80
000000
000000
000000
000000
1FFE00
3FFE00
ENDCHAR
STARTCHAR 1E3B
ENCODING 7739
SWIDTH 275 0
DWIDTH 11 0
BBX 13 36 -1 -6
BITMAP
0300
3F00
1F00
0700
0700
0700
0700
0700
0700
0700
0700
0700
0700
0700
0700
0700
0700
0700
0700
0700
0700
0700
0700
0700
0700
0700
0700
0700
0F00
3FE0
0000
0000
0000
0000
FFF8
FFF8
ENDCHAR
STARTCHAR 1E3E
ENCODING 7742
SWIDTH 800 0
DWIDTH 32 0
BBX 30 34 1 0
BITMAP
00003000
00007800
0000FC00
0001F000
0003C000
00070000
000C0000
00180000
00000000
FE0001F8
1E0003E0
1F0003E0
1F0003E0
1F0007E0
1B8006E0
1B800EE0
19C00CE0
19C00CE0
18E01CE0
18E018E0
18E038E0
187030E0
187070E0
183860E0
183860E0
181CE0E0
181CC0E0
181FC0E0
180F80E0
180F80E0
180780E0
180700E0
3C0701E0
FF0207FC
ENDCHAR
STARTCHAR 1E3F
ENCODING 7743
SWIDTH 800 0
DWIDTH 32 0
BBX 31 29 1 0
BITMAP
00003800
00007800
00007000
0000E000
0001C000
0001C000
00038000
00030000
00060000
00000000
00000000
0C1E03C0
FC7F0FE0
3CC798F0
1D83B070
1F03E070
1E03C070
1C038070
1C038070
1C038070
1C038070
1C038070
1C038070
1C038070
1C038070
1C038070
1C038070
3C07C0F0
FF9FF3FE
ENDCHAR
STARTCHAR 1E40
ENCODING 7744
SWIDTH 800 0
DWIDTH 32 0
BBX 30 31 1 0
BITMAP
00030000
00070000
00070000
00070000
00020000
00000000
FE0001F8
1E0003E0
1F0003E0
1F0003E0
1F0007E0
1B8006E0
1B800EE0
19C00CE0
19C00CE0
18E01CE0
18E018E0
18E038E0
187030E0
187070E0
183860E0
183860E0
181CE0E0
181CC0E0
181FC0E0
180F80E0
180F80E0
180780E0
180700E0
3C0701E0
FF0207FC
ENDCHAR
STARTCHAR 1E41
ENCODING 7745
SWIDTH 800 0
DWIDTH 32 0
BBX 31 27 1 0
BITMAP
00030000
00030000
00070000
00070000
00030000
00000000
00000000
00000000
00000000
0C1E03C0
FC7F0FE0
3CC798F0
1D83B070
1F03E070
1E03C070
1C038070
1C038070
1C038070
1C038070
1C038070
1C038070
1C038070
1C038070
1C038070
1C038070
3C07C0F0
FF9FF3FE
ENDCHAR
STARTCHAR 1E42
ENCODING 7746
SWIDTH 800 0
DWIDTH 32 0
BBX 30 33 1 -8
BITMAP
FE0001F8
1E0003E0
1F0003E0
1F0003E0
1F0007E0
1B8006E0
1B800EE0
19C00CE0
19C00CE0
18E01CE0
18E018E0
18E038E0
187030E0
187070E0
183860E0
183860E0
181CE0E0
181CC0E0
181FC0E0
180F80E0
180F80E0
180780E0
180700E0
3C0701E0
FF0207FC
00000000
00000000
00000000
00030000
00070000
00070000
00070000
00060000
ENDCHAR
STARTCHAR 1E43
ENCODING 7747
SWIDTH 800 0
DWIDTH 32 0
BBX 31 26 1 -8
BITMAP
0C1E03C0
FC7F0FE0
3CC798F0
1D83B070
1F03E070
1E03C070
1C038070
1C038070
1C038070
1C038070
1C038070
1C038070
1C038070
1C038070
1C038070
1C038070
3C07C0F0
FF9FF3FE
00000000
00000000
00000000
00030000
00030000
00070000
00070000
00030000
ENDCHAR
STARTCHAR 1E44
ENCODING 7748
SWIDTH 650 0
DWIDTH 26 0
BBX 24 31 1 0
BITMAP
001800
003800
003800
003800
001000
000000
F801FF
3C007C
1E0038
1E0038
1F0038
1F8038
1D8038
1DC038
1CE038
1C6038
1C7038
1C3838
1C1C38
1C1C38
1C0E38
1C0738
1C0738
1C03B8
1C03F8
1C01F8
1C00F8
1C00F8
1C0078
3E0038
FF8018
ENDCHAR
STARTCHAR 1E45
ENCODING 7749
SWIDTH 550 0
DWIDTH 22 0
BBX 21 27 1 0
BITMAP
006000
006000
00E000
00E000
006000
000000
000000
000000
000000
0C0F00
FC3F80
3C63C0
1D81C0
1D01C0
1E01C0
1E01C0
1C01C0
1C01C0
1C01C0
1C01C0
1C01C0
1C01C0
1C01C0
1C01C0
1C01C0
3E03C0
FF8FF8
ENDCHAR
STARTCHAR 1E46
ENCODING 7750
SWIDTH 650 0
DWIDTH 26 0
BBX 24 33 1 -8
BITMAP
F801FF
3C007C
1E0038
1E0038
1F0038
1F8038
1D8038
1DC038
1CE038
1C6038
1C7038
1C3838
1C1C38
1C1C38
1C0E38
1C0738
1C0738
1C03B8
1C03F8
1C01F8
1C00F8
1C00F8
1C0078
3E0038
FF8018
000000
000000
000000
001800
003800
003800
003800
003000
ENDCHAR
STARTCHAR 1E47
ENCODING 7751
SWIDTH 550 0
DWIDTH 22 0
BBX 21 26 1 -8
BITMAP
0C0F00
FC3F80
3C63C0
1D81C0
1D01C0
1E01C0
1E01C0
1C01C0
1C01C0
1C01C0
1C01C0
1C01C0
1C01C0
1C01C0
1C01C0
1C01C0
3E03C0
FF8FF8
000000
000000
000000
006000
006000
00E000
00E000
006000
ENDCHAR
STARTCHAR 1E48
ENCODING 7752
SWIDTH 650 0
DWIDTH 26 0
BBX 24 31 1 -6
BITMAP
F801FF
3C007C
1E0038
1E0038
1F0038
1F8038
1D8038
1DC038
1CE038
1C6038
1C7038
1C3838
1C1C38
1C1C38
1C0E38
1C0738
1C0738
1C03B8
1C03F8
1C01F8
1C00F8
1C00F8
1C0078
3E0038
FF8018
000000
000000
000000
000000
03FFE0
07FFC0
ENDCHAR
STARTCHAR 1E49
ENCODING 7753
SWIDTH 550 0
DWIDTH 22 0
BBX 21 24 1 -6
BITMAP
0C0F00
FC3F80
3C63C0
1D81C0
1D01C0
1E01C0
1E01C0
1C01C0
1C01C0
1C01C0
1C01C0
1C01C0
1C01C0
1C01C0
1C01C0
1C01C0
3E03C0
FF8FF8
000000
000000
000000
000000
0FFF80
0FFF00
ENDCHAR
STARTCHAR 1E4C
ENCODING 7756
SWIDTH 600 0
DWIDTH 24 0
BBX 21 41 1 0
BITMAP
000200
000380
000780
000FC0
001E00
003C00
007000
00C000
010000
01E080
03F0C0
07F980
063F00
0C0C00
000000
000000
00FC00
03FF00
070780
0C03C0
1801E0
3800E0
700070
700070
600078
E00038
E00038
E00038
E00038
E00038
E00038
E00038
F00030
700070
700060
7800E0
3C00C0
1E0180
0F0700
07FE00
01F800
ENDCHAR
STARTCHAR 1E4D
ENCODING 7757
SWIDTH 500 0
DWIDTH 20 0
BBX 16 36 2 0
BITMAP
001C
003C
0038
0070
0070
00E0
00C0
0180
0300
0702
0F86
1FCC
31F8
2070
0000
0000
0000
0000
03E0
0FF8
1C3C
301E
700E
600F
E007
E007
E007
E007
E007
E007
F006
700E
780C
3E38
1FF0
07C0
ENDCHAR
STARTCHAR 1E4E
ENCODING 7758
SWIDTH 600 0
DWIDTH 24 0
BBX 21 38 1 0
BITMAP
020100
070380
070380
070380
070380
040200
01E080
03F0C0
07F980
063F00
0C0C00
000000
000000
00FC00
03FF00
070780
0C03C0
1801E0
3800E0
700070
700070
600078
E00038
E00038
E00038
E00038
E00038
E00038
E00038
F00030
700070
700060
7800E0
3C00C0
1E0180
0F0700
07FE00
01F800
ENDCHAR
STARTCHAR 1E4F
ENCODING 7759
SWIDTH 500 0
DWIDTH 20 0
BBX 16 34 2 0
BITMAP
180C
180C
1C0E
180C
180C
0000
0000
0702
0F86
1FCC
31F8
2070
0000
0000
0000
0000
03E0
0FF8
1C3C
301E
700E
600F
E007
E007
E007
E007
E007
E007
F006
700E
780C
3E38
1FF0
07C0
ENDCHAR
STARTCHAR 1E50
ENCODING 7760
SWIDTH 600 0
DWIDTH 24 0
BBX 21 41 1 0
BITMAP
020000
070000
078000
0FC000
01E000
00F000
003800
000C00
000400
000000
07FFC0
07FF80
000000
000000
000000
000000
00FC00
03FF00
070780
0C03C0
1801E0
3800E0
700070
700070
600078
E00038
E00038
E00038
E00038
E00038
E00038
E00038
F00030
700070
700060
7800E0
3C00C0
1E0180
0F0700
07FE00
01F800
ENDCHAR
STARTCHAR 1E51
ENCODING 7761
SWIDTH 500 0
DWIDTH 20 0
BBX 16 36 2 0
BITMAP
1C00
1E00
0E00
0700
0380
0380
01C0
00C0
0060
0000
0000
1FFE
3FFE
0000
0000
0000
0000
0000
03E0
0FF8
1C3C
301E
700E
600F
E007
E007
E007
E007
E007
E007
F006
700E
780C
3E38
1FF0
07C0
ENDCHAR
STARTCHAR 1E52
ENCODING 7762
SWIDTH 600 0
DWIDTH 24 0
BBX 21 41 1 0
BITMAP
000200
000380
000780
000FC0
001E00
003C00
007000
00C000
010000
000000
07FFC0
07FF80
000000
000000
000000
000000
00FC00
03FF00
070780
0C03C0
1801E0
3800E0
700070
700070
600078
E00038
E00038
E00038
E00038
E00038
E00038
E00038
F00030
700070
700060
7800E0
3C00C0
1E0180
0F0700
07FE00
01F800
ENDCHAR
STARTCHAR 1E53
ENCODING 7763
SWIDTH 500 0
DWIDTH 20 0
BBX 16 36 2 0
BITMAP
001C
003C
0038
0070
0070
00E0
00C0
0180
0300
0000
0000
1FFE
3FFE
0000
0000
0000
0000
0000
03E0
0FF8
1C3C
301E
700E
600F
E007
E007
E007
E007
E007
E007
F006
700E
780C
3E38
1FF0
07C0
ENDCHAR
STARTCHAR 1E54
ENCODING 7764
SWIDTH 525 0
DWIDTH 21 0
BBX 18 34 1 0
BITMAP
000C00
001E00
003F00
007C00
00F000
01C000
038000
020000
000000
1FF800
FFFE00
1C1F00
1C0780
1C03C0
1C01C0
1C01C0
1C01C0
1C01C0
1C01C0
1C0380
1C0780
1C0F00
1DFE00
1CF800
1C0000
1C0000
1C0000
1C0000
1C0000
1C0000
1C0000
1C0000
3E0000
FF8000
ENDCHAR
STARTCHAR 1E55
ENCODING 7765
SWIDTH 525 0
DWIDTH 21 0
BBX 18 38 1 -9
BITMAP
000E00
001E00
001C00
003800
003000
007000
00E000
00C000
018000
000000
000000
0C1C00
FC7F00
3C8F80
1D0780
1E0380
1E03C0
1C01C0
1C01C0
1C01C0
1C01C0
1C01C0
1C0180
1C0180
1C0380
1E0300
1F0600
1DFC00
1C7800
1C0000
1C0000
1C0000
1C0000
1C0000
1C0000
1C0000
3E0000
FF8000
ENDCHAR
STARTCHAR 1E56
ENCODING 7766
SWIDTH 525 0
DWIDTH 21 0
BBX 18 31 1 0
BITMAP
00C000
01C000
01C000
01C000
008000
000000
1FF800
FFFE00
1C1F00
1C0780
1C03C0
1C01C0
1C01C0
1C01C0
1C01C0
1C01C0
1C0380
1C0780
1C0F00
1DFE00
1CF800
1C0000
1C0000
1C0000
1C0000
1C0000
1C0000
1C0000
1C0000
3E0000
FF8000
ENDCHAR
STARTCHAR 1E57
ENCODING 7767
SWIDTH 525 0
DWIDTH 21 0
BBX 18 36 1 -9
BITMAP
00C000
00C000
01C000
01C000
00C000
000000
000000
000000
000000
0C1C00
FC7F00
3C8F80
1D0780
1E0380
1E03C0
1C01C0
1C01C0
1C01C0
1C01C0
1C01C0
1C0180
1C0180
1C0380
1E0300
1F0600
1DFC00
1C7800
1C0000
1C0000
1C0000
1C0000
1C0000
1C0000
1C0000
3E0000
FF8000
ENDCHAR
STARTCHAR 1E58
ENCODING 7768
SWIDTH 550 0
DWIDTH 22 0
BBX 21 31 1 0
BITMAP
00C000
01C000
01C000
01C000
008000
000000
1FF000
FFFE00
1C1F00
1C0700
1C0780
1C0380
1C0380
1C0380
1C0380
1C0700
1C0600
1C1C00
1FF000
1C7000
1C3800
1C3800
1C1C00
1C1E00
1C0E00
1C0700
1C0780
1C0380
1C03C0
3E01F8
FF81F0
ENDCHAR
STARTCHAR 1E59
ENCODING 7769
SWIDTH 400 0
DWIDTH 16 0
BBX 14 27 1 0
BITMAP
0100
0380
0380
0380
0300
0000
0000
0000
0000
0C3C
FCFC
3D8C
1D0C
1F04
1E00
1E00
1C00
1C00
1C00
1C00
1C00
1C00
1C00
1C00
1C00
1E00
FF80
ENDCHAR
STARTCHAR 1E5A
ENCODING 7770
SWIDTH 550 0
DWIDTH 22 0
BBX 21 33 1 -8
BITMAP
1FF000
FFFE00
1C1F00
1C0700
1C0780
1C0380
1C0380
1C0380
1C0380
1C0700
1C0600
1C1C00
1FF000
1C7000
1C3800
1C3800
1C1C00
1C1E00
1C0E00
1C0700
1C0780
1C0380
1C03C0
3E01F8
FF81F0
000000
000000
000000
00C000
01C000
01C000
01C000
008000
ENDCHAR
STARTCHAR 1E5B
ENCODING 7771
SWIDTH 400 0
DWIDTH 16 0
BBX 14 26 1 -8
BITMAP
0C3C
FCFC
3D8C
1D0C
1F04
1E00
1E00
1C00
1C00
1C00
1C00
1C00
1C00
1C00
1C00
1C00
1E00
FF80
0000
0000
0000
1800
1800
3800
3800
1800
ENDCHAR
STARTCHAR 1E5C
ENCODING 7772
SWIDTH 550 0
DWIDTH 22 0
BBX 21 39 1 -8
BITMAP
1FFF00
1FFE00
000000
000000
000000
000000
1FF000
FFFE00
1C1F00
1C0700
1C0780
1C0380
1C0380
1C0380
1C0380
1C0700
1C0600
1C1C00
1FF000
1C7000
1C3800
1C3800
1C1C00
1C1E00
1C0E00
1C0700
1C0780
1C0380
1C03C0
3E01F8
FF81F0
000000
000000
000000
00C000
01C000
01C000
01C000
008000
ENDCHAR
STARTCHAR 1E5D
ENCODING 7773
SWIDTH 400 0
DWIDTH 16 0
BBX 15 33 1 -8
BITMAP
3FFE
7FFC
0000
0000
0000
0000
0000
0C3C
FCFC
3D8C
1D0C
1F04
1E00
1E00
1C00
1C00
1C00
1C00
1C00
1C00
1C00
1C00
1C00
1E00
FF80
0000
0000
0000
1800
1800
3800
3800
1800
ENDCHAR
STARTCHAR 1E5E
ENCODING 7774
SWIDTH 550 0
DWIDTH 22 0
BBX 21 31 1 -6
BITMAP
1FF000
FFFE00
1C1F00
1C0700
1C0780
1C0380
1C0380
1C0380
1C0380
1C0700
1C0600
1C1C00
1FF000
1C7000
1C3800
1C3800
1C1C00
1C1E00
1C0E00
1C0700
1C0780
1C0380
1C03C0
3E01F8
FF81F0
000000
000000
000000
000000
1FFF00
1FFE00
ENDCHAR
STARTCHAR 1E5F
ENCODING 7775
SWIDTH 400 0
DWIDTH 16 0
BBX 16 24 -1 -6
BITMAP
030F
3F3F
0F63
0743
07C1
0780
0780
0700
0700
0700
0700
0700
0700
0700
0700
0700
0780
3FE0
0000
0000
0000
0000
FFF8
FFF0
ENDCHAR
STARTCHAR 1E60
ENCODING 7776
SWIDTH 475 0
DWIDTH 19 0
BBX 15 31 2 0
BITMAP
0380
0380
0380
0380
0300
0000
07E0
1FF8
787C
7018
E000
E000
E000
F000
F800
7E00
3F80
1FE0
07F8
01FC
007C
001E
001E
000E
800E
800E
C01C
E01C
F078
FFF0
1F80
ENDCHAR
STARTCHAR 1E61
ENCODING 7777
SWIDTH 375 0
DWIDTH 15 0
BBX 11 27 2 0
BITMAP
0400
0E00
0E00
0E00
0C00
0000
0000
0000
0000
1F00
7F80
73C0
E180
E080
F000
F800
7E00
1F00
0FC0
03E0
01E0
80E0
80E0
C0E0
E1C0
FF80
3E00
ENDCHAR
STARTCHAR 1E62
ENCODING 7778
SWIDTH 475 0
DWIDTH 19 0
BBX 15 33 2 -8
BITMAP
07E0
1FF8
787C
7018
E000
E000
E000
F000
F800
7E00
3F80
1FE0
07F8
01FC
007C
001E
001E
000E
800E
800E
C01C
E01C
F078
FFF0
1F80
0000
0000
0000
0100
0380
0380
0380
0300
ENDCHAR
STARTCHAR 1E63
ENCODING 7779
SWIDTH 375 0
DWIDTH 15 0
BBX 11 26 2 -8
BITMAP
1F00
7F80
73C0
E180
E080
F000
F800
7E00
1F00
0FC0
03E0
01E0
80E0
80E0
C0E0
E1C0
FF80
3E00
0000
0000
0000
0400
0E00
0E00
0E00
0C00
ENDCHAR
STARTCHAR 1E64
ENCODING 7780
SWIDTH 475 0
DWIDTH 19 0
BBX 15 38 2 0
BITMAP
0100
0380
0380
0380
0318
023C
007C
00F0
01E0
0380
0600
0C00
0000
07E0
1FF8
787C
7018
E000
E000
E000
F000
F800
7E00
3F80
1FE0
07F8
01FC
007C
001E
001E
000E
800E
800E
C01C
E01C
F078
FFF0
1F80
ENDCHAR
STARTCHAR 1E65
ENCODING 7781
SWIDTH 375 0
DWIDTH 15 0
BBX 12 34 2 0
BITMAP
0400
0E00
0E00
0E00
0C00
00E0
00F0
01E0
03C0
0380
0700
0600
0C00
0800
0000
0000
1F00
7F80
73C0
E180
E080
F000
F800
7E00
1F00
0FC0
03E0
01E0
80E0
80E0
C0E0
E1C0
FF80
3E00
ENDCHAR
STARTCHAR 1E66
ENCODING 7782
SWIDTH 475 0
DWIDTH 19 0
BBX 15 38 2 0
BITMAP
0100
0380
0380
0380
230C
3A18
1C30
0EF0
07E0
03C0
0180
0000
0000
07E0
1FF8
787C
7018
E000
E000
E000
F000
F800
7E00
3F80
1FE0
07F8
01FC
007C
001E
001E
000E
800E
800E
C01C
E01C
F078
FFF0
1F80
ENDCHAR
STARTCHAR 1E67
ENCODING 7783
SWIDTH 375 0
DWIDTH 15 0
BBX 12 33 2 0
BITMAP
0E00
0E00
0E00
0E00
8C10
C070
60E0
71C0
3B80
1F80
0F00
0E00
0000
0000
0000
1F00
7F80
73C0
E180
E080
F000
F800
7E00
1F00
0FC0
03E0
01E0
80E0
80E0
C0E0
E1C0
FF80
3E00
ENDCHAR
STARTCHAR 1E68
ENCODING 7784
SWIDTH 475 0
DWIDTH 19 0
BBX 15 39 2 -8
BITMAP
0380
0380
0380
0380
0300
0000
07E0
1FF8
787C
7018
E000
E000
E000
F000
F800
7E00
3F80
1FE0
07F8
01FC
007C
001E
001E
000E
800E
800E
C01C
E01C
F078
FFF0
1F80
0000
0000
0000
0100
0380
0380
0380
0300
ENDCHAR
STARTCHAR 1E69
ENCODING 7785
SWIDTH 375 0
DWIDTH 15 0
BBX 11 35 2 -8
BITMAP
0400
0E00
0E00
0E00
0C00
0000
0000
0000
0000
1F00
7F80
73C0
E180
E080
F000
F800
7E00
1F00
0FC0
03E0
01E0
80E0
80E0
C0E0
E1C0
FF80
3E00
0000
0000
0000
0400
0E00
0E00
0E00
0C00
ENDCHAR
STARTCHAR 1E6A
ENCODING 7786
SWIDTH 550 0
DWIDTH 22 0
BBX 21 31 0 0
BITMAP
006000
007000
007000
006000
006000
000000
7FFFF8
FFFFF8
C07018
C07018
807010
007000
007000
007000
007000
007000
007000
007000
007000
007000
007000
007000
007000
007000
007000
007000
007000
007000
007000
00F800
03FE00
ENDCHAR
STARTCHAR 1E6B
ENCODING 7787
SWIDTH 350 0
DWIDTH 14 0
BBX 13 32 0 0
BITMAP
0700
0700
0700
0700
0600
0000
0000
0400
0C00
1C00
1C00
1C00
1C00
1C00
7FF8
FFF0
1C20
1C00
1C00
1C00
1C00
1C00
1C00
1C00
1C00
1C00
1C00
1C00
1C00
1E38
0FF0
0780
ENDCHAR
STARTCHAR 1E6C
ENCODING 7788
SWIDTH 550 0
DWIDTH 22 0
BBX 21 33 0 -8
BITMAP
7FFFF8
FFFFF8
C07018
C07018
807010
007000
007000
007000
007000
007000
007000
007000
007000
007000
007000
007000
007000
007000
007000
007000
007000
007000
007000
00F800
03FE00
000000
000000
000000
006000
007000
007000
007000
006000
ENDCHAR
STARTCHAR 1E6D
ENCODING 7789
SWIDTH 350 0
DWIDTH 14 0
BBX 13 33 0 -8
BITMAP
0400
0C00
1C00
1C00
1C00
1C00
1C00
7FF8
FFF0
1C20
1C00
1C00
1C00
1C00
1C00
1C00
1C00
1C00
1C00
1C00
1C00
1C00
1E38
0FF0
0780
0000
0000
0000
0300
0700
0700
0700
0600
ENDCHAR
STARTCHAR 1E6E
ENCODING 7790
SWIDTH 550 0
DWIDTH 22 0
BBX 21 31 0 -6
BITMAP
7FFFF8
FFFFF8
C07018
C07018
807010
007000
007000
007000
007000
007000
007000
007000
007000
007000
007000
007000
007000
007000
007000
007000
007000
007000
007000
00F800
03FE00
000000
000000
000000
000000
07FF80
0FFF80
ENDCHAR
STARTCHAR 1E6F
ENCODING 7791
SWIDTH 350 0
DWIDTH 14 0
BBX 13 31 0 -6
BITMAP
0400
0C00
1C00
1C00
1C00
1C00
1C00
7FF8
FFF0
1C20
1C00
1C00
1C00
1C00
1C00
1C00
1C00
1C00
1C00
1C00
1C00
1C00
1E38
0FF0
0780
0000
0000
0000
0000
7FF8
FFF8
ENDCHAR
STARTCHAR 1E78
ENCODING 7800
SWIDTH 650 0
DWIDTH 26 0
BBX 24 41 1 0
BITMAP
000100
0001C0
0003E0
0007C0
000F00
001E00
003800
006000
004000
00F060
01F840
03FCC0
031F80
020600
000000
000000
FF81FF
3E007C
1C0038
1C0038
1C0038
1C0038
1C0038
1C0038
1C0038
1C0038
1C0038
1C0038
1C0038
1C0038
1C0038
1C0038
1C0038
1C0038
1C0070
0E0070
0E0070
0F00E0
07C1C0
03FF80
007E00
ENDCHAR
STARTCHAR 1E79
ENCODING 7801
SWIDTH 525 0
DWIDTH 21 0
BBX 21 36 0 0
BITMAP
000700
000F80
000E00
001E00
001C00
003800
003000
006000
004000
01C080
03E180
07F100
0C7E00
081C00
000000
000000
000000
000000
0C00C0
FC0FC0
1C01C0
1C01C0
1C01C0
1C01C0
1C01C0
1C01C0
1C01C0
1C01C0
1C01C0
1C01C0
1C01C0
1C03C0
1C07C0
1E1DC8
0FF1F0
07C0C0
ENDCHAR
STARTCHAR 1E7A
ENCODING 7802
SWIDTH 650 0
DWIDTH 26 0
BBX 24 38 1 0
BITMAP
010080
0180C0
0381C0
0381C0
0381C0
010080
000000
03FFE0
03FFC0
000000
000000
000000
000000
FF81FF
3E007C
1C0038
1C0038
1C0038
1C0038
1C0038
1C0038
1C0038
1C0038
1C0038
1C0038
1C0038
1C0038
1C0038
1C0038
1C0038
1C0038
1C0070
0E0070
0E0070
0F00E0
07C1C0
03FF80
007E00
ENDCHAR
STARTCHAR 1E7B
ENCODING 7803
SWIDTH 525 0
DWIDTH 21 0
BBX 21 34 0 0
BITMAP
060300
070380
070380
060300
060300
000000
000000
000000
000000
07FF80
0FFF80
000000
000000
000000
000000
000000
0C00C0
FC0FC0
1C01C0
1C01C0
1C01C0
1C01C0
1C01C0
1C01C0
1C01C0
1C01C0
1C01C0
1C01C0
1C01C0
1C03C0
1C07C0
1E1DC8
0FF1F0
07C0C0
ENDCHAR
STARTCHAR 1E7C
ENCODING 7804
SWIDTH 650 0
DWIDTH 26 0
BBX 25 32 0 0
BITMAP
00782000
00FC3000
01FE6000
010FC000
03030000
00000000
00000000
FF807F80
1C000E00
1E000C00
0E001C00
0E001800
0F001800
07003800
07003000
03803000
03807000
03C06000
01C0E000
01C0E000
01E0C000
00E1C000
00E18000
00718000
00738000
007B0000
003B0000
003F0000
003E0000
001E0000
001E0000
00080000
ENDCHAR
STARTCHAR 1E7D
ENCODING 7805
SWIDTH 500 0
DWIDTH 20 0
BBX 19 27 0 0
BITMAP
01C080
03E180
07F300
0C7E00
081C00
000000
000000
000000
000000
FF07E0
3C01C0
1C0180
1C0380
0E0300
0E0300
0E0600
070600
070600
038C00
038C00
039C00
01D800
01D800
00F000
00F000
00F000
004000
ENDCHAR
STARTCHAR 1E7E
ENCODING 7806
SWIDTH 650 0
DWIDTH 26 0
BBX 25 33 0 -8
BITMAP
FF807F80
1C000E00
1E000C00
0E001C00
0E001800
0F001800
07003800
07003000
03803000
03807000
03C06000
01C0E000
01C0E000
01E0C000
00E1C000
00E18000
00718000
00738000
007B0000
003B0000
003F0000
003E0000
001E0000
001E0000
00080000
00000000
00000000
00000000
000C0000
001C0000
001C0000
001C0000
00180000
ENDCHAR
STARTCHAR 1E7F
ENCODING 7807
SWIDTH 500 0
DWIDTH 20 0
BBX 19 26 0 -8
BITMAP
FF07E0
3C01C0
1C0180
1C0380
0E0300
0E0300
0E0600
070600
070600
038C00
038C00
039C00
01D800
01D800
00F000
00F000
00F000
004000
000000
000000
000000
006000
00E000
00E000
00E000
00C000
ENDCHAR
STARTCHAR 1E80
ENCODING 7808
SWIDTH 850 0
DWIDTH 34 0
BBX 33 34 0 0
BITMAP
000C000000
003E000000
003F000000
000F800000
0003C00000
0000E00000
0000700000
0000100000
0000000000
FF80C07F80
1C00C00E00
1C00C00C00
1C01E00C00
0E01E01C00
0E01E01C00
0E03F01800
0E03701800
0703301800
0707383800
0706383800
0706183000
070E1C3000
038C1C3000
038C0E7000
039C0E6000
03980E6000
01D8076000
01F8076000
01F007E000
01F003C000
01F003C000
00E003C000
00E001C000
00C0018000
ENDCHAR
STARTCHAR 1E81
ENCODING 7809
SWIDTH 700 0
DWIDTH 28 0
BBX 28 29 0 0
BITMAP
00700000
00780000
003C0000
001C0000
000E0000
00060000
00030000
00030000
00018000
00000000
00000000
FF0307F0
3C0700C0
1C0700C0
1C078180
1C0F8180
0E0F8180
0E0DC380
0E19C300
0619C300
0718E300
0730E600
03307600
03B07600
03E07C00
01E03C00
01E03C00
01C03C00
01801000
ENDCHAR
STARTCHAR 1E82
ENCODING 7810
SWIDTH 850 0
DWIDTH 34 0
BBX 33 34 0 0
BITMAP
00000C0000
00001E0000
00003E0000
0000780000
0000F00000
0001C00000
0003000000
0006000000
0000000000
FF80C07F80
1C00C00E00
1C00C00C00
1C01E00C00
0E01E01C00
0E01E01C00
0E03F01800
0E03701800
0703301800
0707383800
0706383800
0706183000
070E1C3000
038C1C3000
038C0E7000
039C0E6000
03980E6000
01D8076000
01F8076000
01F007E000
01F003C000
01F003C000
00E003C000
00E001C000
00C0018000
ENDCHAR
STARTCHAR 1E83
ENCODING 7811
SWIDTH 700 0
DWIDTH 28 0
BBX 28 29 0 0
BITMAP
00007000
0000F800
0000E000
0001E000
0001C000
00038000
00030000
00060000
00040000
00000000
00000000
FF0307F0
3C0700C0
1C0700C0
1C078180
1C0F8180
0E0F8180
0E0DC380
0E19C300
0619C300
0718E300
0730E600
03307600
03B07600
03E07C00
01E03C00
01E03C00
01C03C00
01801000
ENDCHAR
STARTCHAR 1E84
ENCODING 7812
SWIDTH 850 0
DWIDTH 34 0
BBX 33 31 0 0
BITMAP
001C0E0000
001C0E0000
001C0E0000
001C0E0000
00180C0000
0000000000
FF80C07F80
1C00C00E00
1C00C00C00
1C01E00C00
0E01E01C00
0E01E01C00
0E03F01800
0E03701800
0703301800
0707383800
0706383800
0706183000
070E1C3000
038C1C3000
038C0E7000
039C0E6000
03980E6000
01D8076000
01F8076000
01F007E000
01F003C000
01F003C000
00E003C000
00E001C000
00C0018000
ENDCHAR
STARTCHAR 1E85
ENCODING 7813
SWIDTH 700 0
DWIDTH 28 0
BBX 28 27 0 0
BITMAP
00603000
00703800
00703800
00603000
00603000
00000000
00000000
00000000
00000000
FF0307F0
3C0700C0
1C0700C0
1C078180
1C0F8180
0E0F8180
0E0DC380
0E19C300
0619C300
0718E300
0730E600
03307600
03B07600
03E07C00
01E03C00
01E03C00
01C03C00
01801000
ENDCHAR
STARTCHAR 1E86
ENCODING 7814
SWIDTH 850 0
DWIDTH 34 0
BBX 33 31 0 0
BITMAP
0001C00000
0001C00000
0001C00000
0001C00000
0001800000
0000000000
FF80C07F80
1C00C00E00
1C00C00C00
1C01E00C00
0E01E01C00
0E01E01C00
0E03F01800
0E03701800
0703301800
0707383800
0706383800
0706183000
070E1C3000
038C1C3000
038C0E7000
039C0E6000
03980E6000
01D8076000
01F8076000
01F007E000
01F003C000
01F003C000
00E003C000
00E001C000
00C0018000
ENDCHAR
STARTCHAR 1E87
ENCODING 7815
SWIDTH 700 0
DWIDTH 28 0
BBX 28 27 0 0
BITMAP
00060000
00070000
00070000
00060000
00060000
00000000
00000000
00000000
00000000
FF0307F0
3C0700C0
1C0700C0
1C078180
1C0F8180
0E0F8180
0E0DC380
0E19C300
0619C300
0718E300
0730E600
03307600
03B07600
03E07C00
01E03C00
01E03C00
01C03C00
01801000
ENDCHAR
STARTCHAR 1E88
ENCODING 7816
SWIDTH 850 0
DWIDTH 34 0
BBX 33 33 0 -8
BITMAP
FF80C07F80
1C00C00E00
1C00C00C00
1C01E00C00
0E01E01C00
0E01E01C00
0E03F01800
0E03701800
0703301800
0707383800
0706383800
0706183000
070E1C3000
038C1C3000
038C0E7000
039C0E6000
03980E6000
01D8076000
01F8076000
01F007E000
01F003C000
01F003C000
00E003C000
00E001C000
00C0018000
0000000000
0000000000
0000000000
0000C00000
0001C00000
0001C00000
0001C00000
0001800000
ENDCHAR
STARTCHAR 1E89
ENCODING 7817
SWIDTH 700 0
DWIDTH 28 0
BBX 28 26 0 -8
BITMAP
FF0307F0
3C0700C0
1C0700C0
1C078180
1C0F8180
0E0F8180
0E0DC380
0E19C300
0619C300
0718E300
0730E600
03307600
03B07600
03E07C00
01E03C00
01E03C00
01C03C00
01801000
00000000
00000000
00000000
00060000
00060000
000E0000
000E0000
00060000
ENDCHAR
STARTCHAR 1E8A
ENCODING 7818
SWIDTH 625 0
DWIDTH 25 0
BBX 23 31 1 0
BITMAP
003000
007000
007000
007000
002000
000000
FF87FC
3C00F0
1C00E0
1E01C0
0F0180
070380
078700
03C600
01EE00
00FC00
00FC00
007800
007800
007C00
00FE00
01CE00
01CF00
038780
030380
0703C0
0E01E0
0C00E0
1C00F0
3C00F8
FF03FE
ENDCHAR
STARTCHAR 1E8B
ENCODING 7819
SWIDTH 500 0
DWIDTH 20 0
BBX 20 27 0 0
BITMAP
006000
00E000
00E000
00E000
00C000
000000
000000
000000
000000
7F8FE0
1E0380
0E0300
070600
078C00
039C00
01D800
00F000
00F000
00F000
01B800
019C00
031E00
060E00
0E0700
0C0380
3C03C0
FF0FF0
ENDCHAR
STARTCHAR 1E8C
ENCODING 7820
SWIDTH 625 0
DWIDTH 25 0
BBX 23 31 1 0
BITMAP
030180
070380
070380
070380
020100
000000
FF87FC
3C00F0
1C00E0
1E01C0
0F0180
070380
078700
03C600
01EE00
00FC00
00FC00
007800
007800
007C00
00FE00
01CE00
01CF00
038780
030380
0703C0
0E01E0
0C00E0
1C00F0
3C00F8
FF03FE
ENDCHAR
STARTCHAR 1E8D
ENCODING 7821
SWIDTH 500 0
DWIDTH 20 0
BBX 20 27 0 0
BITMAP
060300
0E0700
0E0700
0E0700
0C0600
000000
000000
000000
000000
7F8FE0
1E0380
0E0300
070600
078C00
039C00
01D800
00F000
00F000
00F000
01B800
019C00
031E00
060E00
0E0700
0C0380
3C03C0
FF0FF0
ENDCHAR
STARTCHAR 1E8E
ENCODING 7822
SWIDTH 600 0
DWIDTH 24 0
BBX 23 31 0 0
BITMAP
003800
003800
003800
003800
003000
000000
F801FE
3C0078
1E0060
0E00E0
0700C0
0781C0
038180
03C380
01C300
00E700
00EE00
007E00
007C00
003800
003800
003800
003800
003800
003800
003800
003800
003800
003800
007C00
01FF00
ENDCHAR
STARTCHAR 1E8F
ENCODING 7823
SWIDTH 500 0
DWIDTH 20 0
BBX 20 36 -1 -9
BITMAP
003000
003000
007000
007000
003000
000000
000000
000000
000000
7F83F0
1E00E0
0E00C0
0E00C0
070180
070180
070300
038300
038300
01C600
01C600
01C600
00EC00
00EC00
007800
007800
007800
003000
003000
006000
006000
00E000
01C000
438000
7F0000
FE0000
7C0000
ENDCHAR
STARTCHAR 1E90
ENCODING 7824
SWIDTH 525 0
DWIDTH 21 0
BBX 18 33 1 0
BITMAP
00F000
01F000
03F800
039C00
060E00
0C0300
080100
000000
3FFFC0
3FFFC0
300380
200780
600F00
600E00
001E00
001C00
003800
007800
007000
00F000
01E000
01C000
03C000
038000
070000
0F0000
0E0000
1E0040
3C0040
3800C0
7800C0
7FFFC0
FFFFC0
ENDCHAR
STARTCHAR 1E91
ENCODING 7825
SWIDTH 450 0
DWIDTH 18 0
BBX 15 29 1 0
BITMAP
01C0
03C0
03E0
07F0
0F70
0E38
1C1C
180C
3006
0000
0000
3FFE
3FFE
601C
6038
4038
0070
00E0
01C0
01C0
0380
0700
0700
0E00
1C02
3802
3806
7FFE
FFFE
ENDCHAR
STARTCHAR 1E92
ENCODING 7826
SWIDTH 525 0
DWIDTH 21 0
BBX 18 33 1 -8
BITMAP
3FFFC0
3FFFC0
300380
200780
600F00
600E00
001E00
001C00
003800
007800
007000
00F000
01E000
01C000
03C000
038000
070000
0F0000
0E0000
1E0040
3C0040
3800C0
7800C0
7FFFC0
FFFFC0
000000
000000
000000
00C000
00C000
00E000
00C000
00C000
ENDCHAR
STARTCHAR 1E93
ENCODING 7827
SWIDTH 450 0
DWIDTH 18 0
BBX 15 26 1 -8
BITMAP
3FFE
3FFE
601C
6038
4038
0070
00E0
01C0
01C0
0380
0700
0700
0E00
1C02
3802
3806
7FFE
FFFE
0000
0000
0000
0180
0380
0380
0380
0300
ENDCHAR
STARTCHAR 1E94
ENCODING 7828
SWIDTH 525 0
DWIDTH 21 0
BBX 18 31 1 -6
BITMAP
3FFFC0
3FFFC0
300380
200780
600F00
600E00
001E00
001C00
003800
007800
007000
00F000
01E000
01C000
03C000
038000
070000
0F0000
0E0000
1E0040
3C0040
3800C0
7800C0
7FFFC0
FFFFC0
000000
000000
000000
000000
1FFF00
1FFF00
ENDCHAR
STARTCHAR 1E95
ENCODING 7829
SWIDTH 450 0
DWIDTH 18 0
BBX 15 24 1 -6
BITMAP
3FFE
3FFE
601C
6038
4038
0070
00E0
01C0
01C0
0380
0700
0700
0E00
1C02
3802
3806
7FFE
FFFE
0000
0000
0000
0000
3FFC
7FFC
ENDCHAR
STARTCHAR 1E96
ENCODING 7830
SWIDTH 550 0
DWIDTH 22 0
BBX 21 36 1 -6
BITMAP
0C0000
FC0000
7C0000
1C0000
1C0000
1C0000
1C0000
1C0000
1C0000
1C0000
1C0000
1C0000
1C1F00
1C3F80
1CE3C0
1D81C0
1F01C0
1E01C0
1E01C0
1C01C0
1C01C0
1C01C0
1C01C0
1C01C0
1C01C0
1C01C0
1C01C0
1C01C0
3E03C0
FF8FF8
000000
000000
000000
000000
0FFF80
0FFF00
ENDCHAR
STARTCHAR 1E97
ENCODING 7831
SWIDTH 350 0
DWIDTH 14 0
BBX 13 32 0 0
BITMAP
7038
7038
7038
7038
6030
0000
0000
0400
0C00
1C00
1C00
1C00
1C00
1C00
7FF8
FFF0
1C20
1C00
1C00
1C00
1C00
1C00
1C00
1C00
1C00
1C00
1C00
1C00
1C00
1E38
0FF0
0780
ENDCHAR
STARTCHAR 1E98
ENCODING 7832
SWIDTH 700 0
DWIDTH 28 0
BBX 28 28 0 0
BITMAP
00078000
000FC000
0018E000
00186000
00186000
0018C000
001F8000
000F0000
00000000
00000000
FF0307F0
3C0700C0
1C0700C0
1C078180
1C0F8180
0E0F8180
0E0DC380
0E19C300
0619C300
0718E300
0730E600
03307600
03B07600
03E07C00
01E03C00
01E03C00
01C03C00
01801000
ENDCHAR
STARTCHAR 1E99
ENCODING 7833
SWIDTH 500 0
DWIDTH 20 0
BBX 20 37 -1 -9
BITMAP
003C00
007E00
00C600
008600
018600
01C600
00FC00
007800
000000
000000
7F83F0
1E00E0
0E00C0
0E00C0
070180
070180
070300
038300
038300
01C600
01C600
01C600
00EC00
00EC00
007800
007800
007800
003000
003000
006000
006000
00E000
01C000
438000
7F0000
FE0000
7C0000
ENDCHAR
STARTCHAR 1EA0
ENCODING 7840
SWIDTH 600 0
DWIDTH 24 0
BBX 23 33 0 -8
BITMAP
000800
003800
003C00
003C00
006C00
006E00
006E00
00C600
00C700
00C700
018300
018380
018380
030180
03FFC0
03FFC0
0600E0
0600E0
0600E0
0C0070
0C0070
0C0070
180038
1C0078
FF01FE
000000
000000
000000
001000
003800
003800
003800
003000
ENDCHAR
STARTCHAR 1EA1
ENCODING 7841
SWIDTH 450 0
DWIDTH 18 0
BBX 16 26 2 -8
BITMAP
03E0
1FF0
3878
7038
F038
C038
0038
0078
07F8
1C38
7038
6038
E038
E038
E078
F1B9
7F3F
3C18
0000
0000
0000
0300
0700
0700
0700
0600
ENDCHAR
STARTCHAR 1EA2
ENCODING 7842
SWIDTH 600 0
DWIDTH 24 0
BBX 23 34 0 0
BITMAP
003C00
007E00
00C600
00CC00
001000
003000
001800
000000
000000
000800
003800
003C00
003C00
006C00
006E00
006E00
00C600
00C700
00C700
018300
018380
018380
030180
03FFC0
03FFC0
0600E0
0600E0
0600E0
0C0070
0C0070
0C0070
180038
1C0078
FF01FE
ENDCHAR
STARTCHAR 1EA3
ENCODING 7843
SWIDTH 450 0
DWIDTH 18 0
BBX 16 28 2 0
BITMAP
03C0
07C0
0CE0
0CC0
1100
0200
0700
0080
0000
0000
03E0
1FF0
3878
7038
F038
C038
0038
0078
07F8
1C38
7038
6038
E038
E038
E078
F1B9
7F3F
3C18
ENDCHAR
STARTCHAR 1EA4
ENCODING 7844
SWIDTH 600 0
DWIDTH 24 0
BBX 23 42 0 0
BITMAP
000180
0003C0
0007C0
000F80
001E00
003800
007000
00C000
000000
003800
007C00
00FE00
01E700
018380
0301C0
060080
000000
000800
003800
003C00
003C00
006C00
006E00
006E00
00C600
00C700
00C700
018300
018380
018380
030180
03FFC0
03FFC0
0600E0
0600E0
0600E0
0C0070
0C0070
0C0070
180038
1C0078
FF01FE
ENDCHAR
STARTCHAR 1EA5
ENCODING 7845
SWIDTH 450 0
DWIDTH 18 0
BBX 16 38 2 0
BITMAP
0030
0078
0070
00F0
00E0
01C0
0180
0300
0600
0380
0780
07C0
0FE0
1EE0
1C70
3838
3018
600C
0000
0000
03E0
1FF0
3878
7038
F038
C038
0038
0078
07F8
1C38
7038
6038
E038
E038
E078
F1B9
7F3F
3C18
ENDCHAR
STARTCHAR 1EA6
ENCODING 7846
SWIDTH 600 0
DWIDTH 24 0
BBX 23 42 0 0
BITMAP
010000
078000
07C000
01E000
00F800
003C00
000E00
000200
000000
003800
007C00
00FE00
01E700
018380
0301C0
060080
000000
000800
003800
003C00
003C00
006C00
006E00
006E00
00C600
00C700
00C700
018300
018380
018380
030180
03FFC0
03FFC0
0600E0
0600E0
0600E0
0C0070
0C0070
0C0070
180038
1C0078
FF01FE
ENDCHAR
STARTCHAR 1EA7
ENCODING 7847
SWIDTH 450 0
DWIDTH 18 0
BBX 16 38 2 0
BITMAP
1800
3C00
3C00
1E00
0E00
0700
0300
0180
00C0
0380
0780
07C0
0FE0
1EE0
1C70
3838
3018
600C
0000
0000
03E0
1FF0
3878
7038
F038
C038
0038
0078
07F8
1C38
7038
6038
E038
E038
E078
F1B9
7F3F
3C18
ENDCHAR
STARTCHAR 1EA8
ENCODING 7848
SWIDTH 600 0
DWIDTH 24 0
BBX 23 42 0 0
BITMAP
003C00
007E00
00C600
00C400
001800
003000
001800
000000
000000
003800
007C00
00FE00
01E700
018380
0301C0
060080
000000
000800
003800
003C00
003C00
006C00
006E00
006E00
00C600
00C700
00C700
018300
018380
018380
030180
03FFC0
03FFC0
0600E0
0600E0
0600E0
0C0070
0C0070
0C0070
180038
1C0078
FF01FE
ENDCHAR
STARTCHAR 1EA9
ENCODING 7849
SWIDTH 450 0
DWIDTH 18 0
BBX 16 37 2 0
BITMAP
0180
07C0
0CE0
0CC0
1100
0200
0700
0080
0380
0780
07C0
0FE0
1EE0
1C70
3838
3018
600C
0000
0000
03E0
1FF0
3878
7038
F038
C038
0038
0078
07F8
1C38
7038
6038
E038
E038
E078
F1B9
7F3F
3C18
ENDCHAR
STARTCHAR 1EAA
ENCODING 7850
SWIDTH 600 0
DWIDTH 24 0
BBX 23 40 0 0
BITMAP
00E040
01F0C0
03FC80
023F80
040E00
000000
000000
003800
007C00
00FE00
01E700
018380
0301C0
060080
000000
000800
003800
003C00
003C00
006C00
006E00
006E00
00C600
00C700
00C700
018300
018380
018380
030180
03FFC0
03FFC0
0600E0
0600E0
0600E0
0C0070
0C0070
0C0070
180038
1C0078
FF01FE
ENDCHAR
STARTCHAR 1EAB
ENCODING 7851
SWIDTH 450 0
DWIDTH 18 0
BBX 16 36 2 0
BITMAP
0C04
1F0C
3F98
73F0
41E0
0000
0000
0380
0780
07C0
0FE0
1EE0
1C70
3838
3018
600C
0000
0000
03E0
1FF0
3878
7038
F038
C038
0038
0078
07F8
1C38
7038
6038
E038
E038
E078
F1B9
7F3F
3C18
ENDCHAR
STARTCHAR 1EAC
ENCODING 7852
SWIDTH 600 0
DWIDTH 24 0
BBX 23 41 0 -8
BITMAP
003800
007C00
00FE00
01E700
018380
0301C0
060080
000000
000800
003800
003C00
003C00
006C00
006E00
006E00
00C600
00C700
00C700
018300
018380
018380
030180
03FFC0
03FFC0
0600E0
0600E0
0600E0
0C0070
0C0070
0C0070
180038
1C0078
FF01FE
000000
000000
000000
001000
003800
003800
003800
003000
ENDCHAR
STARTCHAR 1EAD
ENCODING 7853
SWIDTH 450 0
DWIDTH 18 0
BBX 16 37 2 -8
BITMAP
0380
0780
07C0
0FE0
1EE0
1C70
3838
3018
600C
0000
0000
03E0
1FF0
3878
7038
F038
C038
0038
0078
07F8
1C38
7038
6038
E038
E038
E078
F1B9
7F3F
3C18
0000
0000
0000
0300
0700
0700
0700
0600
ENDCHAR
STARTCHAR 1EAE
ENCODING 7854
SWIDTH 600 0
DWIDTH 24 0
BBX 23 41 0 0
BITMAP
000100
000180
0003C0
0007C0
001F00
003C00
007800
00E000
068040
0200C0
030180
01C700
00FE00
003800
000000
000000
000800
003800
003C00
003C00
006C00
006E00
006E00
00C600
00C700
00C700
018300
018380
018380
030180
03FFC0
03FFC0
0600E0
0600E0
0600E0
0C0070
0C0070
0C0070
180038
1C0078
FF01FE
ENDCHAR
STARTCHAR 1EAF
ENCODING 7855
SWIDTH 450 0
DWIDTH 18 0
BBX 16 35 2 0
BITMAP
0038
0078
00F0
00E0
01C0
0180
0380
0300
4608
600C
3018
1830
1FE0
07C0
0000
0000
0000
03E0
1FF0
3878
7038
F038
C038
0038
0078
07F8
1C38
7038
6038
E038
E038
E078
F1B9
7F3F
3C18
ENDCHAR
STARTCHAR 1EB0
ENCODING 7856
SWIDTH 600 0
DWIDTH 24 0
BBX 23 41 0 0
BITMAP
010000
038000
07C000
03E000
01F000
007800
001C00
000600
060440
0200C0
030180
01C700
00FE00
003800
000000
000000
000800
003800
003C00
003C00
006C00
006E00
006E00
00C600
00C700
00C700
018300
018380
018380
030180
03FFC0
03FFC0
0600E0
0600E0
0600E0
0C0070
0C0070
0C0070
180038
1C0078
FF01FE
ENDCHAR
STARTCHAR 1EB1
ENCODING 7857
SWIDTH 450 0
DWIDTH 18 0
BBX 16 35 2 0
BITMAP
3800
3C00
1C00
0E00
0700
0300
0380
0180
40C8
600C
3018
1830
1FE0
07C0
0000
0000
0000
03E0
1FF0
3878
7038
F038
C038
0038
0078
07F8
1C38
7038
6038
E038
E038
E078
F1B9
7F3F
3C18
ENDCHAR
STARTCHAR 1EB2
ENCODING 7858
SWIDTH 600 0
DWIDTH 24 0
BBX 23 41 0 0
BITMAP
001000
003C00
007E00
00C400
010800
003000
003000
001800
060040
0200C0
030180
01C700
00FE00
003800
000000
000000
000800
003800
003C00
003C00
006C00
006E00
006E00
00C600
00C700
00C700
018300
018380
018380
030180
03FFC0
03FFC0
0600E0
0600E0
0600E0
0C0070
0C0070
0C0070
180038
1C0078
FF01FE
ENDCHAR
STARTCHAR 1EB3
ENCODING 7859
SWIDTH 450 0
DWIDTH 18 0
BBX 16 34 2 0
BITMAP
03C0
07C0
0CE0
1880
0100
0600
0180
4008
600C
3018
1830
1FE0
07C0
0000
0000
0000
03E0
1FF0
3878
7038
F038
C038
0038
0078
07F8
1C38
7038
6038
E038
E038
E078
F1B9
7F3F
3C18
ENDCHAR
STARTCHAR 1EB4
ENCODING 7860
SWIDTH 600 0
DWIDTH 24 0
BBX 23 40 0 0
BITMAP
000040
01F0C0
03FD80
021F00
060600
000000
000000
060040
0200C0
030180
01C780
00FF00
003C00
000000
000000
000800
003800
003C00
003C00
006C00
006E00
006E00
00C600
00C700
00C700
018300
018380
018380
030180
03FFC0
03FFC0
0600E0
0600E0
0600E0
0C0070
0C0070
0C0070
180038
1C0078
FF01FE
ENDCHAR
STARTCHAR 1EB5
ENCODING 7861
SWIDTH 450 0
DWIDTH 18 0
BBX 16 33 2 0
BITMAP
1E04
3F08
3FD8
63F0
40C0
0000
4008
600C
3018
1830
1FE0
07C0
0000
0000
0000
03E0
1FF0
3878
7038
F038
C038
0038
0078
07F8
1C38
7038
6038
E038
E038
E078
F1B9
7F3F
3C18
ENDCHAR
STARTCHAR 1EB6
ENCODING 7862
SWIDTH 600 0
DWIDTH 24 0
BBX 23 41 0 -8
BITMAP
060040
0200C0
030180
01C700
00FE00
003800
000000
000000
000800
003800
003C00
003C00
006C00
006E00
006E00
00C600
00C700
00C700
018300
018380
018380
030180
03FFC0
03FFC0
0600E0
0600E0
0600E0
0C0070
0C0070
0C0070
180038
1C0078
FF01FE
000000
000000
000000
001000
003800
003800
003800
003000
ENDCHAR
STARTCHAR 1EB7
ENCODING 7863
SWIDTH 450 0
DWIDTH 18 0
BBX 16 35 2 -8
BITMAP
4008
600C
3018
1830
1FE0
07C0
0000
0000
0000
03E0
1FF0
3878
7038
F038
C038
0038
0078
07F8
1C38
7038
6038
E038
E038
E078
F1B9
7F3F
3C18
0000
0000
0000
0300
0700
0700
0700
0600
ENDCHAR
STARTCHAR 1EB8
ENCODING 7864
SWIDTH 500 0
DWIDTH 20 0
BBX 18 33 1 -8
BITMAP
FFFF00
3FFF00
1C0300
1C0100
1C0100
1C0000
1C0000
1C0000
1C0000
1C0000
1FFC00
1FFC00
1C0800
1C0000
1C0000
1C0000
1C0000
1C0000
1C0000
1C0000
1C0040
1C00C0
1C0180
3FFF80
FFFF80
000000
000000
000000
00C000
01C000
01C000
01C000
018000
ENDCHAR
STARTCHAR 1EB9
ENCODING 7865
SWIDTH 450 0
DWIDTH 18 0
BBX 14 26 2 -8
BITMAP
03C0
0FF0
1C78
3038
701C
601C
E01C
FFFC
FFF8
E000
E000
E000
F000
7004
780C
3C38
1FF0
07C0
0000
0000
0000
0100
0380
0380
0380
0300
ENDCHAR
STARTCHAR 1EBA
ENCODING 7866
SWIDTH 500 0
DWIDTH 20 0
BBX 18 34 1 0
BITMAP
01E000
03F000
063000
062000
00C000
018000
00C000
000000
000000
FFFF00
3FFF00
1C0300
1C0100
1C0100
1C0000
1C0000
1C0000
1C0000
1C0000
1FFC00
1FFC00
1C0800
1C0000
1C0000
1C0000
1C0000
1C0000
1C0000
1C0000
1C0040
1C00C0
1C0180
3FFF80
FFFF80
ENDCHAR
STARTCHAR 1EBB
ENCODING 7867
SWIDTH 450 0
DWIDTH 18 0
BBX 14 28 2 0
BITMAP
01C0
03E0
0660
0C40
0080
0300
0180
0000
0000
0000
03C0
0FF0
1C78
3038
701C
601C
E01C
FFFC
FFF8
E000
E000
E000
F000
7004
780C
3C38
1FF0
07C0
ENDCHAR
STARTCHAR 1EBC
ENCODING 7868
SWIDTH 500 0
DWIDTH 20 0
BBX 18 32 1 0
BITMAP
078200
0FC600
1FEC00
10FC00
203000
000000
000000
FFFF00
3FFF00
1C0300
1C0100
1C0100
1C0000
1C0000
1C0000
1C0000
1C0000
1FFC00
1FFC00
1C0800
1C0000
1C0000
1C0000
1C0000
1C0000
1C0000
1C0000
1C0040
1C00C0
1C0180
3FFF80
FFFF80
ENDCHAR
STARTCHAR 1EBD
ENCODING 7869
SWIDTH 450 0
DWIDTH 18 0
BBX 15 27 2 0
BITMAP
0E06
1F84
3FCC
31F8
60F0
0000
0000
0000
0000
03C0
0FF0
1C78
3038
701C
601C
E01C
FFFC
FFF8
E000
E000
E000
F000
7004
780C
3C38
1FF0
07C0
ENDCHAR
STARTCHAR 1EBE
ENCODING 7870
SWIDTH 500 0
DWIDTH 20 0
BBX 18 42 1 0
BITMAP
000C00
001E00
003E00
007C00
00F000
01C000
038000
060000
000000
01C000
03E000
07F000
073800
0C1C00
180E00
100200
000000
FFFF00
3FFF00
1C0300
1C0100
1C0100
1C0000
1C0000
1C0000
1C0000
1C0000
1FFC00
1FFC00
1C0800
1C0000
1C0000
1C0000
1C0000
1C0000
1C0000
1C0000
1C0040
1C00C0
1C0180
3FFF80
FFFF80
ENDCHAR
STARTCHAR 1EBF
ENCODING 7871
SWIDTH 450 0
DWIDTH 18 0
BBX 14 38 2 0
BITMAP
0038
003C
0078
0070
00E0
00C0
0180
0180
0300
0180
03C0
07E0
07E0
0E70
1C38
1818
300C
2004
0000
0000
03C0
0FF0
1C78
3038
701C
601C
E01C
FFFC
FFF8
E000
E000
E000
F000
7004
780C
3C38
1FF0
07C0
ENDCHAR
STARTCHAR 1EC0
ENCODING 7872
SWIDTH 500 0
DWIDTH 20 0
BBX 18 42 1 0
BITMAP
080000
3C0000
3E0000
0F8000
03C000
01E000
007000
001000
000000
01C000
03E000
07F000
073800
0C1C00
180E00
100200
000000
FFFF00
3FFF00
1C0300
1C0100
1C0100
1C0000
1C0000
1C0000
1C0000
1C0000
1FFC00
1FFC00
1C0800
1C0000
1C0000
1C0000
1C0000
1C0000
1C0000
1C0000
1C0040
1C00C0
1C0180
3FFF80
FFFF80
ENDCHAR
STARTCHAR 1EC1
ENCODING 7873
SWIDTH 450 0
DWIDTH 18 0
BBX 14 38 2 0
BITMAP
0C00
3C00
1E00
0E00
0700
0300
0180
00C0
00C0
0180
03C0
07E0
07E0
0E70
1C38
1818
300C
2004
0000
0000
03C0
0FF0
1C78
3038
701C
601C
E01C
FFFC
FFF8
E000
E000
E000
F000
7004
780C
3C38
1FF0
07C0
ENDCHAR
STARTCHAR 1EC2
ENCODING 7874
SWIDTH 500 0
DWIDTH 20 0
BBX 18 42 1 0
BITMAP
00E000
03F000
063000
062000
00C000
018000
00C000
000000
000000
01C000
03E000
07F000
073800
0C1C00
180E00
100200
000000
FFFF00
3FFF00
1C0300
1C0100
1C0100
1C0000
1C0000
1C0000
1C0000
1C0000
1FFC00
1FFC00
1C0800
1C0000
1C0000
1C0000
1C0000
1C0000
1C0000
1C0000
1C0040
1C00C0
1C0180
3FFF80
FFFF80
ENDCHAR
STARTCHAR 1EC3
ENCODING 7875
SWIDTH 450 0
DWIDTH 18 0
BBX 14 37 2 0
BITMAP
01C0
03E0
0660
0C40
0080
0300
0100
0080
0180
03C0
07E0
07E0
0E70
1C38
1818
300C
2004
0000
0000
03C0
0FF0
1C78
3038
701C
601C
E01C
FFFC
FFF8
E000
E000
E000
F000
7004
780C
3C38
1FF0
07C0
ENDCHAR
STARTCHAR 1EC4
ENCODING 7876
SWIDTH 500 0
DWIDTH 20 0
BBX 18 40 1 0
BITMAP
070200
0FC200
1FE600
18FC00
307000
000000
000000
01C000
03E000
07F000
073800
0C1C00
180E00
100200
000000
FFFF00
3FFF00
1C0300
1C0100
1C0100
1C0000
1C0000
1C0000
1C0000
1C0000
1FFC00
1FFC00
1C0800
1C0000
1C0000
1C0000
1C0000
1C0000
1C0000
1C0000
1C0040
1C00C0
1C0180
3FFF80
FFFF80
ENDCHAR
STARTCHAR 1EC5
ENCODING 7877
SWIDTH 450 0
DWIDTH 18 0
BBX 15 36 2 0
BITMAP
0604
1F06
1F8C
33F8
60F0
0000
0000
0180
03C0
07E0
07E0
0E70
1C38
1818
300C
2004
0000
0000
03C0
0FF0
1C78
3038
701C
601C
E01C
FFFC
FFF8
E000
E000
E000
F000
7004
780C
3C38
1FF0
07C0
ENDCHAR
STARTCHAR 1EC6
ENCODING 7878
SWIDTH 500 0
DWIDTH 20 0
BBX 18 41 1 -8
BITMAP
01C000
03E000
07F000
073800
0C1C00
180E00
100200
000000
FFFF00
3FFF00
1C0300
1C0100
1C0100
1C0000
1C0000
1C0000
1C0000
1C0000
1FFC00
1FFC00
1C0800
1C0000
1C0000
1C0000
1C0000
1C0000
1C0000
1C0000
1C0040
1C00C0
1C0180
3FFF80
FFFF80
000000
000000
000000
00C000
01C000
01C000
01C000
018000
ENDCHAR
STARTCHAR 1EC7
ENCODING 7879
SWIDTH 450 0
DWIDTH 18 0
BBX 14 37 2 -8
BITMAP
0180
03C0
07E0
07E0
0E70
1C38
1818
300C
2004
0000
0000
03C0
0FF0
1C78
3038
701C
601C
E01C
FFFC
FFF8
E000
E000
E000
F000
7004
780C
3C38
1FF0
07C0
0000
0000
0000
0100
0380
0380
0380
0300
ENDCHAR
STARTCHAR 1EC8
ENCODING 7880
SWIDTH 300 0
DWIDTH 12 0
BBX 9 34 1 0
BITMAP
1E00
3F00
6300
6200
0C00
1800
0C00
0000
0000
FF80
3E00
1C00
1C00
1C00
1C00
1C00
1C00
1C00
1C00
1C00
1C00
1C00
1C00
1C00
1C00
1C00
1C00
1C00
1C00
1C00
1C00
1C00
3E00
FF80
ENDCHAR
STARTCHAR 1EC9
ENCODING 7881
SWIDTH 275 0
DWIDTH 11 0
BBX 9 28 1 0
BITMAP
1E00
3F00
6700
6200
0C00
1800
1800
0400
0000
0000
0C00
FC00
3C00
1C00
1C00
1C00
1C00
1C00
1C00
1C00
1C00
1C00
1C00
1C00
1C00
1C00
3C00
FF80
ENDCHAR
STARTCHAR 1ECA
ENCODING 7882
SWIDTH 300 0
DWIDTH 12 0
BBX 9 33 1 -8
BITMAP
FF80
3E00
1C00
1C00
1C00
1C00
1C00
1C00
1C00
1C00
1C00
1C00
1C00
1C00
1C00
1C00
1C00
1C00
1C00
1C00
1C00
1C00
1C00
3E00
FF80
0000
0000
0000
0800
1C00
1C00
1C00
1800
ENDCHAR
STARTCHAR 1ECB
ENCODING 7883
SWIDTH 275 0
DWIDTH 11 0
BBX 9 35 1 -8
BITMAP
1C00
3C00
3C00
3C00
1800
0000
0000
0000
0000
0C00
FC00
3C00
1C00
1C00
1C00
1C00
1C00
1C00
1C00
1C00
1C00
1C00
1C00
1C00
1C00
3C00
FF80
0000
0000
0000
1800
1C00
1C00
1800
1800
ENDCHAR
STARTCHAR 1ECC
ENCODING 7884
SWIDTH 600 0
DWIDTH 24 0
BBX 21 33 1 -8
BITMAP
00FC00
03FF00
070780
0C03C0
1801E0
3800E0
700070
700070
600078
E00038
E00038
E00038
E00038
E00038
E00038
E00038
F00030
700070
700060
7800E0
3C00C0
1E0180
0F0700
07FE00
01F800
000000
000000
000000
003000
007000
007000
007000
006000
ENDCHAR
STARTCHAR 1ECD
ENCODING 7885
SWIDTH 500 0
DWIDTH 20 0
BBX 16 26 2 -8
BITMAP
03E0
0FF8
1C3C
301E
700E
600F
E007
E007
E007
E007
E007
E007
F006
700E
780C
3E38
1FF0
07C0
0000
0000
0000
0180
0180
01C0
0180
0180
ENDCHAR
STARTCHAR 1ECE
ENCODING 7886
SWIDTH 600 0
DWIDTH 24 0
BBX 21 34 1 0
BITMAP
007C00
00FC00
018C00
018800
003000
006000
003000
000000
000000
00FC00
03FF00
070780
0C03C0
1801E0
3800E0
700070
700070
600078
E00038
E00038
E00038
E00038
E00038
E00038
E00038
F00030
700070
700060
7800E0
3C00C0
1E0180
0F0700
07FE00
01F800
ENDCHAR
STARTCHAR 1ECF
ENCODING 7887
SWIDTH 500 0
DWIDTH 20 0
BBX 16 28 2 0
BITMAP
01E0
03E0
0670
0660
0080
0100
0180
0040
0000
0000
03E0
0FF8
1C3C
301E
700E
600F
E007
E007
E007
E007
E007
E007
F006
700E
780C
3E38
1FF0
07C0
ENDCHAR
STARTCHAR 1ED0
ENCODING 7888
SWIDTH 600 0
DWIDTH 24 0
BBX 21 42 1 0
BITMAP
000300
000780
000FC0
001F00
003C00
007800
00E000
008000
000000
007800
00FC00
00FC00
01CE00
038700
060180
040080
000000
00FC00
03FF00
070780
0C03C0
1801E0
3800E0
700070
700070
600078
E00038
E00038
E00038
E00038
E00038
E00038
E00038
F00030
700070
700060
7800E0
3C00C0
1E0180
0F0700
07FE00
01F800
ENDCHAR
STARTCHAR 1ED1
ENCODING 7889
SWIDTH 500 0
DWIDTH 20 0
BBX 16 38 2 0
BITMAP
0018
003C
0038
0078
0070
00E0
00C0
0180
0100
03C0
03C0
03E0
07F0
0770
0E38
1C1C
180C
3006
0000
0000
03E0
0FF8
1C3C
301E
700E
600F
E007
E007
E007
E007
E007
E007
F006
700E
780C
3E38
1FF0
07C0
ENDCHAR
STARTCHAR 1ED2
ENCODING 7890
SWIDTH 600 0
DWIDTH 24 0
BBX 21 42 1 0
BITMAP
030000
078000
0FC000
03E000
00F000
007800
001C00
000400
000000
007800
00FC00
00FC00
01CE00
038700
060180
040080
000000
00FC00
03FF00
070780
0C03C0
1801E0
3800E0
700070
700070
600078
E00038
E00038
E00038
E00038
E00038
E00038
E00038
F00030
700070
700060
7800E0
3C00C0
1E0180
0F0700
07FE00
01F800
ENDCHAR
STARTCHAR 1ED3
ENCODING 7891
SWIDTH 500 0
DWIDTH 20 0
BBX 16 38 2 0
BITMAP
0C00
1E00
0E00
0F00
0700
0380
01C0
00C0
0060
01C0
03C0
03E0
07F0
0770
0E38
1C1C
180C
3006
0000
0000
03E0
0FF8
1C3C
301E
700E
600F
E007
E007
E007
E007
E007
E007
F006
700E
780C
3E38
1FF0
07C0
ENDCHAR
STARTCHAR 1ED4
ENCODING 7892
SWIDTH 600 0
DWIDTH 24 0
BBX 21 42 1 0
BITMAP
003800
007C00
00CC00
018800
001000
006000
003000
000000
000000
007800
00FC00
00FC00
01CE00
038700
060180
040080
000000
00FC00
03FF00
070780
0C03C0
1801E0
3800E0
700070
700070
600078
E00038
E00038
E00038
E00038
E00038
E00038
E00038
F00030
700070
700060
7800E0
3C00C0
1E0180
0F0700
07FE00
01F800
ENDCHAR
STARTCHAR 1ED5
ENCODING 7893
SWIDTH 500 0
DWIDTH 20 0
BBX 16 37 2 0
BITMAP
00C0
03E0
0670
0620
00C0
0180
0180
0040
01C0
03C0
03E0
07F0
0770
0E38
1C1C
180C
3006
0000
0000
03E0
0FF8
1C3C
301E
700E
600F
E007
E007
E007
E007
E007
E007
F006
700E
780C
3E38
1FF0
07C0
ENDCHAR
STARTCHAR 1ED6
ENCODING 7894
SWIDTH 600 0
DWIDTH 24 0
BBX 21 40 1 0
BITMAP
01E080
03F0C0
07F980
063F00
0C1E00
000000
000000
007800
00FC00
00FC00
01CE00
038700
060180
040080
000000
00FC00
03FF00
070780
0C03C0
1801E0
3800E0
700070
700070
600078
E00038
E00038
E00038
E00038
E00038
E00038
E00038
F00030
700070
700060
7800E0
3C00C0
1E0180
0F0700
07FE00
01F800
ENDCHAR
STARTCHAR 1ED7
ENCODING 7895
SWIDTH 500 0
DWIDTH 20 0
BBX 16 36 2 0
BITMAP
0602
0F86
1FC4
39F8
20F0
0000
0000
01C0
03C0
03E0
07F0
0770
0E38
1C1C
180C
3006
0000
0000
03E0
0FF8
1C3C
301E
700E
600F
E007
E007
E007
E007
E007
E007
F006
700E
780C
3E38
1FF0
07C0
ENDCHAR
STARTCHAR 1ED8
ENCODING 7896
SWIDTH 600 0
DWIDTH 24 0
BBX 21 41 1 -8
BITMAP
007800
00FC00
00FC00
01CE00
038700
060180
040080
000000
00FC00
03FF00
070780
0C03C0
1801E0
3800E0
700070
700070
600078
E00038
E00038
E00038
E00038
E00038
E00038
E00038
F00030
700070
700060
7800E0
3C00C0
1E0180
0F0700
07FE00
01F800
000000
000000
000000
003000
007000
007000
007000
006000
ENDCHAR
STARTCHAR 1ED9
ENCODING 7897
SWIDTH 500 0
DWIDTH 20 0
BBX 16 37 2 -8
BITMAP
01C0
03C0
03E0
07F0
0770
0E38
1C1C
180C
3006
0000
0000
03E0
0FF8
1C3C
301E
700E
600F
E007
E007
E007
E007
E007
E007
F006
700E
780C
3E38
1FF0
07C0
0000
0000
0000
0180
0180
01C0
0180
0180
ENDCHAR
STARTCHAR 1EDA
ENCODING 7898
SWIDTH 600 0
DWIDTH 24 0
BBX 22 34 1 0
BITMAP
000300
000780
000FC0
001F00
003C00
007008
00E03C
00801C
00001C
00FC18
03FF30
0F07E0
1C03C0
1801E0
3800F0
700070
700070
600078
E00038
E00038
E00038
E00038
E00038
E00038
E00038
F00030
700070
700060
7800E0
3C00C0
1E0180
0F0700
07FE00
01F800
ENDCHAR
STARTCHAR 1EDB
ENCODING 7899
SWIDTH 525 0
DWIDTH 21 0
BBX 20 29 2 0
BITMAP
001C00
003C00
003800
007000
007000
00E000
00C000
018020
0301F0
0000F0
000070
03F060
0FFCC0
1C3F00
380F00
700F00
600780
E00780
E00380
E00380
E00380
E00380
F00300
F00300
780600
7C0E00
3E1C00
1FF800
07E000
ENDCHAR
STARTCHAR 1EDC
ENCODING 7900
SWIDTH 600 0
DWIDTH 24 0
BBX 22 34 1 0
BITMAP
030000
078000
0FC000
03E000
00F000
003808
001C3C
00041C
00001C
00FC18
03FF30
0F07E0
1C03C0
1801E0
3800F0
700070
700070
600078
E00038
E00038
E00038
E00038
E00038
E00038
E00038
F00030
700070
700060
7800E0
3C00C0
1E0180
0F0700
07FE00
01F800
ENDCHAR
STARTCHAR 1EDD
ENCODING 7901
SWIDTH 525 0
DWIDTH 21 0
BBX 20 29 2 0
BITMAP
1C0000
1E0000
0E0000
070000
038000
038000
01C000
00C020
0061F0
0000F0
000070
03F060
0FFCC0
1C3F00
380F00
700F00
600780
E00780
E00380
E00380
E00380
E00380
F00300
F00300
780600
7C0E00
3E1C00
1FF800
07E000
ENDCHAR
STARTCHAR 1EDE
ENCODING 7902
SWIDTH 600 0
DWIDTH 24 0
BBX 22 34 1 0
BITMAP
007C00
00FC00
018C00
018800
003000
006008
00303C
00001C
00001C
00FC18
03FF30
0F07E0
1C03C0
1801E0
3800F0
700070
700070
600078
E00038
E00038
E00038
E00038
E00038
E00038
E00038
F00030
700070
700060
7800E0
3C00C0
1E0180
0F0700
07FE00
01F800
ENDCHAR
STARTCHAR 1EDF
ENCODING 7903
SWIDTH 525 0
DWIDTH 21 0
BBX 20 28 2 0
BITMAP
01E000
03E000
067000
066000
008000
010000
018020
0041F0
0000F0
000070
03F060
0FFCC0
1C3F00
380F00
700F00
600780
E00780
E00380
E00380
E00380
E00380
F00300
F00300
780600
7C0E00
3E1C00
1FF800
07E000
ENDCHAR
STARTCHAR 1EE0
ENCODING 7904
SWIDTH 600 0
DWIDTH 24 0
BBX 22 32 1 0
BITMAP
01E080
03F0C0
07F980
063F08
0C0C3C
00001C
00001C
00FC18
03FF30
0F07E0
1C03C0
1801E0
3800F0
700070
700070
600078
E00038
E00038
E00038
E00038
E00038
E00038
E00038
F00030
700070
700060
7800E0
3C00C0
1E0180
0F0700
07FE00
01F800
ENDCHAR
STARTCHAR 1EE1
ENCODING 7905
SWIDTH 525 0
DWIDTH 21 0
BBX 20 27 2 0
BITMAP
070200
0F8600
1FCC00
31F800
207000
000020
0001F0
0000F0
000070
03F060
0FFCC0
1C3F00
380F00
700F00
600780
E00780
E00380
E00380
E00380
E00380
F00300
F00300
780600
7C0E00
3E1C00
1FF800
07E000
ENDCHAR
STARTCHAR 1EE2
ENCODING 7906
SWIDTH 600 0
DWIDTH 24 0
BBX 22 37 1 -8
BITMAP
000008
00003C
00001C
00001C
00FC18
03FF30
0F07E0
1C03C0
1801E0
3800F0
700070
700070
600078
E00038
E00038
E00038
E00038
E00038
E00038
E00038
F00030
700070
700060
7800E0
3C00C0
1E0180
0F0700
07FE00
01F800
000000
000000
000000
003000
007000
007000
007000
006000
ENDCHAR
STARTCHAR 1EE3
ENCODING 7907
SWIDTH 525 0
DWIDTH 21 0
BBX 20 30 2 -8
BITMAP
000020
0001F0
0000F0
000070
03F060
0FFCC0
1C3F00
380F00
700F00
600780
E00780
E00380
E00380
E00380
E00380
F00300
F00300
780600
7C0E00
3E1C00
1FF800
07E000
000000
000000
000000
018000
018000
01C000
018000
018000
ENDCHAR
STARTCHAR 1EE4
ENCODING 7908
SWIDTH 650 0
DWIDTH 26 0
BBX 24 33 1 -8
BITMAP
FF81FF
3E007C
1C0038
1C0038
1C0038
1C0038
1C0038
1C0038
1C0038
1C0038
1C0038
1C0038
1C0038
1C0038
1C0038
1C0038
1C0038
1C0038
1C0070
0E0070
0E0070
0F00E0
07C1C0
03FF80
007E00
000000
000000
000000
001800
003800
003800
003800
001800
ENDCHAR
STARTCHAR 1EE5
ENCODING 7909
SWIDTH 525 0
DWIDTH 21 0
BBX 21 26 0 -8
BITMAP
0C00C0
FC0FC0
1C01C0
1C01C0
1C01C0
1C01C0
1C01C0
1C01C0
1C01C0
1C01C0
1C01C0
1C01C0
1C01C0
1C03C0
1C07C0
1E1DC8
0FF1F0
07C0C0
000000
000000
000000
006000
007000
007000
006000
006000
ENDCHAR
STARTCHAR 1EE6
ENCODING 7910
SWIDTH 650 0
DWIDTH 26 0
BBX 24 34 1 0
BITMAP
001E00
003E00
006600
00C400
001800
003000
000800
000000
000000
FF81FF
3E007C
1C0038
1C0038
1C0038
1C0038
1C0038
1C0038
1C0038
1C0038
1C0038
1C0038
1C0038
1C0038
1C0038
1C0038
1C0038
1C0038
1C0070
0E0070
0E0070
0F00E0
07C1C0
03FF80
007E00
ENDCHAR
STARTCHAR 1EE7
ENCODING 7911
SWIDTH 525 0
DWIDTH 21 0
BBX 21 28 0 0
BITMAP
003800
00FC00
018C00
018800
003000
006000
002000
001000
000000
000000
0C00C0
FC0FC0
1C01C0
1C01C0
1C01C0
1C01C0
1C01C0
1C01C0
1C01C0
1C01C0
1C01C0
1C01C0
1C01C0
1C03C0
1C07C0
1E1DC8
0FF1F0
07C0C0
ENDCHAR
STARTCHAR 1EE8
ENCODING 7912
SWIDTH 675 0
DWIDTH 27 0
BBX 26 34 1 0
BITMAP
00018000
0003E000
0007E000
000F8000
001E0000
003800C0
007003C0
004001C0
000001C0
FF81FF80
3E007F00
1C003E00
1C003800
1C003800
1C003800
1C003800
1C003800
1C003800
1C003800
1C003800
1C003800
1C003800
1C003800
1C003800
1C003800
1C003800
1C003800
1C007800
0E007000
0E007000
0F00E000
07C1C000
03FF8000
007E0000
ENDCHAR
STARTCHAR 1EE9
ENCODING 7913
SWIDTH 625 0
DWIDTH 25 0
BBX 24 29 0 0
BITMAP
000700
000F80
000E00
001E00
001C00
003800
003000
006002
00400F
000007
0C0047
FC07C6
3C0FDC
1C01B8
1C01E0
1C01C0
1C01C0
1C01C0
1C01C0
1C01C0
1C01C0
1C01C0
1C01C0
1C01C0
1C03C0
1E07C0
1E1DD8
0FF1F0
07C0C0
ENDCHAR
STARTCHAR 1EEA
ENCODING 7914
SWIDTH 675 0
DWIDTH 27 0
BBX 26 34 1 0
BITMAP
01800000
03C00000
03E00000
00F00000
00780000
001C00C0
000603C0
000301C0
000001C0
FF81FF80
3E007F00
1C003E00
1C003800
1C003800
1C003800
1C003800
1C003800
1C003800
1C003800
1C003800
1C003800
1C003800
1C003800
1C003800
1C003800
1C003800
1C003800
1C007800
0E007000
0E007000
0F00E000
07C1C000
03FF8000
007E0000
ENDCHAR
STARTCHAR 1EEB
ENCODING 7915
SWIDTH 625 0
DWIDTH 25 0
BBX 24 29 0 0
BITMAP
070000
078000
03C000
01C000
00E000
006000
003000
003002
00180F
000007
0C0047
FC07C6
3C0FDC
1C01B8
1C01E0
1C01C0
1C01C0
1C01C0
1C01C0
1C01C0
1C01C0
1C01C0
1C01C0
1C01C0
1C03C0
1E07C0
1E1DD8
0FF1F0
07C0C0
ENDCHAR
STARTCHAR 1EEC
ENCODING 7916
SWIDTH 675 0
DWIDTH 27 0
BBX 26 34 1 0
BITMAP
001E0000
003E0000
00660000
00C40000
00180000
003000C0
000803C0
000001C0
000001C0
FF81FF80
3E007F00
1C003E00
1C003800
1C003800
1C003800
1C003800
1C003800
1C003800
1C003800
1C003800
1C003800
1C003800
1C003800
1C003800
1C003800
1C003800
1C003800
1C007800
0E007000
0E007000
0F00E000
07C1C000
03FF8000
007E0000
ENDCHAR
STARTCHAR 1EED
ENCODING 7917
SWIDTH 625 0
DWIDTH 25 0
BBX 24 28 0 0
BITMAP
003800
00FC00
018C00
018800
003000
006000
002002
00100F
000007
0C0047
FC07C6
3C0FDC
1C01B8
1C01E0
1C01C0
1C01C0
1C01C0
1C01C0
1C01C0
1C01C0
1C01C0
1C01C0
1C01C0
1C03C0
1E07C0
1E1DD8
0FF1F0
07C0C0
ENDCHAR
STARTCHAR 1EEE
ENCODING 7918
SWIDTH 675 0
DWIDTH 27 0
BBX 26 32 1 0
BITMAP
00F06000
01F84000
03FCC000
031F80C0
020603C0
000001C0
000001C0
FF81FF80
3E007F00
1C003E00
1C003800
1C003800
1C003800
1C003800
1C003800
1C003800
1C003800
1C003800
1C003800
1C003800
1C003800
1C003800
1C003800
1C003800
1C003800
1C007800
0E007000
0E007000
0F00E000
07C1C000
03FF8000
007E0000
ENDCHAR
STARTCHAR 1EEF
ENCODING 7919
SWIDTH 625 0
DWIDTH 25 0
BBX 24 27 0 0
BITMAP
01C080
03E180
07F100
0C7E00
081C00
000002
00000F
000007
0C0047
FC07C6
3C0FDC
1C01B8
1C01E0
1C01C0
1C01C0
1C01C0
1C01C0
1C01C0
1C01C0
1C01C0
1C01C0
1C01C0
1C03C0
1E07C0
1E1DD8
0FF1F0
07C0C0
ENDCHAR
STARTCHAR 1EF0
ENCODING 7920
SWIDTH 675 0
DWIDTH 27 0
BBX 26 37 1 -8
BITMAP
000000C0
000003C0
000001C0
000001C0
FF81FF80
3E007F00
1C003E00
1C003800
1C003800
1C003800
1C003800
1C003800
1C003800
1C003800
1C003800
1C003800
1C003800
1C003800
1C003800
1C003800
1C003800
1C003800
1C007800
0E007000
0E007000
0F00E000
07C1C000
03FF8000
007E0000
00000000
00000000
00000000
00180000
00380000
00380000
00380000
00180000
ENDCHAR
STARTCHAR 1EF1
ENCODING 7921
SWIDTH 625 0
DWIDTH 25 0
BBX 24 30 0 -8
BITMAP
000002
00000F
000007
0C0047
FC07C6
3C0FDC
1C01B8
1C01E0
1C01C0
1C01C0
1C01C0
1C01C0
1C01C0
1C01C0
1C01C0
1C01C0
1C01C0
1C03C0
1E07C0
1E1DD8
0FF1F0
07C0C0
000000
000000
000000
006000
007000
007000
006000
006000
ENDCHAR
STARTCHAR 1EF2
ENCODING 7922
SWIDTH 600 0
DWIDTH 24 0
BBX 23 34 0 0
BITMAP
038000
07C000
07E000
01F000
007800
001C00
000E00
000200
000000
F801FE
3C0078
1E0060
0E00E0
0700C0
0781C0
038180
03C380
01C300
00E700
00EE00
007E00
007C00
003800
003800
003800
003800
003800
003800
003800
003800
003800
003800
007C00
01FF00
ENDCHAR
STARTCHAR 1EF3
ENCODING 7923
SWIDTH 500 0
DWIDTH 20 0
BBX 20 38 -1 -9
BITMAP
038000
03C000
01C000
00E000
00E000
007000
003800
001800
000C00
000000
000000
7F83F0
1E00E0
0E00C0
0E00C0
070180
070180
070300
038300
038300
01C600
01C600
01C600
00EC00
00EC00
007800
007800
007800
003000
003000
006000
006000
00E000
01C000
438000
7F0000
FE0000
7C0000
ENDCHAR
STARTCHAR 1EF4
ENCODING 7924
SWIDTH 600 0
DWIDTH 24 0
BBX 23 33 0 -8
BITMAP
F801FE
3C0078
1E0060
0E00E0
0700C0
0781C0
038180
03C380
01C300
00E700
00EE00
007E00
007C00
003800
003800
003800
003800
003800
003800
003800
003800
003800
003800
007C00
01FF00
000000
000000
000000
001800
003800
003800
003800
003000
ENDCHAR
STARTCHAR 1EF5
ENCODING 7925
SWIDTH 500 0
DWIDTH 20 0
BBX 20 27 -1 -9
BITMAP
7F83F0
1E00E0
0E00C0
0E00C0
070180
070180
070300
038300
038300
01C600
01C600
01C600
00EC00
00EC00
007800
007800
007800
003000
003000
006000
006000
00E180
01C380
438380
7F0380
FE0300
7C0000
ENDCHAR
STARTCHAR 1EF6
ENCODING 7926
SWIDTH 600 0
DWIDTH 24 0
BBX 23 34 0 0
BITMAP
003C00
007E00
00C600
00C400
001800
003000
001800
000000
000000
F801FE
3C0078
1E0060
0E00E0
0700C0
0781C0
038180
03C380
01C300
00E700
00EE00
007E00
007C00
003800
003800
003800
003800
003800
003800
003800
003800
003800
003800
007C00
01FF00
ENDCHAR
STARTCHAR 1EF7
ENCODING 7927
SWIDTH 500 0
DWIDTH 20 0
BBX 20 37 -1 -9
BITMAP
003C00
007C00
00CC00
01CC00
001000
002000
007000
000000
000000
000000
7F83F0
1E00E0
0E00C0
0E00C0
070180
070180
070300
038300
038300
01C600
01C600
01C600
00EC00
00EC00
007800
007800
007800
003000
003000
006000
006000
00E000
01C000
438000
7F0000
FE0000
7C0000
ENDCHAR
STARTCHAR 1EF8
ENCODING 7928
SWIDTH 600 0
DWIDTH 24 0
BBX 23 32 0 0
BITMAP
00F040
01F8C0
03FD80
021F80
040600
000000
000000
F801FE
3C0078
1E0060
0E00E0
0700C0
0781C0
038180
03C380
01C300
00E700
00EE00
007E00
007C00
003800
003800
003800
003800
003800
003800
003800
003800
003800
003800
007C00
01FF00
ENDCHAR
STARTCHAR 1EF9
ENCODING 7929
SWIDTH 500 0
DWIDTH 20 0
BBX 20 36 -1 -9
BITMAP
00E040
01F0C0
03F980
063F00
040E00
000000
000000
000000
000000
7F83F0
1E00E0
0E00C0
0E00C0
070180
070180
070300
038300
038300
01C600
01C600
01C600
00EC00
00EC00
007800
007800
007800
003000
003000
006000
006000
00E000
01C000
438000
7F0000
FE0000
7C0000
ENDCHAR
STARTCHAR 2011
ENCODING 8209
SWIDTH 325 0
DWIDTH 13 0
BBX 11 2 1 9
BITMAP
7FE0
FFE0
ENDCHAR
STARTCHAR 2013
ENCODING 8211
SWIDTH 475 0
DWIDTH 19 0
BBX 17 2 1 9
BITMAP
7FFF80
FFFF00
ENDCHAR
STARTCHAR 2014
ENCODING 8212
SWIDTH 775 0
DWIDTH 31 0
BBX 28 2 1 9
BITMAP
7FFFFFF0
FFFFFFF0
ENDCHAR
STARTCHAR 2018
ENCODING 8216
SWIDTH 225 0
DWIDTH 9 0
BBX 6 10 2 18
BITMAP
10
38
60
60
E0
E0
F0
F8
FC
40
ENDCHAR
STARTCHAR 2019
ENCODING 8217
SWIDTH 225 0
DWIDTH 9 0
BBX 5 10 2 19
BITMAP
10
78
F8
78
38
38
30
70
60
C0
ENDCHAR
STARTCHAR 201A
ENCODING 8218
SWIDTH 225 0
DWIDTH 9 0
BBX 5 10 2 -5
BITMAP
10
78
F8
78
38
38
30
70
60
C0
ENDCHAR
STARTCHAR 201C
ENCODING 8220
SWIDTH 425 0
DWIDTH 17 0
BBX 14 10 2 18
BITMAP
1010
3838
6070
6060
E0E0
E0E0
F0F0
F8F8
FCFC
4040
ENDCHAR
STARTCHAR 201D
ENCODING 8221
SWIDTH 425 0
DWIDTH 17 0
BBX 13 10 2 19
BITMAP
1010
78F8
F9F8
7878
3838
3838
3030
7070
6060
C0C0
ENDCHAR
STARTCHAR 201E
ENCODING 8222
SWIDTH 450 0
DWIDTH 18 0
BBX 14 10 2 -5
BITMAP
1008
787C
F8FC
783C
381C
381C
3018
7038
6030
C060
ENDCHAR
STARTCHAR 2020
ENCODING 8224
SWIDTH 475 0
DWIDTH 19 0
BBX 16 30 1 -1
BITMAP
00C0
03C0
03C0
0180
0180
0180
0180
6183
7FFF
FFFF
E186
0180
0180
0180
0180
03C0
03C0
0180
0180
0180
0180
0180
0180
0180
0180
0180
0180
0180
0180
0180
ENDCHAR
STARTCHAR 2021
ENCODING 8225
SWIDTH 475 0
DWIDTH 19 0
BBX 16 30 2 -1
BITMAP
00C0
03C0
03C0
0380
0180
0180
0180
6183
7FFF
FFFE
E186
0180
0180
0180
03C0
03C0
0180
0180
0180
6187
7FFF
FFFE
E186
0180
0180
0180
0180
03C0
03C0
0300
ENDCHAR
STARTCHAR 2022
ENCODING 8226
SWIDTH 275 0
DWIDTH 11 0
BBX 9 9 1 8
BITMAP
1E00
3F00
7F80
7F80
FF80
FF80
7F00
7F00
3C00
ENDCHAR
STARTCHAR 2026
ENCODING 8230
SWIDTH 675 0
DWIDTH 27 0
BBX 23 5 2 -1
BITMAP
70381C
F87C3E
F87C3E
F8783C
707838
ENDCHAR
STARTCHAR 2030
ENCODING 8240
SWIDTH 1000 0
DWIDTH 40 0
BBX 38 25 1 -1
BITMAP
0F80060000
3FC01C0000
71E0380000
70E0380000
E070700000
E070E00000
E070E00000
E071C00000
E073800000
70E7000000
78E7000000
3FCE3C01E0
1F1CFE07F0
001DCF0E78
0039C70E38
0073839C1C
00E3839C1C
00E3839C1C
01C3839C1C
0383839C1C
0383839C1C
0701C70E38
0E01C70E38
1C00FE07F0
18007803C0
ENDCHAR
STARTCHAR 2039
ENCODING 8249
SWIDTH 300 0
DWIDTH 12 0
BBX 7 18 2 0
BITMAP
02
06
0C
0C
18
38
70
F0
E0
E0
F0
70
38
18
0C
0C
06
02
ENDCHAR
STARTCHAR 203A
ENCODING 8250
SWIDTH 300 0
DWIDTH 12 0
BBX 8 18 3 0
BITMAP
80
C0
60
70
30
38
1C
1E
0F
0F
1E
1C
38
30
70
60
C0
80
ENDCHAR
STARTCHAR 2044
ENCODING 8260
SWIDTH 575 0
DWIDTH 23 0
BBX 17 24 4 0
BITMAP
000180
000300
000300
000600
000C00
000C00
001800
003000
003000
006000
00E000
00C000
018000
038000
030000
060000
0E0000
0C0000
180000
380000
300000
600000
E00000
C00000
ENDCHAR
STARTCHAR 20AC
ENCODING 8364
SWIDTH 475 0
DWIDTH 19 0
BBX 18 24 0 0
BITMAP
007E00
01FF80
0387C0
070180
060000
0E0000
0C0000
1C0000
1C0000
7FF800
7FF800
1C0000
1C0000
7FF800
FFF000
1C0000
1C0000
1C0000
1E0000
0E00C0
0F0180
078300
03FE00
00F800
ENDCHAR
STARTCHAR 2122
ENCODING 8482
SWIDTH 550 0
DWIDTH 22 0
BBX 19 9 2 16
BITMAP
FEE060
9260C0
107140
105140
105940
104A40
104A40
104C40
38E4E0
ENDCHAR
STARTCHAR 2126
ENCODING 8486
SWIDTH 625 0
DWIDTH 25 0
BBX 22 25 1 0
BITMAP
007E00
03FFC0
0783E0
0E00F0
1C0078
3C0038
380038
78001C
70001C
70001C
70001C
70001C
70001C
70001C
700038
380038
380030
1C0070
0C00E0
0E00C0
470184
43830C
61C60C
FFC7FC
FFC7F8
ENDCHAR
STARTCHAR 2202
ENCODING 8706
SWIDTH 500 0
DWIDTH 20 0
BBX 16 28 2 0
BITMAP
0FC0
3FF0
70F8
C03C
001C
001E
000E
000E
000F
0007
03C7
0FE7
1C77
301F
700F
600F
E007
E007
E007
E006
E006
E00E
F00E
700C
7818
3C38
1FF0
07C0
ENDCHAR
STARTCHAR 2205
ENCODING 8709
SWIDTH 650 0
DWIDTH 26 0
BBX 22 29 2 -2
BITMAP
00000C
000018
00FC38
03FF30
0F83E0
1E00E0
1C00F0
3801F0
700138
700338
700618
E00C1C
E0081C
E0181C
E0301C
E0601C
E0401C
E0C01C
E18038
730038
720038
360070
3C00E0
1C01E0
1F07C0
33FF00
70FC00
600000
C00000
ENDCHAR
STARTCHAR 2206
ENCODING 8710
SWIDTH 575 0
DWIDTH 23 0
BBX 20 25 1 0
BITMAP
002000
007000
00F000
00F000
00F800
01F800
01B800
039C00
031C00
031E00
070E00
060E00
060F00
0E0700
0C0780
1C0380
180380
1803C0
3801C0
3001E0
7000E0
7000E0
6000F0
FFFFF0
FFFFF0
ENDCHAR
STARTCHAR 220F
ENCODING 8719
SWIDTH 625 0
DWIDTH 25 0
BBX 23 25 1 0
BITMAP
FFFFFE
3FFFF8
1E00F0
1C0070
1C0070
1C0070
1C0070
1C0070
1C0070
1C0070
1C0070
1C0070
1C0070
1C0070
1C0070
1C0070
1C0070
1C0070
1C0070
1C0070
1C0070
1C0070
1C0070
3E00F8
FF83FE
ENDCHAR
STARTCHAR 2211
ENCODING 8721
SWIDTH 525 0
DWIDTH 21 0
BBX 19 25 1 0
BITMAP
7FFFC0
7FFFC0
3801C0
3C00C0
1E00C0
0E0040
070000
078000
038000
01C000
01E000
00E000
007000
00E000
01C000
038000
038000
070000
0E0000
0C0060
1C0060
380060
7000C0
7FFFC0
FFFFC0
ENDCHAR
STARTCHAR 2212
ENCODING 8722
SWIDTH 400 0
DWIDTH 16 0
BBX 14 2 1 10
BITMAP
7FFC
FFFC
ENDCHAR
STARTCHAR 2219
ENCODING 8729
SWIDTH 150 0
DWIDTH 6 0
BBX 3 5 1 11
BITMAP
60
E0
E0
E0
C0
ENDCHAR
STARTCHAR 221A
ENCODING 8730
SWIDTH 600 0
DWIDTH 24 0
BBX 24 28 0 0
BITMAP
00001F
00001F
000018
000030
000030
000030
000020
000060
000060
000060
7C00C0
FE00C0
0E00C0
0F00C0
070180
078180
038180
03C300
01C300
01E300
00E300
00F600
007600
007600
003C00
003C00
001C00
001800
ENDCHAR
STARTCHAR 221E
ENCODING 8734
SWIDTH 650 0
DWIDTH 26 0
BBX 22 10 2 6
BITMAP
0F00F0
3FC3F8
70E43C
60783C
E0201C
E0101C
F07818
F99C38
7F0FF0
3C03C0
ENDCHAR
STARTCHAR 222B
ENCODING 8747
SWIDTH 275 0
DWIDTH 11 0
BBX 18 39 -4 -9
BITMAP
000F00
003F80
0063C0
00E100
00C000
01C000
01C000
01C000
01C000
01C000
01C000
01C000
01C000
01C000
01C000
01C000
01C000
01C000
01E000
01E000
00E000
00E000
00E000
00E000
00E000
00E000
00E000
00E000
00E000
00E000
00E000
00E000
00C000
00C000
01C000
018000
230000
FE0000
F80000
ENDCHAR
STARTCHAR 2248
ENCODING 8776
SWIDTH 450 0
DWIDTH 18 0
BBX 15 10 1 6
BITMAP
1E02
7F86
E3FC
4078
0000
0000
1E02
7F86
E3FC
4078
ENDCHAR
STARTCHAR 2260
ENCODING 8800
SWIDTH 450 0
DWIDTH 18 0
BBX 15 18 1 2
BITMAP
000C
001C
0038
0038
0070
7FFE
FFFE
01C0
01C0
0380
0700
7FFE
FFFE
1C00
1C00
3800
3800
6000
ENDCHAR
STARTCHAR 2264
ENCODING 8804
SWIDTH 450 0
DWIDTH 18 0
BBX 15 16 1 4
BITMAP
0002
001E
00FE
03F0
1F80
7E00
F000
7E00
1F80
03F0
00FE
001E
0004
0000
7FFE
FFFE
ENDCHAR
STARTCHAR 2265
ENCODING 8805
SWIDTH 450 0
DWIDTH 18 0
BBX 15 16 1 4
BITMAP
6000
FC00
3F80
0FE0
01FC
003E
001E
00FC
07F0
1F80
7C00
F000
8000
0000
7FFE
FFFE
ENDCHAR
STARTCHAR 25CA
ENCODING 9674
SWIDTH 325 0
DWIDTH 13 0
BBX 13 25 0 0
BITMAP
0100
0700
0780
0F80
0DC0
1DC0
18E0
38E0
3060
3070
6030
6038
E018
E038
7030
7030
3860
3860
1CC0
1CC0
0F80
0F80
0700
0700
0200
ENDCHAR
STARTCHAR 25CC
ENCODING 9676
SWIDTH 525 0
DWIDTH 21 0
BBX 18 18 1 0
BITMAP
00C000
06D800
061800
180300
180300
6000C0
6000C0
000000
400040
C000C0
000000
6000C0
6000C0
180300
180300
061800
06D800
00C000
ENDCHAR
STARTCHAR 2C60
ENCODING 11360
SWIDTH 475 0
DWIDTH 19 0
BBX 18 25 1 0
BITMAP
FF8000
3E0000
1C0000
1C0000
1C0000
1C0000
1C0000
1C0000
1C0000
1C0000
1C0000
FFE000
FFE000
1C0000
1C0000
FFE000
FFE000
1C0000
1C0000
1C0000
1C00C0
1C0080
1C0180
1FFF80
FFFF80
ENDCHAR
STARTCHAR 2C61
ENCODING 11361
SWIDTH 325 0
DWIDTH 13 0
BBX 11 30 1 0
BITMAP
0600
7E00
3E00
0E00
0E00
0E00
0E00
0E00
0E00
0E00
0E00
0E00
7FE0
FFC0
0E00
0E00
7FE0
FFC0
0E00
0E00
0E00
0E00
0E00
0E00
0E00
0E00
0E00
0E00
0E00
7FC0
ENDCHAR
STARTCHAR 2C62
ENCODING 11362
SWIDTH 475 0
DWIDTH 19 0
BBX 20 25 -1 0
BITMAP
3FE000
0F8000
070000
070000
070000
070000
070000
070000
070000
070000
070000
1F0800
3F1000
67F000
C7C000
070000
070000
070000
070000
070000
070030
070020
078060
0FFFE0
3FFFE0
ENDCHAR
STARTCHAR A789
ENCODING 42889
SWIDTH 200 0
DWIDTH 8 0
BBX 5 14 2 2
BITMAP
70
F8
F8
F8
70
00
00
00
00
70
F8
F8
F8
70
ENDCHAR
STARTCHAR A78A
ENCODING 42890
SWIDTH 325 0
DWIDTH 13 0
BBX 11 8 1 5
BITMAP
7FE0
FFE0
0000
0000
0000
0000
7FE0
FFE0
ENDCHAR
STARTCHAR A78B
ENCODING 42891
SWIDTH 250 0
DWIDTH 10 0
BBX 4 18 3 13
BITMAP
70
F0
F0
F0
F0
F0
F0
F0
E0
E0
E0
E0
60
60
60
60
60
60
ENDCHAR
STARTCHAR A78C
ENCODING 42892
SWIDTH 250 0
DWIDTH 10 0
BBX 4 17 3 12
BITMAP
70
F0
F0
F0
F0
F0
F0
F0
E0
E0
60
60
60
60
60
60
60
ENDCHAR
STARTCHAR F130
ENCODING 61744
SWIDTH 175 0
DWIDTH 7 0
BBX 6 6 1 -6
BITMAP
FC
04
04
04
04
04
ENDCHAR
STARTCHAR F131
ENCODING 61745
SWIDTH 175 0
DWIDTH 7 0
BBX 6 6 0 -6
BITMAP
FC
80
80
80
80
80
ENDCHAR
STARTCHAR F195
ENCODING 61845
SWIDTH 200 0
DWIDTH 8 0
BBX 8 9 0 20
BITMAP
F0
F0
78
38
1C
0C
06
02
03
ENDCHAR
STARTCHAR F197
ENCODING 61847
SWIDTH 200 0
DWIDTH 8 0
BBX 8 9 0 20
BITMAP
0E
0F
1E
1C
38
30
60
40
C0
ENDCHAR
STARTCHAR F1C8
ENCODING 61896
SWIDTH 325 0
DWIDTH 13 0
BBX 12 15 0 16
BITMAP
0F80
3FE0
70F0
E070
E070
0070
0060
00E0
01C0
0380
0300
0700
0700
0700
0700
ENDCHAR
STARTCHAR F1E9
ENCODING 61929
SWIDTH 200 0
DWIDTH 8 0
BBX 5 14 2 2
BITMAP
70
F8
F8
F8
70
00
00
00
00
70
F8
F8
F8
70
ENDCHAR
STARTCHAR F1EA
ENCODING 61930
SWIDTH 325 0
DWIDTH 13 0
BBX 11 8 1 5
BITMAP
7FE0
FFE0
0000
0000
0000
0000
7FE0
FFE0
ENDCHAR
STARTCHAR F20E
ENCODING 61966
SWIDTH 325 0
DWIDTH 13 0
BBX 11 30 1 0
BITMAP
0600
7E00
3E00
0E00
0E00
0E00
0E00
0E00
0E00
0E00
0E00
0E00
7FE0
FFC0
0E00
0E00
7FE0
FFC0
0E00
0E00
0E00
0E00
0E00
0E00
0E00
0E00
0E00
0E00
0E00
7FC0
ENDCHAR
STARTCHAR F20F
ENCODING 61967
SWIDTH 475 0
DWIDTH 19 0
BBX 18 25 1 0
BITMAP
FF8000
3E0000
1C0000
1C0000
1C0000
1C0000
1C0000
1C0000
1C0000
1C0000
1C0000
FFE000
FFE000
1C0000
1C0000
FFE000
FFE000
1C0000
1C0000
1C0000
1C00C0
1C0080
1C0180
1FFF80
FFFF80
ENDCHAR
STARTCHAR F211
ENCODING 61969
SWIDTH 500 0
DWIDTH 20 0
BBX 23 27 2 -9
BITMAP
01F180
07FB00
1C1F00
380F00
300700
700700
600700
E00700
E00700
E00700
E00700
E00700
F00700
700F00
781F00
3C3700
1FE700
078700
000700
000700
000700
000706
00070E
00070C
00079C
0003F8
0001E0
ENDCHAR
STARTCHAR F212
ENCODING 61970
SWIDTH 600 0
DWIDTH 24 0
BBX 27 34 1 -9
BITMAP
003E1000
01FFB800
0383F000
0600F000
0C007000
18007000
38007000
70007000
70007000
60007000
E0007000
E0007000
E0007000
E0007000
E0007000
E0007000
F0007000
70007000
70007000
7800F000
3801F000
1C077000
0F0E7000
07FC7000
03F07000
00007000
00007000
00007000
00007060
000070E0
000070C0
000079C0
00003F80
00001E00
ENDCHAR
STARTCHAR F218
ENCODING 61976
SWIDTH 650 0
DWIDTH 26 0
BBX 24 25 1 0
BITMAP
FF81FF
3E007C
1C0038
1C0038
1C0038
1C0038
1C0038
1C0038
1C0038
1C0038
1C0038
FFFFFF
FFFFFF
1C0038
1C0038
1C0038
1C0038
1C0038
1C0038
1E0070
0E0070
0F00E0
07C1C0
03FF80
007E00
ENDCHAR
STARTCHAR F219
ENCODING 61977
SWIDTH 650 0
DWIDTH 26 0
BBX 25 25 0 0
BITMAP
000C0000
001C0000
001E0000
003E0000
003F0000
00370000
00770000
00678000
00E38000
00E38000
00C1C000
01C1C000
0181E000
0180E000
0380E000
0300F000
03007000
07007000
06003800
06003800
0E003C00
0C001C00
0C001C00
1C001E00
FF807F80
ENDCHAR
STARTCHAR F21D
ENCODING 61981
SWIDTH 250 0
DWIDTH 10 0
BBX 4 17 3 12
BITMAP
70
F0
F0
F0
F0
F0
F0
F0
E0
E0
60
60
60
60
60
60
60
ENDCHAR
STARTCHAR F21E
ENCODING 61982
SWIDTH 400 0
DWIDTH 16 0
BBX 13 18 1 0
BITMAP
07C0
1FF0
70F0
6078
E038
E038
E038
0070
00E0
0180
0380
0700
0700
0700
0700
0700
0F80
3FE0
ENDCHAR
STARTCHAR F21F
ENCODING 61983
SWIDTH 475 0
DWIDTH 19 0
BBX 18 25 1 0
BITMAP
FF8000
3E0000
1C0000
1C0000
1C0000
1C0000
1C0000
1C0000
1C0000
1C0000
1C0000
1C0000
1C0000
FFE000
FFE000
1C0000
1C0000
1C0000
1C0000
1C0000
1C00C0
1C0080
1E0180
1FFF80
FFFF80
ENDCHAR
STARTCHAR F242
ENCODING 62018
SWIDTH 475 0
DWIDTH 19 0
BBX 20 25 -1 0
BITMAP
3FE000
0F8000
070000
070000
070000
070000
070000
070000
070000
070000
070000
1F0800
3F1000
67F000
C7C000
070000
070000
070000
070000
070000
070030
070020
078060
0FFFE0
3FFFE0
ENDCHAR
STARTCHAR F26A
ENCODING 62058
SWIDTH 250 0
DWIDTH 10 0
BBX 4 18 3 13
BITMAP
70
F0
F0
F0
F0
F0
F0
F0
E0
E0
E0
E0
60
60
60
60
60
60
ENDCHAR
STARTCHAR FB01
ENCODING 64257
SWIDTH 575 0
DWIDTH 23 0
BBX 21 30 1 0
BITMAP
007800
01FE00
031C00
0608C0
0E01C0
0C01C0
0C01C0
1C0180
1C0000
1C0000
1C0000
1C0000
7FF0C0
FFE7C0
1C43C0
1C01C0
1C01C0
1C01C0
1C01C0
1C01C0
1C01C0
1C01C0
1C01C0
1C01C0
1C01C0
1C01C0
1C01C0
1C01C0
3E01E0
FFC7F8
ENDCHAR
STARTCHAR FB02
ENCODING 64258
SWIDTH 575 0
DWIDTH 23 0
BBX 21 30 1 0
BITMAP
0078C0
01FFC0
031DC0
0611C0
0E01C0
0C01C0
0C01C0
1C01C0
1C01C0
1C01C0
1C01C0
1C01C0
7FF1C0
FFE1C0
1C41C0
1C01C0
1C01C0
1C01C0
1C01C0
1C01C0
1C01C0
1C01C0
1C01C0
1C01C0
1C01C0
1C01C0
1C01C0
1C01C0
3E03C0
FFCFF8
ENDCHAR
ENDFONT
